{
DisplayStrings = (

glyphs = (
{
glyphname = A;
lastChange = "2016-02-22 16:16:27 +0000";
layers = (
{
anchors = (
{
name = bottom;
position = "{343, 0}";
},
{
name = ogonek;
position = "{616, 10}";
},
{
name = top;
position = "{341, 770}";
}
);
background = {
paths = (
{
closed = 1;
nodes = (
"-2061 674 LINE",
"-1944 674 OFFCURVE",
"-1896 642 OFFCURVE",
"-1868 550 CURVE SMOOTH",
"-1708 35 LINE",
"-1608 35 LINE",
"-1608 0 LINE",
"-1873 0 LINE",
"-1990 395 LINE SMOOTH",
"-2013 476 OFFCURVE",
"-2033 502 OFFCURVE",
"-2135 502 CURVE"
);
},
{
closed = 1;
nodes = (
"-2042 521 LINE",
"-2019 517 LINE",
"-2138 19 LINE",
"-2272 19 LINE"
);
},
{
closed = 1;
nodes = (
"-2134 228 LINE",
"-1927 228 LINE",
"-1912 191 LINE",
"-2158 191 LINE"
);
},
{
closed = 1;
nodes = (
"-2080 33 LINE",
"-2080 0 LINE",
"-2337 0 LINE",
"-2337 33 LINE"
);
},
{
closed = 1;
nodes = (
"-1590 40 LINE",
"-1590 0 LINE",
"-1368 0 LINE",
"-1368 40 LINE",
"-1417 41 LINE",
"-1298 595 LINE",
"-1319 587 LINE",
"-1162 41 LINE",
"-1211 40 LINE",
"-1211 0 LINE",
"-913 0 LINE",
"-913 40 LINE",
"-962 41 LINE",
"-1182 672 LINE",
"-1308 665 LINE",
"-1543 41 LINE"
);
},
{
closed = 1;
nodes = (
"-1172 191 LINE",
"-1187 228 LINE",
"-1394 228 LINE",
"-1418 191 LINE"
);
},
{
closed = 1;
nodes = (
"-795 40 LINE",
"-795 0 LINE",
"-573 0 LINE",
"-573 40 LINE",
"-624 41 LINE",
"-505 591 LINE",
"-522 577 LINE",
"-372 41 LINE",
"-421 40 LINE",
"-421 0 LINE",
"-122 0 LINE",
"-122 40 LINE",
"-171 41 LINE",
"-387 672 LINE",
"-521 655 LINE",
"-746 41 LINE"
);
},
{
closed = 1;
nodes = (
"-372 191 LINE",
"-387 228 LINE",
"-594 228 LINE",
"-618 191 LINE"
);
},
{
closed = 1;
nodes = (
"-2 38 LINE",
"-2 -2 LINE",
"230 -2 LINE",
"230 38 LINE",
"179 39 LINE",
"294 589 LINE",
"267 575 LINE",
"420 39 LINE",
"371 38 LINE",
"371 -2 LINE",
"699 -2 LINE",
"699 38 LINE",
"650 39 LINE",
"402 670 LINE",
"278 653 LINE",
"47 39 LINE"
);
}
);
};
guideLines = (
{
angle = 270;
position = "{336, 339}";
}
);
layerId = "FABFC9D4-E17A-4CB6-8F8E-4923CD579275";
name = Regular;
paths = (
{
closed = 1;
nodes = (
"428 200 LINE",
"413 237 LINE",
"206 237 LINE",
"182 200 LINE"
);
},
{
closed = 1;
nodes = (
"2 35 LINE",
"2 0 LINE",
"228 0 LINE",
"228 35 LINE",
"177 36 LINE",
"291 598 LINE",
"269 594 LINE",
"426 36 LINE",
"377 35 LINE",
"377 0 LINE",
"678 0 LINE",
"678 35 LINE",
"629 36 LINE",
"399 679 LINE",
"275 662 LINE",
"51 36 LINE"
);
}
);
width = 670;
}
);
leftKerningGroup = A;
rightKerningGroup = A;
unicode = 0041;
},
{
glyphname = Aring;
lastChange = "2016-02-22 12:49:18 +0000";
layers = (
{
components = (
{
name = A;
}
);
guideLines = (
{
angle = 270;
position = "{335, 719}";
}
);
layerId = "FABFC9D4-E17A-4CB6-8F8E-4923CD579275";
name = Regular;
paths = (
{
closed = 1;
nodes = (
"398 639 OFFCURVE",
"435 682 OFFCURVE",
"435 736 CURVE SMOOTH",
"435 791 OFFCURVE",
"398 836 OFFCURVE",
"335 836 CURVE SMOOTH",
"271 836 OFFCURVE",
"234 791 OFFCURVE",
"234 736 CURVE SMOOTH",
"234 682 OFFCURVE",
"271 639 OFFCURVE",
"335 639 CURVE SMOOTH"
);
},
{
closed = 1;
nodes = (
"298 672 OFFCURVE",
"272 697 OFFCURVE",
"272 736 CURVE SMOOTH",
"272 774 OFFCURVE",
"298 799 OFFCURVE",
"335 799 CURVE SMOOTH",
"372 799 OFFCURVE",
"398 774 OFFCURVE",
"398 736 CURVE SMOOTH",
"398 697 OFFCURVE",
"372 672 OFFCURVE",
"335 672 CURVE SMOOTH"
);
}
);
width = 682;
}
);
leftKerningGroup = A;
rightKerningGroup = A;
unicode = 00C5;
},
{
glyphname = AE;
lastChange = "2016-02-22 12:56:56 +0000";
layers = (
{
anchors = (
{
name = bottom;
position = "{513, 0}";
},
{
name = top;
position = "{589, 770}";
}
);
background = {
paths = (
{
closed = 1;
nodes = (
"-2834 345 LINE",
"-2302 345 LINE",
"-2302 308 LINE",
"-2858 308 LINE"
);
},
{
closed = 1;
nodes = (
"-2905 36 LINE",
"-2854 35 LINE",
"-2854 0 LINE",
"-3090 0 LINE",
"-3090 35 LINE",
"-3041 36 LINE",
"-2685 656 LINE",
"-2219 673 LINE",
"-2219 491 LINE",
"-2258 492 LINE",
"-2260 542 LINE",
"-2341 581 OFFCURVE",
"-2422 613 OFFCURVE",
"-2503 638 CURVE",
"-2491 648 LINE",
"-2487 12 LINE",
"-2503 22 LINE",
"-2415 49 OFFCURVE",
"-2328 85 OFFCURVE",
"-2240 128 CURVE",
"-2238 178 LINE",
"-2199 179 LINE",
"-2199 0 LINE",
"-2706 0 LINE",
"-2706 35 LINE",
"-2657 36 LINE",
"-2657 636 LINE",
"-2646 641 LINE"
);
},
{
closed = 1;
nodes = (
"-1734 345 LINE",
"-1202 345 LINE",
"-1202 308 LINE",
"-1758 308 LINE"
);
},
{
closed = 1;
nodes = (
"-1815 36 LINE",
"-1764 35 LINE",
"-1764 0 LINE",
"-2000 0 LINE",
"-2000 35 LINE",
"-1951 36 LINE",
"-1685 660 LINE",
"-1119 673 LINE",
"-1119 491 LINE",
"-1158 492 LINE",
"-1160 542 LINE",
"-1241 581 OFFCURVE",
"-1322 613 OFFCURVE",
"-1403 638 CURVE",
"-1391 648 LINE",
"-1387 12 LINE",
"-1403 22 LINE",
"-1315 49 OFFCURVE",
"-1228 85 OFFCURVE",
"-1140 128 CURVE",
"-1138 178 LINE",
"-1099 179 LINE",
"-1099 0 LINE",
"-1606 0 LINE",
"-1606 35 LINE",
"-1557 36 LINE",
"-1557 597 LINE",
"-1647 623 LINE"
);
},
{
closed = 1;
nodes = (
"-222 300 LINE",
"-222 337 LINE",
"-744 337 LINE",
"-768 300 LINE"
);
},
{
closed = 1;
nodes = (
"-367 16 LINE",
"-511 679 LINE",
"-635 662 LINE",
"-949 36 LINE",
"-998 35 LINE",
"-998 0 LINE",
"-772 0 LINE",
"-772 35 LINE",
"-823 36 LINE",
"-619 598 LINE",
"-641 594 LINE",
"-574 36 LINE",
"-623 35 LINE",
"-623 0 LINE",
"-120 0 LINE",
"-120 179 LINE",
"-159 178 LINE",
"-161 128 LINE",
"-249 85 OFFCURVE",
"-315 49 OFFCURVE",
"-403 22 CURVE"
);
},
{
closed = 1;
nodes = (
"-393 618 OFFCURVE",
"-297 584 OFFCURVE",
"-180 543 CURVE",
"-178 493 LINE",
"-139 492 LINE",
"-139 674 LINE",
"-511 679 LINE",
"-510 644 LINE"
);
},
{
closed = 1;
nodes = (
"266 345 LINE",
"783 345 LINE",
"783 308 LINE",
"242 308 LINE"
);
},
{
closed = 1;
nodes = (
"155 36 LINE",
"206 35 LINE",
"206 0 LINE",
"10 0 LINE",
"10 35 LINE",
"59 36 LINE",
"415 656 LINE",
"866 673 LINE",
"866 491 LINE",
"827 492 LINE",
"825 542 LINE",
"744 581 OFFCURVE",
"673 613 OFFCURVE",
"597 638 CURVE",
"609 648 LINE",
"613 12 LINE",
"597 22 LINE",
"680 49 OFFCURVE",
"757 85 OFFCURVE",
"845 128 CURVE",
"847 178 LINE",
"886 179 LINE",
"886 0 LINE",
"394 0 LINE",
"394 35 LINE",
"443 36 LINE",
"443 636 LINE",
"450 639 LINE"
);
}
);
};
layerId = "FABFC9D4-E17A-4CB6-8F8E-4923CD579275";
name = Regular;
paths = (
{
closed = 1;
nodes = (
"228 345 LINE",
"745 345 LINE",
"745 308 LINE",
"204 308 LINE"
);
},
{
closed = 1;
nodes = (
"177 36 LINE",
"228 35 LINE",
"228 0 LINE",
"-8 0 LINE",
"-8 35 LINE",
"31 36 LINE",
"357 670 LINE",
"828 673 LINE",
"828 491 LINE",
"789 492 LINE",
"787 542 LINE",
"706 581 OFFCURVE",
"635 613 OFFCURVE",
"559 638 CURVE",
"571 648 LINE",
"575 12 LINE",
"559 22 LINE",
"642 49 OFFCURVE",
"719 85 OFFCURVE",
"807 128 CURVE",
"809 178 LINE",
"848 179 LINE",
"848 0 LINE",
"356 0 LINE",
"356 35 LINE",
"405 36 LINE",
"405 631 LINE",
"392 631 LINE"
);
}
);
width = 873;
}
);
unicode = 00C6;
},
{
glyphname = B;
lastChange = "2016-02-22 12:49:18 +0000";
layers = (
{
background = {
paths = (
{
closed = 1;
nodes = (
"-2567 347 LINE",
"-2420 347 LINE SMOOTH",
"-2238 348 OFFCURVE",
"-2182 316 OFFCURVE",
"-2182 211 CURVE SMOOTH",
"-2182 75 OFFCURVE",
"-2272 0 OFFCURVE",
"-2549 0 CURVE SMOOTH",
"-2784 0 LINE",
"-2784 40 LINE",
"-2735 41 LINE",
"-2735 629 LINE",
"-2784 630 LINE",
"-2784 670 LINE",
"-2548 670 LINE",
"-2367 670 LINE",
"-2280 659 OFFCURVE",
"-2242 617 OFFCURVE",
"-2242 529 CURVE SMOOTH",
"-2242 400 OFFCURVE",
"-2369 318 OFFCURVE",
"-2568 318 CURVE",
"-2572 347 LINE",
"-2476 347 OFFCURVE",
"-2430 393 OFFCURVE",
"-2430 488 CURVE SMOOTH",
"-2430 581 OFFCURVE",
"-2470 628 OFFCURVE",
"-2549 628 CURVE",
"-2549 39 LINE",
"-2418 39 OFFCURVE",
"-2370 81 OFFCURVE",
"-2370 170 CURVE SMOOTH",
"-2370 263 OFFCURVE",
"-2421 310 OFFCURVE",
"-2519 310 CURVE SMOOTH",
"-2570 310 LINE"
);
},
{
closed = 1;
nodes = (
"-2064 35 LINE",
"-2015 36 LINE",
"-2015 634 LINE",
"-2064 635 LINE",
"-2064 670 LINE",
"-1667 670 LINE",
"-1570 659 OFFCURVE",
"-1527 614 OFFCURVE",
"-1527 529 CURVE SMOOTH",
"-1527 435 OFFCURVE",
"-1599 366 OFFCURVE",
"-1740 331 CURVE",
"-1740 347 LINE",
"-1538 350 OFFCURVE",
"-1477 320 OFFCURVE",
"-1477 211 CURVE SMOOTH",
"-1477 75 OFFCURVE",
"-1568 0 OFFCURVE",
"-1849 0 CURVE SMOOTH",
"-2064 0 LINE"
);
},
{
closed = 1;
nodes = (
"-1858 346 LINE",
"-1756 350 OFFCURVE",
"-1705 397 OFFCURVE",
"-1705 488 CURVE SMOOTH",
"-1705 586 OFFCURVE",
"-1753 635 OFFCURVE",
"-1849 635 CURVE",
"-1849 35 LINE",
"-1707 35 OFFCURVE",
"-1655 78 OFFCURVE",
"-1655 170 CURVE SMOOTH",
"-1655 263 OFFCURVE",
"-1711 311 OFFCURVE",
"-1819 311 CURVE SMOOTH",
"-1858 311 LINE"
);
},
{
closed = 1;
nodes = (
"-1364 35 LINE",
"-1315 36 LINE",
"-1315 634 LINE",
"-1364 635 LINE",
"-1364 670 LINE",
"-985 670 LINE",
"-882 659 OFFCURVE",
"-827 610 OFFCURVE",
"-827 529 CURVE SMOOTH",
"-827 434 OFFCURVE",
"-900 366 OFFCURVE",
"-1040 331 CURVE",
"-1040 347 LINE",
"-874 347 LINE",
"-814 327 OFFCURVE",
"-777 270 OFFCURVE",
"-777 198 CURVE SMOOTH",
"-777 76 OFFCURVE",
"-881 0 OFFCURVE",
"-1089 0 CURVE SMOOTH",
"-1364 0 LINE"
);
},
{
closed = 1;
nodes = (
"-1158 346 LINE",
"-1054 351 OFFCURVE",
"-1005 397 OFFCURVE",
"-1005 491 CURVE SMOOTH",
"-1005 586 OFFCURVE",
"-1054 635 OFFCURVE",
"-1149 635 CURVE",
"-1149 35 LINE",
"-1013 35 OFFCURVE",
"-955 75 OFFCURVE",
"-955 169 CURVE SMOOTH",
"-955 263 OFFCURVE",
"-1011 311 OFFCURVE",
"-1119 311 CURVE SMOOTH",
"-1158 311 LINE"
);
},
{
closed = 1;
nodes = (
"-664 35 LINE",
"-615 36 LINE",
"-615 634 LINE",
"-664 635 LINE",
"-664 670 LINE",
"-285 670 LINE",
"-182 659 OFFCURVE",
"-127 610 OFFCURVE",
"-127 529 CURVE SMOOTH",
"-127 434 OFFCURVE",
"-200 366 OFFCURVE",
"-340 331 CURVE",
"-340 347 LINE",
"-194 347 LINE",
"-134 327 OFFCURVE",
"-77 270 OFFCURVE",
"-77 198 CURVE SMOOTH",
"-77 76 OFFCURVE",
"-181 0 OFFCURVE",
"-389 0 CURVE SMOOTH",
"-664 0 LINE"
);
},
{
closed = 1;
nodes = (
"-458 346 LINE",
"-354 351 OFFCURVE",
"-305 397 OFFCURVE",
"-305 491 CURVE SMOOTH",
"-305 586 OFFCURVE",
"-354 635 OFFCURVE",
"-449 635 CURVE",
"-449 35 LINE",
"-313 35 OFFCURVE",
"-255 75 OFFCURVE",
"-255 169 CURVE SMOOTH",
"-255 263 OFFCURVE",
"-311 311 OFFCURVE",
"-419 311 CURVE SMOOTH",
"-458 311 LINE"
);
},
{
closed = 1;
nodes = (
"36 35 LINE",
"85 36 LINE",
"85 634 LINE",
"36 635 LINE",
"36 670 LINE",
"229 668 LINE",
"229 668 OFFCURVE",
"330 680 OFFCURVE",
"375 680 CURVE SMOOTH",
"508 680 OFFCURVE",
"573 616 OFFCURVE",
"573 529 CURVE SMOOTH",
"573 434 OFFCURVE",
"500 366 OFFCURVE",
"360 331 CURVE",
"360 347 LINE",
"424 347 LINE SMOOTH",
"569 347 OFFCURVE",
"623 270 OFFCURVE",
"623 198 CURVE SMOOTH",
"623 76 OFFCURVE",
"519 0 OFFCURVE",
"311 0 CURVE SMOOTH",
"36 0 LINE"
);
},
{
closed = 1;
nodes = (
"242 346 LINE",
"346 351 OFFCURVE",
"395 397 OFFCURVE",
"395 491 CURVE SMOOTH",
"395 586 OFFCURVE",
"346 635 OFFCURVE",
"251 635 CURVE",
"251 35 LINE",
"387 35 OFFCURVE",
"445 75 OFFCURVE",
"445 169 CURVE SMOOTH",
"445 263 OFFCURVE",
"389 311 OFFCURVE",
"281 311 CURVE SMOOTH",
"242 311 LINE"
);
}
);
};
layerId = "FABFC9D4-E17A-4CB6-8F8E-4923CD579275";
name = Regular;
paths = (
{
closed = 1;
nodes = (
"36 35 LINE",
"85 36 LINE",
"85 634 LINE",
"36 635 LINE",
"36 670 LINE",
"229 668 LINE",
"375 680 LINE",
"508 680 OFFCURVE",
"573 616 OFFCURVE",
"573 529 CURVE SMOOTH",
"573 434 OFFCURVE",
"500 366 OFFCURVE",
"360 331 CURVE",
"360 341 LINE",
"457 347 LINE",
"569 347 OFFCURVE",
"623 270 OFFCURVE",
"623 198 CURVE SMOOTH",
"623 76 OFFCURVE",
"519 0 OFFCURVE",
"311 0 CURVE SMOOTH",
"36 0 LINE"
);
},
{
closed = 1;
nodes = (
"242 346 LINE",
"346 351 OFFCURVE",
"395 397 OFFCURVE",
"395 491 CURVE SMOOTH",
"395 586 OFFCURVE",
"346 635 OFFCURVE",
"251 635 CURVE",
"251 35 LINE",
"387 35 OFFCURVE",
"445 75 OFFCURVE",
"445 169 CURVE SMOOTH",
"445 263 OFFCURVE",
"389 311 OFFCURVE",
"281 311 CURVE SMOOTH",
"242 311 LINE"
);
}
);
width = 635;
}
);
unicode = 0042;
},
{
glyphname = C;
lastChange = "2016-02-22 16:19:04 +0000";
layers = (
{
anchors = (
{
name = bottom;
position = "{321, -80}";
},
{
name = top;
position = "{336, 770}";
}
);
background = {
paths = (
{
closed = 1;
nodes = (
"-1211 60 OFFCURVE",
"-1295 163 OFFCURVE",
"-1295 338 CURVE SMOOTH",
"-1295 492 OFFCURVE",
"-1227 622 OFFCURVE",
"-1153 657 CURVE",
"-1169 670 LINE",
"-1022 453 LINE",
"-899 556 LINE",
"-941 622 OFFCURVE",
"-1027 683 OFFCURVE",
"-1146 683 CURVE SMOOTH",
"-1216 683 OFFCURVE",
"-1299 660 OFFCURVE",
"-1365 625 CURVE",
"-1434 551 OFFCURVE",
"-1474 437 OFFCURVE",
"-1474 322 CURVE SMOOTH",
"-1474 111 OFFCURVE",
"-1342 -15 OFFCURVE",
"-1161 -15 CURVE SMOOTH",
"-1026 -15 OFFCURVE",
"-913 69 OFFCURVE",
"-866 169 CURVE",
"-898 187 LINE",
"-946 107 OFFCURVE",
"-1023 60 OFFCURVE",
"-1102 60 CURVE SMOOTH"
);
},
{
closed = 1;
nodes = (
"-122 167 LINE",
"-165 124 OFFCURVE",
"-223 100 OFFCURVE",
"-285 100 CURVE SMOOTH",
"-414 100 OFFCURVE",
"-495 201 OFFCURVE",
"-495 364 CURVE SMOOTH",
"-495 502 OFFCURVE",
"-436 624 OFFCURVE",
"-353 658 CURVE",
"-369 670 LINE",
"-234 457 LINE",
"-111 560 LINE",
"-160 637 OFFCURVE",
"-247 683 OFFCURVE",
"-346 683 CURVE SMOOTH",
"-419 683 OFFCURVE",
"-497 659 OFFCURVE",
"-565 615 CURVE",
"-632 552 OFFCURVE",
"-674 438 OFFCURVE",
"-674 318 CURVE SMOOTH",
"-674 120 OFFCURVE",
"-555 -15 OFFCURVE",
"-380 -15 CURVE SMOOTH",
"-270 -15 OFFCURVE",
"-165 43 OFFCURVE",
"-94 143 CURVE"
);
},
{
closed = 1;
nodes = (
"578 167 LINE",
"535 124 OFFCURVE",
"477 100 OFFCURVE",
"415 100 CURVE SMOOTH",
"282 100 OFFCURVE",
"199 201 OFFCURVE",
"199 364 CURVE SMOOTH",
"199 502 OFFCURVE",
"260 624 OFFCURVE",
"352 658 CURVE",
"336 670 LINE",
"471 457 LINE",
"594 560 LINE",
"545 637 OFFCURVE",
"455 683 OFFCURVE",
"354 683 CURVE SMOOTH",
"279 683 OFFCURVE",
"197 659 OFFCURVE",
"129 615 CURVE",
"62 552 OFFCURVE",
"20 438 OFFCURVE",
"20 318 CURVE SMOOTH",
"20 120 OFFCURVE",
"141 -15 OFFCURVE",
"320 -15 CURVE SMOOTH",
"430 -15 OFFCURVE",
"535 43 OFFCURVE",
"606 143 CURVE"
);
}
);
};
layerId = "FABFC9D4-E17A-4CB6-8F8E-4923CD579275";
name = Regular;
paths = (
{
closed = 1;
nodes = (
"580 170 LINE",
"533 124 OFFCURVE",
"477 100 OFFCURVE",
"419 100 CURVE SMOOTH",
"282 100 OFFCURVE",
"203 196 OFFCURVE",
"203 364 CURVE SMOOTH",
"203 502 OFFCURVE",
"274 626 OFFCURVE",
"366 660 CURVE",
"350 672 LINE",
"400 601 OFFCURVE",
"445 530 OFFCURVE",
"485 459 CURVE",
"608 562 LINE",
"559 639 OFFCURVE",
"469 685 OFFCURVE",
"368 685 CURVE SMOOTH",
"293 685 OFFCURVE",
"211 661 OFFCURVE",
"143 617 CURVE",
"76 554 OFFCURVE",
"24 438 OFFCURVE",
"24 318 CURVE SMOOTH",
"24 115 OFFCURVE",
"141 -15 OFFCURVE",
"324 -15 CURVE SMOOTH",
"436 -15 OFFCURVE",
"528 42 OFFCURVE",
"606 141 CURVE"
);
}
);
width = 610;
}
);
leftKerningGroup = C;
rightKerningGroup = C;
unicode = 0043;
},
{
glyphname = D;
lastChange = "2016-02-22 13:36:21 +0000";
layers = (
{
anchors = (
{
name = bottom;
position = "{370, 0}";
},
{
name = center;
position = "{370, 335}";
},
{
name = top;
position = "{340, 770}";
}
);
background = {
paths = (
{
closed = 1;
nodes = (
"-1194 35 OFFCURVE",
"-1102 128 OFFCURVE",
"-1102 338 CURVE SMOOTH",
"-1102 517 OFFCURVE",
"-1206 633 OFFCURVE",
"-1349 633 CURVE",
"-1349 30 LINE",
"-1361 35 LINE"
);
},
{
closed = 1;
nodes = (
"-1161 16 OFFCURVE",
"-1260 0 OFFCURVE",
"-1564 0 CURVE",
"-1564 35 LINE",
"-1515 36 LINE",
"-1515 634 LINE",
"-1564 635 LINE",
"-1564 670 LINE",
"-1291 670 LINE SMOOTH",
"-1025 670 OFFCURVE",
"-924 562 OFFCURVE",
"-924 341 CURVE SMOOTH",
"-924 162 OFFCURVE",
"-989 78 OFFCURVE",
"-1078 40 CURVE"
);
},
{
closed = 1;
nodes = (
"-392 35 OFFCURVE",
"-302 118 OFFCURVE",
"-302 342 CURVE SMOOTH",
"-302 537 OFFCURVE",
"-405 633 OFFCURVE",
"-549 633 CURVE",
"-549 35 LINE",
"-531 35 LINE SMOOTH"
);
},
{
closed = 1;
nodes = (
"-764 0 LINE",
"-764 35 LINE",
"-715 36 LINE",
"-715 634 LINE",
"-764 635 LINE",
"-764 670 LINE",
"-352 670 LINE",
"-215 642 OFFCURVE",
"-124 527 OFFCURVE",
"-124 367 CURVE SMOOTH",
"-124 129 OFFCURVE",
"-258 0 OFFCURVE",
"-501 0 CURVE SMOOTH"
);
},
{
closed = 1;
nodes = (
"418 35 OFFCURVE",
"505 128 OFFCURVE",
"505 332 CURVE SMOOTH",
"505 537 OFFCURVE",
"395 633 OFFCURVE",
"251 633 CURVE",
"251 35 LINE",
"279 35 LINE SMOOTH"
);
},
{
closed = 1;
nodes = (
"36 0 LINE",
"36 35 LINE",
"85 36 LINE",
"85 634 LINE",
"36 635 LINE",
"36 670 LINE",
"229 668 LINE",
"229 668 OFFCURVE",
"305 680 OFFCURVE",
"351 680 CURVE SMOOTH",
"579 680 OFFCURVE",
"683 567 OFFCURVE",
"683 357 CURVE SMOOTH",
"683 149 OFFCURVE",
"562 0 OFFCURVE",
"319 0 CURVE SMOOTH"
);
}
);
};
layerId = "FABFC9D4-E17A-4CB6-8F8E-4923CD579275";
name = Regular;
paths = (
{
closed = 1;
nodes = (
"418 35 OFFCURVE",
"505 128 OFFCURVE",
"505 332 CURVE SMOOTH",
"505 537 OFFCURVE",
"391 633 OFFCURVE",
"251 633 CURVE",
"251 35 LINE",
"279 35 LINE SMOOTH"
);
},
{
closed = 1;
nodes = (
"36 0 LINE",
"36 35 LINE",
"85 36 LINE",
"85 634 LINE",
"36 635 LINE",
"36 670 LINE",
"229 668 LINE",
"371 680 LINE",
"569 680 OFFCURVE",
"683 567 OFFCURVE",
"683 357 CURVE SMOOTH",
"683 149 OFFCURVE",
"562 0 OFFCURVE",
"319 0 CURVE SMOOTH"
);
}
);
width = 707;
}
);
leftKerningGroup = D;
rightKerningGroup = D;
unicode = 0044;
},
{
glyphname = Eth;
lastChange = "2016-02-22 12:49:18 +0000";
layers = (
{
components = (
{
name = D;
}
);
layerId = "FABFC9D4-E17A-4CB6-8F8E-4923CD579275";
name = Regular;
paths = (
{
closed = 1;
nodes = (
"363 361 LINE",
"353 315 LINE",
"-5 315 LINE",
"0 353 LINE"
);
}
);
width = 707;
}
);
leftKerningGroup = D;
rightKerningGroup = D;
unicode = 00D0;
},
{
glyphname = E;
lastChange = "2016-02-22 16:19:42 +0000";
layers = (
{
anchors = (
{
name = bottom;
position = "{284, -80}";
},
{
name = top;
position = "{310, 770}";
}
);
background = {
paths = (
{
closed = 1;
nodes = (
"-77 441 LINE",
"-116 442 LINE",
"-118 492 LINE",
"-203 573 OFFCURVE",
"-286 621 OFFCURVE",
"-386 648 CURVE",
"-339 649 LINE",
"-339 20 LINE",
"-386 22 LINE",
"-279 49 OFFCURVE",
"-183 102 OFFCURVE",
"-98 178 CURVE",
"-96 228 LINE",
"-57 229 LINE",
"-57 0 LINE",
"-574 0 LINE",
"-574 40 LINE",
"-525 41 LINE",
"-525 629 LINE",
"-574 630 LINE",
"-574 670 LINE",
"-77 670 LINE"
);
},
{
closed = 1;
nodes = (
"-382 360 LINE",
"-160 360 LINE",
"-160 323 LINE",
"-406 323 LINE"
);
},
{
closed = 1;
nodes = (
"543 179 LINE",
"504 178 LINE",
"502 128 LINE",
"414 85 OFFCURVE",
"327 49 OFFCURVE",
"239 22 CURVE",
"255 12 LINE",
"251 658 LINE",
"239 648 LINE",
"320 621 OFFCURVE",
"401 585 OFFCURVE",
"482 542 CURVE",
"484 492 LINE",
"523 491 LINE",
"523 670 LINE",
"36 670 LINE",
"36 635 LINE",
"85 634 LINE",
"85 36 LINE",
"36 35 LINE",
"36 0 LINE",
"543 0 LINE"
);
},
{
closed = 1;
nodes = (
"440 328 LINE",
"440 365 LINE",
"208 365 LINE",
"184 328 LINE"
);
}
);
};
layerId = "FABFC9D4-E17A-4CB6-8F8E-4923CD579275";
name = Regular;
paths = (
{
closed = 1;
nodes = (
"543 199 LINE",
"504 198 LINE",
"502 148 LINE",
"414 95 OFFCURVE",
"327 54 OFFCURVE",
"239 22 CURVE",
"255 12 LINE",
"251 658 LINE",
"239 648 LINE",
"320 617 OFFCURVE",
"401 577 OFFCURVE",
"482 527 CURVE",
"484 477 LINE",
"523 476 LINE",
"523 670 LINE",
"36 670 LINE",
"36 635 LINE",
"85 634 LINE",
"85 36 LINE",
"36 35 LINE",
"36 0 LINE",
"543 0 LINE"
);
},
{
closed = 1;
nodes = (
"440 328 LINE",
"440 365 LINE",
"208 365 LINE",
"184 328 LINE"
);
}
);
width = 568;
}
);
leftKerningGroup = E;
rightKerningGroup = E;
unicode = 0045;
},
{
glyphname = F;
lastChange = "2016-02-22 12:49:18 +0000";
layers = (
{
background = {
paths = (
{
closed = 1;
nodes = (
"430 303 LINE",
"430 340 LINE",
"208 340 LINE",
"184 303 LINE"
);
},
{
closed = 1;
nodes = (
"251 649 LINE",
"204 648 LINE",
"308 648 OFFCURVE",
"441 564 OFFCURVE",
"482 492 CURVE",
"484 442 LINE",
"523 441 LINE",
"523 670 LINE",
"36 670 LINE",
"36 635 LINE",
"85 634 LINE",
"85 36 LINE",
"36 35 LINE",
"36 0 LINE",
"360 0 LINE",
"360 35 LINE",
"251 36 LINE"
);
}
);
};
layerId = "FABFC9D4-E17A-4CB6-8F8E-4923CD579275";
name = Regular;
paths = (
{
closed = 1;
nodes = (
"440 303 LINE",
"440 340 LINE",
"208 340 LINE",
"184 303 LINE"
);
},
{
closed = 1;
nodes = (
"360 0 LINE",
"360 35 LINE",
"253 36 LINE",
"253 658 LINE",
"239 648 LINE",
"320 616 OFFCURVE",
"401 573 OFFCURVE",
"482 522 CURVE",
"484 472 LINE",
"523 471 LINE",
"523 670 LINE",
"36 670 LINE",
"36 635 LINE",
"85 634 LINE",
"85 36 LINE",
"36 35 LINE",
"36 0 LINE"
);
}
);
width = 528;
}
);
unicode = 0046;
},
{
glyphname = G;
lastChange = "2016-02-22 16:20:32 +0000";
layers = (
{
anchors = (
{
name = bottom;
position = "{332, -80}";
},
{
name = top;
position = "{340, 770}";
}
);
background = {
components = (
{
name = C;
transform = "{1, 0, 0, 1, 6, 0}";
}
);
paths = (
{
closed = 1;
nodes = (
"-147 312 LINE",
"-147 347 LINE",
"-411 347 LINE",
"-411 312 LINE",
"-362 311 LINE",
"-362 88 LINE",
"-228 0 LINE",
"-196 0 LINE",
"-196 311 LINE"
);
},
{
closed = 1;
nodes = (
"-249 152 LINE",
"-293 106 OFFCURVE",
"-330 88 OFFCURVE",
"-381 88 CURVE SMOOTH",
"-512 88 OFFCURVE",
"-595 198 OFFCURVE",
"-595 370 CURVE SMOOTH",
"-595 503 OFFCURVE",
"-537 621 OFFCURVE",
"-448 658 CURVE",
"-464 670 LINE",
"-329 457 LINE",
"-206 560 LINE",
"-255 637 OFFCURVE",
"-345 683 OFFCURVE",
"-446 683 CURVE SMOOTH",
"-519 683 OFFCURVE",
"-597 659 OFFCURVE",
"-665 615 CURVE",
"-732 552 OFFCURVE",
"-774 437 OFFCURVE",
"-774 318 CURVE SMOOTH",
"-774 123 OFFCURVE",
"-654 -15 OFFCURVE",
"-484 -15 CURVE SMOOTH",
"-383 -15 OFFCURVE",
"-288 38 OFFCURVE",
"-230 128 CURVE"
);
},
{
closed = 1;
nodes = (
"653 312 LINE",
"653 347 LINE",
"389 347 LINE",
"389 312 LINE",
"438 311 LINE",
"438 88 LINE",
"572 0 LINE",
"604 0 LINE",
"604 311 LINE"
);
},
{
closed = 1;
nodes = (
"551 152 LINE",
"505 106 OFFCURVE",
"467 88 OFFCURVE",
"414 88 CURVE SMOOTH",
"282 88 OFFCURVE",
"199 198 OFFCURVE",
"199 370 CURVE SMOOTH",
"199 503 OFFCURVE",
"259 621 OFFCURVE",
"352 658 CURVE",
"336 670 LINE",
"471 457 LINE",
"594 560 LINE",
"545 637 OFFCURVE",
"455 683 OFFCURVE",
"354 683 CURVE SMOOTH",
"279 683 OFFCURVE",
"197 659 OFFCURVE",
"129 615 CURVE",
"62 552 OFFCURVE",
"20 437 OFFCURVE",
"20 318 CURVE SMOOTH",
"20 123 OFFCURVE",
"142 -15 OFFCURVE",
"316 -15 CURVE SMOOTH",
"414 -15 OFFCURVE",
"510 44 OFFCURVE",
"562 128 CURVE"
);
}
);
};
layerId = "FABFC9D4-E17A-4CB6-8F8E-4923CD579275";
name = Regular;
paths = (
{
closed = 1;
nodes = (
"647 312 LINE",
"647 347 LINE",
"393 347 LINE",
"393 312 LINE",
"442 311 LINE",
"442 88 LINE",
"570 0 LINE",
"602 0 LINE",
"602 311 LINE"
);
},
{
closed = 1;
nodes = (
"555 152 LINE",
"509 106 OFFCURVE",
"471 88 OFFCURVE",
"418 88 CURVE SMOOTH",
"284 88 OFFCURVE",
"203 191 OFFCURVE",
"203 360 CURVE SMOOTH",
"203 503 OFFCURVE",
"273 621 OFFCURVE",
"366 658 CURVE",
"350 670 LINE",
"397 600 OFFCURVE",
"442 529 OFFCURVE",
"485 457 CURVE",
"608 560 LINE",
"559 637 OFFCURVE",
"469 683 OFFCURVE",
"368 683 CURVE SMOOTH",
"293 683 OFFCURVE",
"211 659 OFFCURVE",
"143 615 CURVE",
"76 552 OFFCURVE",
"24 437 OFFCURVE",
"24 310 CURVE SMOOTH",
"24 115 OFFCURVE",
"142 -15 OFFCURVE",
"320 -15 CURVE SMOOTH",
"418 -15 OFFCURVE",
"514 44 OFFCURVE",
"566 128 CURVE"
);
}
);
width = 661;
}
);
leftKerningGroup = G;
rightKerningGroup = G;
unicode = 0047;
},
{
glyphname = H;
lastChange = "2016-02-22 13:38:46 +0000";
layers = (
{
anchors = (
{
name = top;
position = "{380, 770}";
}
);
background = {
paths = (
{
closed = 1;
nodes = (
"-5 40 LINE",
"-5 0 LINE",
"217 0 LINE",
"217 40 LINE",
"168 41 LINE",
"287 595 LINE",
"266 587 LINE",
"423 41 LINE",
"374 40 LINE",
"374 0 LINE",
"672 0 LINE",
"672 40 LINE",
"623 41 LINE",
"403 672 LINE",
"277 665 LINE",
"42 41 LINE"
);
}
);
};
components = (
{
disableAlignment = 1;
name = I;
transform = "{1, 0, 0, 1, 16, 0}";
},
{
disableAlignment = 1;
name = I;
transform = "{1, 0, 0, 1, 406, 0}";
}
);
guideLines = (
{
angle = 270;
position = "{379, 641}";
}
);
layerId = "FABFC9D4-E17A-4CB6-8F8E-4923CD579275";
name = Regular;
paths = (
{
closed = 1;
nodes = (
"509 314 LINE",
"509 351 LINE",
"227 351 LINE",
"227 314 LINE"
);
}
);
width = 726;
}
);
unicode = 0048;
},
{
glyphname = I;
lastChange = "2016-02-22 12:49:18 +0000";
layers = (
{
anchors = (
{
name = ogonek;
position = "{298, 10}";
},
{
name = top;
position = "{170, 770}";
}
);
guideLines = (
{
angle = 270;
position = "{170, 0}";
}
);
layerId = "FABFC9D4-E17A-4CB6-8F8E-4923CD579275";
name = Regular;
paths = (
{
closed = 1;
nodes = (
"251 634 LINE",
"300 635 LINE",
"300 670 LINE",
"36 670 LINE",
"36 635 LINE",
"85 634 LINE",
"85 36 LINE",
"36 35 LINE",
"36 0 LINE",
"300 0 LINE",
"300 35 LINE",
"251 36 LINE"
);
}
);
width = 336;
}
);
leftKerningGroup = I;
rightKerningGroup = I;
unicode = 0049;
},
{
glyphname = J;
lastChange = "2016-02-22 12:49:18 +0000";
layers = (
{
anchors = (
{
name = top;
position = "{169, 770}";
}
);
background = {
paths = (
{
closed = 1;
nodes = (
"250 634 LINE",
"299 635 LINE",
"299 670 LINE",
"35 670 LINE",
"35 635 LINE",
"84 634 LINE",
"84 -184 LINE",
"95 -175 LINE",
"-27 -20 LINE",
"-110 -153 LINE",
"-84 -178 OFFCURVE",
"-19 -203 OFFCURVE",
"34 -203 CURVE SMOOTH",
"163 -203 OFFCURVE",
"250 -98 OFFCURVE",
"250 215 CURVE SMOOTH"
);
}
);
};
guideLines = (
{
angle = 270;
position = "{169, 526}";
}
);
layerId = "FABFC9D4-E17A-4CB6-8F8E-4923CD579275";
name = Regular;
paths = (
{
closed = 1;
nodes = (
"250 634 LINE",
"299 635 LINE",
"299 670 LINE",
"35 670 LINE",
"35 635 LINE",
"84 634 LINE",
"84 -184 LINE",
"95 -175 LINE",
"-47 -30 LINE",
"-130 -153 LINE",
"-101 -176 OFFCURVE",
"-26 -203 OFFCURVE",
"34 -203 CURVE SMOOTH",
"163 -203 OFFCURVE",
"250 -98 OFFCURVE",
"250 215 CURVE SMOOTH"
);
}
);
width = 327;
}
);
unicode = 004A;
},
{
glyphname = K;
lastChange = "2016-02-22 12:49:18 +0000";
layers = (
{
anchors = (
{
name = bottom;
position = "{336, -80}";
},
{
name = top;
position = "{361, 770}";
}
);
background = {
components = (
{
name = I;
transform = "{1, 0, 0, 1, -900, 0}";
},
{
name = I;
}
);
paths = (
{
closed = 1;
nodes = (
"-1445 629 LINE",
"-1396 630 LINE",
"-1396 670 LINE",
"-1680 670 LINE",
"-1680 630 LINE",
"-1631 629 LINE",
"-1631 41 LINE",
"-1680 40 LINE",
"-1680 0 LINE",
"-1396 0 LINE",
"-1396 40 LINE",
"-1445 41 LINE"
);
},
{
closed = 1;
nodes = (
"-1333 391 LINE",
"-1097 629 LINE",
"-1038 630 LINE",
"-1038 670 LINE",
"-1286 670 LINE",
"-1286 630 LINE",
"-1222 629 LINE",
"-1434 329 LINE",
"-1281 41 LINE",
"-1330 40 LINE",
"-1330 0 LINE",
"-1002 0 LINE",
"-1002 40 LINE",
"-1051 41 LINE",
"-1299 435 LINE"
);
},
{
closed = 1;
nodes = (
"-533 391 LINE",
"-312 634 LINE",
"-258 635 LINE",
"-258 670 LINE",
"-496 670 LINE",
"-496 635 LINE",
"-437 634 LINE",
"-634 329 LINE",
"-471 36 LINE",
"-520 35 LINE",
"-520 0 LINE",
"-212 0 LINE",
"-212 35 LINE",
"-261 36 LINE",
"-514 435 LINE"
);
},
{
closed = 1;
nodes = (
"367 391 LINE",
"598 634 LINE",
"652 635 LINE",
"652 670 LINE",
"414 670 LINE",
"414 635 LINE",
"473 634 LINE",
"266 329 LINE",
"439 36 LINE",
"390 35 LINE",
"390 0 LINE",
"698 0 LINE",
"698 35 LINE",
"649 36 LINE",
"386 435 LINE"
);
}
);
};
layerId = "FABFC9D4-E17A-4CB6-8F8E-4923CD579275";
name = Regular;
paths = (
{
closed = 1;
nodes = (
"367 391 LINE",
"618 634 LINE",
"672 635 LINE",
"672 670 LINE",
"434 670 LINE",
"434 635 LINE",
"483 634 LINE",
"266 329 LINE",
"436 36 LINE",
"387 35 LINE",
"387 0 LINE",
"698 0 LINE",
"698 35 LINE",
"649 36 LINE",
"386 435 LINE"
);
},
{
closed = 1;
nodes = (
"251 634 LINE",
"300 635 LINE",
"300 670 LINE",
"36 670 LINE",
"36 635 LINE",
"85 634 LINE",
"85 36 LINE",
"36 35 LINE",
"36 0 LINE",
"300 0 LINE",
"300 35 LINE",
"251 36 LINE"
);
}
);
width = 700;
}
);
leftKerningGroup = K;
rightKerningGroup = K;
unicode = 004B;
},
{
glyphname = L;
lastChange = "2016-02-22 16:21:20 +0000";
layers = (
{
anchors = (
{
name = bottom;
position = "{290, -80}";
},
{
name = center;
position = "{169, 365}";
},
{
name = top;
position = "{250, 770}";
},
{
name = topright;
position = "{543, 670}";
}
);
background = {
paths = (
{
closed = 1;
nodes = (
"-564 0 LINE",
"-564 40 LINE",
"-515 41 LINE",
"-515 629 LINE",
"-564 630 LINE",
"-564 670 LINE",
"-280 670 LINE",
"-280 630 LINE",
"-329 629 LINE",
"-329 21 LINE",
"-376 22 LINE",
"-269 51 OFFCURVE",
"-173 107 OFFCURVE",
"-88 188 CURVE",
"-86 238 LINE",
"-47 239 LINE",
"-47 0 LINE"
);
},
{
closed = 1;
nodes = (
"360 635 LINE",
"360 670 LINE",
"36 670 LINE",
"36 635 LINE",
"85 634 LINE",
"85 36 LINE",
"36 35 LINE",
"36 0 LINE",
"543 0 LINE",
"543 179 LINE",
"504 178 LINE",
"502 128 LINE",
"403 85 OFFCURVE",
"303 49 OFFCURVE",
"204 22 CURVE",
"251 21 LINE",
"251 634 LINE"
);
}
);
};
layerId = "FABFC9D4-E17A-4CB6-8F8E-4923CD579275";
name = Regular;
paths = (
{
closed = 1;
nodes = (
"360 635 LINE",
"360 670 LINE",
"36 670 LINE",
"36 635 LINE",
"85 634 LINE",
"85 36 LINE",
"36 35 LINE",
"36 0 LINE",
"543 0 LINE",
"543 199 LINE",
"504 198 LINE",
"502 148 LINE",
"404 97 OFFCURVE",
"303 54 OFFCURVE",
"204 22 CURVE",
"251 21 LINE",
"251 634 LINE"
);
}
);
width = 549;
}
);
leftKerningGroup = L;
rightKerningGroup = L;
unicode = 004C;
},
{
glyphname = M;
lastChange = "2016-02-22 12:49:18 +0000";
layers = (
{
anchors = (
{
name = top;
position = "{467, 770}";
}
);
background = {
paths = (
{
closed = 1;
nodes = (
"-514 308 LINE",
"-697 670 LINE",
"-866 670 LINE",
"-958 36 LINE",
"-1007 35 LINE",
"-1007 0 LINE",
"-783 0 LINE",
"-783 35 LINE",
"-832 36 LINE",
"-817 625 LINE",
"-851 619 LINE",
"-607 112 LINE",
"-580 112 LINE",
"-356 617 LINE",
"-388 614 LINE",
"-351 36 LINE",
"-400 35 LINE",
"-400 0 LINE",
"-118 0 LINE",
"-118 35 LINE",
"-167 36 LINE",
"-238 670 LINE",
"-387 670 LINE",
"-551 281 LINE"
);
},
{
closed = 1;
nodes = (
"-186 635 LINE",
"-186 670 LINE",
"-238 670 LINE",
"-235 634 LINE"
);
},
{
closed = 1;
nodes = (
"-866 670 LINE",
"-917 670 LINE",
"-917 635 LINE",
"-868 634 LINE"
);
},
{
closed = 1;
nodes = (
"484 308 LINE",
"309 670 LINE",
"144 670 LINE",
"42 36 LINE",
"-7 35 LINE",
"-7 0 LINE",
"217 0 LINE",
"217 35 LINE",
"168 36 LINE",
"179 625 LINE",
"145 619 LINE",
"383 112 LINE",
"414 112 LINE",
"644 617 LINE",
"612 614 LINE",
"649 36 LINE",
"600 35 LINE",
"600 0 LINE",
"882 0 LINE",
"882 35 LINE",
"833 36 LINE",
"762 670 LINE",
"613 670 LINE",
"443 281 LINE"
);
},
{
closed = 1;
nodes = (
"814 635 LINE",
"814 670 LINE",
"762 670 LINE",
"765 634 LINE"
);
},
{
closed = 1;
nodes = (
"144 670 LINE",
"83 670 LINE",
"83 635 LINE",
"142 634 LINE"
);
}
);
};
guideLines = (
{
angle = 270;
position = "{468, 552}";
},
{
position = "{114, 741}";
}
);
layerId = "FABFC9D4-E17A-4CB6-8F8E-4923CD579275";
name = Regular;
paths = (
{
closed = 1;
nodes = (
"819 635 LINE",
"819 670 LINE",
"761 670 LINE",
"612 670 LINE",
"446 281 LINE",
"490 308 LINE",
"312 670 LINE",
"82 670 LINE",
"82 635 LINE",
"137 634 LINE",
"41 36 LINE",
"2 35 LINE",
"2 0 LINE",
"221 0 LINE",
"221 35 LINE",
"167 36 LINE",
"189 625 LINE",
"155 619 LINE",
"393 112 LINE",
"424 112 LINE",
"647 617 LINE",
"611 614 LINE",
"664 36 LINE",
"610 35 LINE",
"610 0 LINE",
"887 0 LINE",
"887 35 LINE",
"848 36 LINE",
"766 634 LINE"
);
}
);
width = 889;
}
);
unicode = 004D;
},
{
glyphname = N;
lastChange = "2016-02-22 12:49:18 +0000";
layers = (
{
anchors = (
{
name = bottom;
position = "{361, -80}";
},
{
name = top;
position = "{385, 770}";
}
);
background = {
paths = (
{
closed = 1;
nodes = (
"-1456 634 LINE",
"-1407 635 LINE",
"-1407 670 LINE",
"-1541 670 LINE",
"-1541 635 LINE",
"-1492 634 LINE",
"-1492 36 LINE",
"-1541 35 LINE",
"-1541 0 LINE",
"-1407 0 LINE",
"-1407 35 LINE",
"-1456 36 LINE"
);
},
{
closed = 1;
nodes = (
"-1007 158 LINE",
"-983 155 LINE",
"-1307 670 LINE",
"-1541 670 LINE",
"-1541 635 LINE",
"-1492 634 LINE",
"-1066 0 LINE",
"-971 1 LINE",
"-971 634 LINE",
"-922 635 LINE",
"-922 670 LINE",
"-1056 670 LINE",
"-1056 635 LINE",
"-1007 634 LINE"
);
},
{
closed = 1;
nodes = (
"-656 634 LINE",
"-607 635 LINE",
"-607 670 LINE",
"-741 670 LINE",
"-741 635 LINE",
"-692 634 LINE",
"-692 36 LINE",
"-741 35 LINE",
"-741 0 LINE",
"-567 0 LINE",
"-567 35 LINE",
"-656 36 LINE"
);
},
{
closed = 1;
nodes = (
"-237 158 LINE",
"-213 185 LINE",
"-507 670 LINE",
"-741 670 LINE",
"-741 635 LINE",
"-692 634 LINE",
"-296 0 LINE",
"-201 1 LINE",
"-201 634 LINE",
"-152 635 LINE",
"-152 670 LINE",
"-326 670 LINE",
"-326 635 LINE",
"-237 634 LINE"
);
},
{
closed = 1;
nodes = (
"189 36 LINE",
"238 35 LINE",
"238 0 LINE",
"44 0 LINE",
"44 35 LINE",
"93 36 LINE",
"108 634 LINE",
"59 635 LINE",
"59 670 LINE",
"293 670 LINE",
"597 165 LINE",
"581 158 LINE",
"538 634 LINE",
"489 635 LINE",
"489 670 LINE",
"683 670 LINE",
"683 635 LINE",
"634 634 LINE",
"609 1 LINE",
"484 0 LINE",
"115 623 LINE",
"144 634 LINE"
);
}
);
};
guideLines = (
{
angle = 270;
position = "{371, 621}";
}
);
layerId = "FABFC9D4-E17A-4CB6-8F8E-4923CD579275";
name = Regular;
paths = (
{
closed = 1;
nodes = (
"181 36 LINE",
"240 35 LINE",
"240 0 LINE",
"36 0 LINE",
"36 35 LINE",
"85 36 LINE",
"102 634 LINE",
"53 635 LINE",
"53 670 LINE",
"300 670 LINE",
"606 195 LINE",
"594 168 LINE",
"565 634 LINE",
"506 635 LINE",
"506 670 LINE",
"700 670 LINE",
"700 635 LINE",
"651 634 LINE",
"625 1 LINE",
"504 0 LINE",
"114 613 LINE",
"138 634 LINE"
);
}
);
width = 736;
}
);
leftKerningGroup = N;
rightKerningGroup = N;
unicode = 004E;
},
{
glyphname = O;
lastChange = "2016-02-22 12:49:18 +0000";
layers = (
{
anchors = (
{
name = center;
position = "{364, 335}";
},
{
name = ogonek;
position = "{668, 10}";
},
{
name = top;
position = "{365, 770}";
}
);
background = {
paths = (
{
closed = 1;
nodes = (
"-3394 253 OFFCURVE",
"-3417 161 OFFCURVE",
"-3461 87 CURVE",
"-3509 45 OFFCURVE",
"-3649 -15 OFFCURVE",
"-3727 -15 CURVE SMOOTH",
"-3896 -15 OFFCURVE",
"-4011 103 OFFCURVE",
"-4011 301 CURVE SMOOTH",
"-4011 412 OFFCURVE",
"-3988 502 OFFCURVE",
"-3944 578 CURVE",
"-3896 619 OFFCURVE",
"-3756 679 OFFCURVE",
"-3678 679 CURVE SMOOTH",
"-3509 679 OFFCURVE",
"-3394 559 OFFCURVE",
"-3394 364 CURVE SMOOTH"
);
},
{
closed = 1;
nodes = (
"-3839 204 OFFCURVE",
"-3759 95 OFFCURVE",
"-3650 95 CURVE SMOOTH",
"-3555 95 LINE",
"-3586 68 LINE",
"-3570 125 OFFCURVE",
"-3566 231 OFFCURVE",
"-3566 308 CURVE SMOOTH",
"-3566 461 OFFCURVE",
"-3646 569 OFFCURVE",
"-3755 569 CURVE SMOOTH",
"-3850 569 LINE",
"-3819 596 LINE",
"-3835 540 OFFCURVE",
"-3839 434 OFFCURVE",
"-3839 356 CURVE SMOOTH"
);
},
{
closed = 1;
nodes = (
"-2908 566 OFFCURVE",
"-2788 494 OFFCURVE",
"-2788 284 CURVE SMOOTH",
"-2788 239 OFFCURVE",
"-2798 138 OFFCURVE",
"-2817 75 CURVE",
"-2777 105 LINE",
"-2973 105 OFFCURVE",
"-3094 176 OFFCURVE",
"-3094 386 CURVE SMOOTH",
"-3094 432 OFFCURVE",
"-3083 532 OFFCURVE",
"-3064 595 CURVE",
"-3100 566 LINE"
);
},
{
closed = 1;
nodes = (
"-3027 685 OFFCURVE",
"-3107 640 OFFCURVE",
"-3166 585 CURVE",
"-3230 507 OFFCURVE",
"-3262 401 OFFCURVE",
"-3262 316 CURVE SMOOTH",
"-3262 99 OFFCURVE",
"-3130 -15 OFFCURVE",
"-2946 -15 CURVE SMOOTH",
"-2854 -15 OFFCURVE",
"-2774 30 OFFCURVE",
"-2715 86 CURVE",
"-2650 163 OFFCURVE",
"-2620 270 OFFCURVE",
"-2620 354 CURVE SMOOTH",
"-2620 572 OFFCURVE",
"-2752 685 OFFCURVE",
"-2936 685 CURVE SMOOTH"
);
},
{
closed = 1;
nodes = (
"-2189 28 OFFCURVE",
"-2294 169 OFFCURVE",
"-2294 355 CURVE SMOOTH",
"-2294 521 OFFCURVE",
"-2235 639 OFFCURVE",
"-2158 639 CURVE SMOOTH",
"-2084 639 OFFCURVE",
"-1980 497 OFFCURVE",
"-1980 312 CURVE SMOOTH",
"-1980 146 OFFCURVE",
"-2039 28 OFFCURVE",
"-2116 28 CURVE SMOOTH"
);
},
{
closed = 1;
nodes = (
"-2482 186 OFFCURVE",
"-2425 75 OFFCURVE",
"-2322 11 CURVE",
"-2273 -5 OFFCURVE",
"-2200 -15 OFFCURVE",
"-2151 -15 CURVE SMOOTH",
"-1914 -15 OFFCURVE",
"-1792 144 OFFCURVE",
"-1792 361 CURVE SMOOTH",
"-1792 481 OFFCURVE",
"-1849 592 OFFCURVE",
"-1952 656 CURVE",
"-2001 672 OFFCURVE",
"-2075 682 OFFCURVE",
"-2124 682 CURVE SMOOTH",
"-2360 682 OFFCURVE",
"-2482 523 OFFCURVE",
"-2482 306 CURVE SMOOTH"
);
},
{
closed = 1;
nodes = (
"-1406 20 OFFCURVE",
"-1509 160 OFFCURVE",
"-1509 345 CURVE SMOOTH",
"-1509 543 OFFCURVE",
"-1443 647 OFFCURVE",
"-1358 647 CURVE SMOOTH",
"-1267 647 OFFCURVE",
"-1165 506 OFFCURVE",
"-1165 322 CURVE SMOOTH",
"-1165 124 OFFCURVE",
"-1231 20 OFFCURVE",
"-1316 20 CURVE SMOOTH"
);
},
{
closed = 1;
nodes = (
"-1687 113 OFFCURVE",
"-1557 -15 OFFCURVE",
"-1341 -15 CURVE SMOOTH",
"-1111 -15 OFFCURVE",
"-987 134 OFFCURVE",
"-987 351 CURVE SMOOTH",
"-987 555 OFFCURVE",
"-1118 682 OFFCURVE",
"-1334 682 CURVE SMOOTH",
"-1563 682 OFFCURVE",
"-1687 533 OFFCURVE",
"-1687 316 CURVE SMOOTH"
);
},
{
closed = 1;
nodes = (
"-487 616 OFFCURVE",
"-373 531 OFFCURVE",
"-373 284 CURVE SMOOTH",
"-373 232 OFFCURVE",
"-383 117 OFFCURVE",
"-403 45 CURVE",
"-372 55 LINE",
"-586 55 OFFCURVE",
"-699 139 OFFCURVE",
"-699 386 CURVE SMOOTH",
"-699 438 OFFCURVE",
"-688 553 OFFCURVE",
"-668 625 CURVE",
"-695 616 LINE"
);
},
{
closed = 1;
nodes = (
"-631 685 OFFCURVE",
"-723 640 OFFCURVE",
"-781 585 CURVE",
"-845 507 OFFCURVE",
"-877 401 OFFCURVE",
"-877 316 CURVE SMOOTH",
"-877 98 OFFCURVE",
"-737 -15 OFFCURVE",
"-542 -15 CURVE SMOOTH",
"-441 -15 OFFCURVE",
"-349 30 OFFCURVE",
"-290 85 CURVE",
"-225 163 OFFCURVE",
"-196 269 OFFCURVE",
"-196 354 CURVE SMOOTH",
"-196 572 OFFCURVE",
"-336 685 OFFCURVE",
"-532 685 CURVE SMOOTH"
);
},
{
closed = 1;
nodes = (
"-484 616 OFFCURVE",
"-368 531 OFFCURVE",
"-368 284 CURVE SMOOTH",
"-368 232 OFFCURVE",
"-378 117 OFFCURVE",
"-398 45 CURVE",
"-372 55 LINE",
"-589 55 OFFCURVE",
"-704 139 OFFCURVE",
"-704 386 CURVE SMOOTH",
"-704 438 OFFCURVE",
"-693 553 OFFCURVE",
"-673 625 CURVE",
"-695 616 LINE"
);
},
{
closed = 1;
nodes = (
"-633 685 OFFCURVE",
"-728 640 OFFCURVE",
"-786 585 CURVE",
"-855 507 OFFCURVE",
"-882 401 OFFCURVE",
"-882 316 CURVE SMOOTH",
"-882 98 OFFCURVE",
"-740 -15 OFFCURVE",
"-542 -15 CURVE SMOOTH",
"-439 -15 OFFCURVE",
"-344 30 OFFCURVE",
"-285 85 CURVE",
"-220 163 OFFCURVE",
"-191 269 OFFCURVE",
"-191 354 CURVE SMOOTH",
"-191 572 OFFCURVE",
"-333 685 OFFCURVE",
"-532 685 CURVE SMOOTH"
);
},
{
closed = 1;
nodes = (
"410 616 OFFCURVE",
"522 531 OFFCURVE",
"522 284 CURVE SMOOTH",
"522 232 OFFCURVE",
"512 117 OFFCURVE",
"492 45 CURVE",
"528 55 LINE",
"317 55 OFFCURVE",
"206 139 OFFCURVE",
"206 386 CURVE SMOOTH",
"206 438 OFFCURVE",
"217 553 OFFCURVE",
"237 625 CURVE",
"205 616 LINE"
);
},
{
closed = 1;
nodes = (
"271 685 OFFCURVE",
"182 640 OFFCURVE",
"124 585 CURVE",
"60 507 OFFCURVE",
"28 401 OFFCURVE",
"28 316 CURVE SMOOTH",
"28 98 OFFCURVE",
"166 -15 OFFCURVE",
"358 -15 CURVE SMOOTH",
"457 -15 OFFCURVE",
"546 30 OFFCURVE",
"605 85 CURVE",
"670 163 OFFCURVE",
"699 269 OFFCURVE",
"699 354 CURVE SMOOTH",
"699 572 OFFCURVE",
"561 685 OFFCURVE",
"368 685 CURVE SMOOTH"
);
}
);
};
guideLines = (
{
angle = 270;
position = "{364, 331}";
}
);
layerId = "FABFC9D4-E17A-4CB6-8F8E-4923CD579275";
name = Regular;
paths = (
{
closed = 1;
nodes = (
"406 616 OFFCURVE",
"508 531 OFFCURVE",
"508 284 CURVE SMOOTH",
"508 232 OFFCURVE",
"498 117 OFFCURVE",
"478 45 CURVE",
"514 55 LINE",
"303 55 OFFCURVE",
"202 139 OFFCURVE",
"202 386 CURVE SMOOTH",
"202 438 OFFCURVE",
"213 553 OFFCURVE",
"229 625 CURVE",
"201 616 LINE"
);
},
{
closed = 1;
nodes = (
"262 685 OFFCURVE",
"178 640 OFFCURVE",
"120 585 CURVE",
"56 507 OFFCURVE",
"24 401 OFFCURVE",
"24 316 CURVE SMOOTH",
"24 98 OFFCURVE",
"157 -15 OFFCURVE",
"349 -15 CURVE SMOOTH",
"448 -15 OFFCURVE",
"532 30 OFFCURVE",
"591 85 CURVE",
"656 163 OFFCURVE",
"685 269 OFFCURVE",
"685 354 CURVE SMOOTH",
"685 572 OFFCURVE",
"552 685 OFFCURVE",
"359 685 CURVE SMOOTH"
);
}
);
width = 709;
}
);
leftKerningGroup = O;
rightKerningGroup = O;
unicode = 004F;
},
{
glyphname = Oslash;
lastChange = "2016-02-22 16:23:02 +0000";
layers = (
{
components = (
{
name = O;
}
);
layerId = "FABFC9D4-E17A-4CB6-8F8E-4923CD579275";
name = Regular;
paths = (
{
closed = 1;
nodes = (
"487 632 LINE",
"191 43 LINE",
"224 27 LINE",
"520 618 LINE"
);
}
);
width = 709;
}
);
leftKerningGroup = O;
rightKerningGroup = O;
unicode = 00D8;
},
{
glyphname = OE;
lastChange = "2016-02-22 12:49:18 +0000";
layers = (
{
anchors = (
{
name = bottom;
position = "{530, -80}";
},
{
name = center;
position = "{343, 335}";
},
{
name = ogonek;
position = "{647, 10}";
},
{
name = top;
position = "{533, 770}";
}
);
background = {
paths = (
{
closed = 1;
nodes = (
"397 3116 OFFCURVE",
"511 3031 OFFCURVE",
"511 2784 CURVE SMOOTH",
"511 2732 OFFCURVE",
"501 2617 OFFCURVE",
"481 2545 CURVE",
"512 2555 LINE",
"298 2555 OFFCURVE",
"185 2639 OFFCURVE",
"185 2886 CURVE SMOOTH",
"185 2938 OFFCURVE",
"196 3053 OFFCURVE",
"216 3125 CURVE",
"189 3116 LINE"
);
},
{
closed = 1;
nodes = (
"253 3185 OFFCURVE",
"161 3140 OFFCURVE",
"103 3085 CURVE",
"39 3007 OFFCURVE",
"7 2901 OFFCURVE",
"7 2816 CURVE SMOOTH",
"7 2598 OFFCURVE",
"147 2485 OFFCURVE",
"342 2485 CURVE SMOOTH",
"443 2485 OFFCURVE",
"535 2530 OFFCURVE",
"594 2585 CURVE",
"659 2663 OFFCURVE",
"688 2769 OFFCURVE",
"688 2854 CURVE SMOOTH",
"688 3072 OFFCURVE",
"548 3185 OFFCURVE",
"352 3185 CURVE SMOOTH"
);
},
{
closed = 1;
nodes = (
"969 2679 LINE",
"930 2678 LINE",
"928 2628 LINE",
"840 2585 OFFCURVE",
"753 2549 OFFCURVE",
"665 2522 CURVE",
"681 2512 LINE",
"677 3158 LINE",
"665 3148 LINE",
"746 3121 OFFCURVE",
"827 3085 OFFCURVE",
"908 3042 CURVE",
"910 2992 LINE",
"949 2991 LINE",
"949 3170 LINE",
"462 3170 LINE",
"462 3135 LINE",
"511 3134 LINE",
"511 2536 LINE",
"462 2535 LINE",
"462 2500 LINE",
"969 2500 LINE"
);
},
{
closed = 1;
nodes = (
"866 2828 LINE",
"866 2865 LINE",
"634 2865 LINE",
"610 2828 LINE"
);
},
{
closed = 1;
nodes = (
"843 2028 LINE",
"843 2065 LINE",
"611 2065 LINE",
"587 2028 LINE"
);
},
{
closed = 1;
nodes = (
"364 2368 LINE",
"510 2341 OFFCURVE",
"733 2285 OFFCURVE",
"887 2242 CURVE",
"889 2192 LINE",
"928 2191 LINE",
"928 2370 LINE",
"373 2373 LINE"
);
},
{
closed = 1;
nodes = (
"660 2036 LINE SMOOTH",
"662 2224 OFFCURVE",
"555 2372 OFFCURVE",
"370 2373 CURVE SMOOTH",
"253 2374 OFFCURVE",
"161 2340 OFFCURVE",
"103 2285 CURVE",
"39 2207 OFFCURVE",
"7 2101 OFFCURVE",
"7 2016 CURVE SMOOTH",
"7 1813 OFFCURVE",
"134 1685 OFFCURVE",
"333 1685 CURVE SMOOTH",
"401 1685 OFFCURVE",
"467 1713 OFFCURVE",
"525 1775 CURVE",
"511 1789 LINE",
"288 1789 OFFCURVE",
"185 1864 OFFCURVE",
"185 2086 CURVE SMOOTH",
"185 2136 OFFCURVE",
"196 2247 OFFCURVE",
"216 2317 CURVE",
"200 2308 LINE",
"370 2308 OFFCURVE",
"495 2205 OFFCURVE",
"495 1954 CURVE SMOOTH",
"495 1700 LINE",
"948 1700 LINE",
"948 1879 LINE",
"909 1878 LINE",
"907 1828 LINE",
"819 1785 OFFCURVE",
"732 1749 OFFCURVE",
"644 1722 CURVE",
"657 1712 LINE"
);
},
{
closed = 1;
nodes = (
"843 1228 LINE",
"843 1265 LINE",
"611 1265 LINE",
"587 1228 LINE"
);
},
{
closed = 1;
nodes = (
"658 1558 LINE",
"646 1548 LINE",
"727 1521 OFFCURVE",
"808 1485 OFFCURVE",
"889 1442 CURVE",
"891 1392 LINE",
"930 1391 LINE",
"930 1570 LINE",
"441 1570 LINE",
"441 1535 LINE",
"495 1534 LINE",
"495 900 LINE",
"948 900 LINE",
"948 1079 LINE",
"909 1078 LINE",
"907 1028 LINE",
"819 985 OFFCURVE",
"732 949 OFFCURVE",
"644 922 CURVE",
"658 912 LINE"
);
},
{
closed = 1;
nodes = (
"540 1538 LINE",
"514 1563 OFFCURVE",
"465 1572 OFFCURVE",
"370 1573 CURVE SMOOTH",
"253 1574 OFFCURVE",
"161 1540 OFFCURVE",
"103 1485 CURVE",
"39 1407 OFFCURVE",
"7 1301 OFFCURVE",
"7 1206 CURVE SMOOTH",
"7 993 OFFCURVE",
"134 885 OFFCURVE",
"293 885 CURVE SMOOTH",
"398 885 OFFCURVE",
"471 919 OFFCURVE",
"525 980 CURVE",
"511 994 LINE",
"288 994 OFFCURVE",
"185 1068 OFFCURVE",
"185 1286 CURVE SMOOTH",
"185 1336 OFFCURVE",
"196 1447 OFFCURVE",
"216 1517 CURVE",
"200 1508 LINE",
"370 1508 OFFCURVE",
"467 1461 OFFCURVE",
"519 1391 CURVE"
);
},
{
closed = 1;
nodes = (
"843 328 LINE",
"843 365 LINE",
"611 365 LINE",
"587 328 LINE"
);
},
{
closed = 1;
nodes = (
"658 658 LINE",
"646 648 LINE",
"727 621 OFFCURVE",
"808 585 OFFCURVE",
"889 542 CURVE",
"891 492 LINE",
"930 491 LINE",
"930 670 LINE",
"441 670 LINE",
"441 635 LINE",
"495 634 LINE",
"495 0 LINE",
"948 0 LINE",
"948 179 LINE",
"909 178 LINE",
"907 128 LINE",
"819 85 OFFCURVE",
"732 49 OFFCURVE",
"644 22 CURVE",
"658 12 LINE"
);
},
{
closed = 1;
nodes = (
"540 638 LINE",
"514 663 OFFCURVE",
"465 672 OFFCURVE",
"370 673 CURVE SMOOTH",
"253 674 OFFCURVE",
"161 640 OFFCURVE",
"103 585 CURVE",
"39 507 OFFCURVE",
"7 401 OFFCURVE",
"7 306 CURVE SMOOTH",
"7 93 OFFCURVE",
"134 -15 OFFCURVE",
"293 -15 CURVE SMOOTH",
"398 -15 OFFCURVE",
"471 19 OFFCURVE",
"525 80 CURVE",
"511 94 LINE",
"288 94 OFFCURVE",
"185 168 OFFCURVE",
"185 386 CURVE SMOOTH",
"185 436 OFFCURVE",
"196 547 OFFCURVE",
"216 617 CURVE",
"200 608 LINE",
"357 608 OFFCURVE",
"495 577 OFFCURVE",
"495 349 CURVE"
);
}
);
};
layerId = "FABFC9D4-E17A-4CB6-8F8E-4923CD579275";
name = Regular;
paths = (
{
closed = 1;
nodes = (
"837 328 LINE",
"837 365 LINE",
"605 365 LINE",
"581 328 LINE"
);
},
{
closed = 1;
nodes = (
"940 0 LINE",
"940 199 LINE",
"901 198 LINE",
"900 148 LINE",
"805 95 OFFCURVE",
"732 54 OFFCURVE",
"636 22 CURVE",
"652 12 LINE",
"648 658 LINE",
"636 648 LINE",
"717 617 OFFCURVE",
"798 577 OFFCURVE",
"879 527 CURVE",
"881 477 LINE",
"920 476 LINE",
"920 670 LINE",
"528 667 LINE",
"472 679 OFFCURVE",
"412 685 OFFCURVE",
"347 685 CURVE SMOOTH",
"258 685 OFFCURVE",
"181 640 OFFCURVE",
"123 585 CURVE",
"59 507 OFFCURVE",
"24 401 OFFCURVE",
"24 316 CURVE SMOOTH",
"24 88 OFFCURVE",
"165 -15 OFFCURVE",
"337 -15 CURVE SMOOTH",
"393 -15 OFFCURVE",
"449 -7 OFFCURVE",
"495 0 CURVE"
);
},
{
closed = 1;
nodes = (
"313 58 OFFCURVE",
"202 142 OFFCURVE",
"202 386 CURVE SMOOTH",
"202 444 OFFCURVE",
"216 553 OFFCURVE",
"236 625 CURVE",
"204 616 LINE",
"406 616 OFFCURVE",
"501 521 OFFCURVE",
"501 294 CURVE SMOOTH",
"501 180 OFFCURVE",
"490 96 OFFCURVE",
"467 35 CURVE",
"507 55 LINE"
);
}
);
width = 965;
}
);
leftKerningGroup = O;
rightKerningGroup = E;
unicode = 0152;
},
{
glyphname = P;
lastChange = "2016-02-22 12:49:18 +0000";
layers = (
{
background = {
paths = (
{
closed = 1;
nodes = (
"-1852 36 LINE",
"-1743 35 LINE",
"-1743 0 LINE",
"-2067 0 LINE",
"-2067 35 LINE",
"-2018 36 LINE",
"-2018 634 LINE",
"-2067 635 LINE",
"-2067 670 LINE",
"-1655 670 LINE",
"-1560 654 OFFCURVE",
"-1497 581 OFFCURVE",
"-1497 493 CURVE SMOOTH",
"-1497 329 OFFCURVE",
"-1624 246 OFFCURVE",
"-1875 246 CURVE",
"-1875 284 LINE",
"-1739 284 OFFCURVE",
"-1675 338 OFFCURVE",
"-1675 452 CURVE SMOOTH",
"-1675 555 OFFCURVE",
"-1749 635 OFFCURVE",
"-1852 635 CURVE"
);
},
{
closed = 1;
nodes = (
"-1152 36 LINE",
"-1043 35 LINE",
"-1043 0 LINE",
"-1367 0 LINE",
"-1367 35 LINE",
"-1318 36 LINE",
"-1318 634 LINE",
"-1367 635 LINE",
"-1367 670 LINE",
"-1174 668 LINE",
"-1174 668 OFFCURVE",
"-1085 680 OFFCURVE",
"-1025 680 CURVE",
"-875 680 OFFCURVE",
"-797 581 OFFCURVE",
"-797 493 CURVE SMOOTH",
"-797 329 OFFCURVE",
"-924 246 OFFCURVE",
"-1175 246 CURVE",
"-1175 284 LINE",
"-1039 284 OFFCURVE",
"-975 338 OFFCURVE",
"-975 452 CURVE SMOOTH",
"-975 555 OFFCURVE",
"-1049 635 OFFCURVE",
"-1152 635 CURVE"
);
},
{
closed = 1;
nodes = (
"-452 36 LINE",
"-343 35 LINE",
"-343 0 LINE",
"-667 0 LINE",
"-667 35 LINE",
"-618 36 LINE",
"-618 634 LINE",
"-667 635 LINE",
"-667 670 LINE",
"-474 668 LINE",
"-325 680 LINE",
"-175 680 OFFCURVE",
"-97 581 OFFCURVE",
"-97 493 CURVE SMOOTH",
"-97 329 OFFCURVE",
"-224 246 OFFCURVE",
"-475 246 CURVE",
"-475 284 LINE",
"-339 284 OFFCURVE",
"-275 338 OFFCURVE",
"-275 452 CURVE SMOOTH",
"-275 555 OFFCURVE",
"-349 635 OFFCURVE",
"-452 635 CURVE"
);
},
{
closed = 1;
nodes = (
"248 36 LINE",
"357 35 LINE",
"357 0 LINE",
"33 0 LINE",
"33 35 LINE",
"82 36 LINE",
"82 634 LINE",
"33 635 LINE",
"33 670 LINE",
"226 668 LINE",
"375 680 LINE",
"525 680 OFFCURVE",
"603 587 OFFCURVE",
"603 479 CURVE SMOOTH",
"603 339 OFFCURVE",
"482 251 OFFCURVE",
"244 246 CURVE SMOOTH",
"225 246 LINE",
"225 284 LINE",
"349 284 OFFCURVE",
"425 345 OFFCURVE",
"425 450 CURVE SMOOTH",
"425 556 OFFCURVE",
"351 635 OFFCURVE",
"248 635 CURVE"
);
}
);
};
layerId = "FABFC9D4-E17A-4CB6-8F8E-4923CD579275";
name = Regular;
paths = (
{
closed = 1;
nodes = (
"251 36 LINE",
"360 35 LINE",
"360 0 LINE",
"36 0 LINE",
"36 35 LINE",
"85 36 LINE",
"85 634 LINE",
"36 635 LINE",
"36 670 LINE",
"229 668 LINE",
"378 675 LINE",
"528 675 OFFCURVE",
"606 582 OFFCURVE",
"606 474 CURVE SMOOTH",
"606 334 OFFCURVE",
"485 246 OFFCURVE",
"247 241 CURVE SMOOTH",
"228 241 LINE",
"228 279 LINE",
"352 279 OFFCURVE",
"428 340 OFFCURVE",
"428 445 CURVE SMOOTH",
"428 551 OFFCURVE",
"354 635 OFFCURVE",
"251 635 CURVE"
);
}
);
width = 618;
}
);
unicode = 0050;
},
{
glyphname = Thorn;
lastChange = "2016-02-22 12:49:18 +0000";
layers = (
{
background = {
paths = (
{
closed = 1;
nodes = (
"250 36 LINE",
"359 35 LINE",
"359 0 LINE",
"35 0 LINE",
"35 35 LINE",
"84 36 LINE",
"84 634 LINE",
"35 635 LINE",
"35 670 LINE",
"228 668 LINE",
"377 680 LINE",
"527 680 OFFCURVE",
"605 581 OFFCURVE",
"605 493 CURVE SMOOTH",
"605 329 OFFCURVE",
"478 246 OFFCURVE",
"227 246 CURVE",
"227 284 LINE",
"363 284 OFFCURVE",
"427 338 OFFCURVE",
"427 452 CURVE SMOOTH",
"427 555 OFFCURVE",
"353 635 OFFCURVE",
"250 635 CURVE"
);
}
);
};
layerId = "FABFC9D4-E17A-4CB6-8F8E-4923CD579275";
name = Regular;
paths = (
{
closed = 1;
nodes = (
"353 525 OFFCURVE",
"427 445 OFFCURVE",
"427 342 CURVE SMOOTH",
"427 228 OFFCURVE",
"363 174 OFFCURVE",
"227 174 CURVE",
"227 136 LINE",
"478 136 OFFCURVE",
"605 219 OFFCURVE",
"605 383 CURVE SMOOTH",
"605 471 OFFCURVE",
"527 570 OFFCURVE",
"377 570 CURVE",
"228 558 LINE",
"229 526 LINE",
"250 525 LINE"
);
},
{
closed = 1;
nodes = (
"251 634 LINE",
"320 635 LINE",
"320 670 LINE",
"36 670 LINE",
"36 635 LINE",
"85 634 LINE",
"85 36 LINE",
"36 35 LINE",
"36 0 LINE",
"320 0 LINE",
"320 35 LINE",
"251 36 LINE"
);
}
);
width = 611;
}
);
unicode = 00DE;
},
{
glyphname = Q;
lastChange = "2016-02-22 16:23:27 +0000";
layers = (
{
background = {
components = (
{
name = O;
}
);
paths = (
{
closed = 1;
nodes = (
"-1750 -100 LINE",
"-1738 -137 LINE",
"-1560 -137 OFFCURVE",
"-1405 -264 OFFCURVE",
"-1284 -264 CURVE",
"-1063 -112 LINE",
"-1089 -79 LINE",
"-1137 -101 OFFCURVE",
"-1181 -111 OFFCURVE",
"-1225 -111 CURVE SMOOTH",
"-1317 -111 OFFCURVE",
"-1450 -57 OFFCURVE",
"-1548 -59 CURVE",
"-1369 23 LINE",
"-1391 56 LINE"
);
},
{
closed = 1;
nodes = (
"-712 -84 LINE",
"-738 -137 LINE",
"-599 -188 OFFCURVE",
"-301 -244 OFFCURVE",
"-180 -244 CURVE",
"-119 -84 LINE",
"-259 -97 OFFCURVE",
"-478 -97 OFFCURVE",
"-613 -89 CURVE",
"-369 23 LINE",
"-391 56 LINE"
);
},
{
closed = 1;
nodes = (
"217 -44 LINE",
"217 -106 LINE",
"341 -166 OFFCURVE",
"579 -234 OFFCURVE",
"696 -242 CURVE",
"748 -76 LINE",
"599 -88 OFFCURVE",
"371 -82 OFFCURVE",
"250 -61 CURVE",
"231 -80 LINE",
"475 7 LINE",
"481 50 LINE"
);
}
);
};
components = (
{
name = O;
}
);
layerId = "FABFC9D4-E17A-4CB6-8F8E-4923CD579275";
name = Regular;
paths = (
{
closed = 1;
nodes = (
"209 -44 LINE",
"209 -106 LINE",
"333 -166 OFFCURVE",
"571 -234 OFFCURVE",
"688 -242 CURVE",
"740 -76 LINE",
"591 -88 OFFCURVE",
"363 -82 OFFCURVE",
"242 -61 CURVE",
"223 -80 LINE",
"467 7 LINE",
"473 50 LINE"
);
}
);
width = 709;
}
);
unicode = 0051;
},
{
glyphname = R;
lastChange = "2016-02-22 16:30:26 +0000";
layers = (
{
anchors = (
{
name = bottom;
position = "{349, -80}";
},
{
name = top;
position = "{352, 770}";
}
);
background = {
paths = (
{
closed = 1;
nodes = (
"-3649 36 LINE",
"-3540 35 LINE",
"-3540 0 LINE",
"-3864 0 LINE",
"-3864 35 LINE",
"-3815 36 LINE",
"-3815 634 LINE",
"-3864 635 LINE",
"-3864 670 LINE",
"-3648 670 LINE",
"-3452 670 LINE",
"-3359 655 OFFCURVE",
"-3304 595 OFFCURVE",
"-3304 509 CURVE SMOOTH",
"-3304 362 OFFCURVE",
"-3438 278 OFFCURVE",
"-3672 278 CURVE",
"-3672 316 LINE",
"-3543 316 OFFCURVE",
"-3482 365 OFFCURVE",
"-3482 468 CURVE SMOOTH",
"-3482 565 OFFCURVE",
"-3548 633 OFFCURVE",
"-3649 633 CURVE"
);
},
{
closed = 1;
nodes = (
"-3551 291 LINE",
"-3408 334 LINE",
"-3392 301 LINE SMOOTH",
"-3349 214 OFFCURVE",
"-3288 138 OFFCURVE",
"-3236 113 CURVE",
"-3193 135 LINE",
"-3178 106 LINE",
"-3355 -11 LINE",
"-3416 19 OFFCURVE",
"-3482 107 OFFCURVE",
"-3521 211 CURVE SMOOTH"
);
},
{
closed = 1;
nodes = (
"-2849 36 LINE",
"-2800 35 LINE",
"-2800 0 LINE",
"-3064 0 LINE",
"-3064 35 LINE",
"-3015 36 LINE",
"-3015 634 LINE",
"-3064 635 LINE",
"-3064 670 LINE",
"-2652 670 LINE",
"-2557 654 OFFCURVE",
"-2494 581 OFFCURVE",
"-2494 493 CURVE SMOOTH",
"-2494 329 OFFCURVE",
"-2621 246 OFFCURVE",
"-2872 246 CURVE",
"-2872 284 LINE",
"-2736 284 OFFCURVE",
"-2672 338 OFFCURVE",
"-2672 452 CURVE SMOOTH",
"-2672 555 OFFCURVE",
"-2746 635 OFFCURVE",
"-2849 635 CURVE"
);
},
{
closed = 1;
nodes = (
"-2459 36 LINE",
"-2410 35 LINE",
"-2410 0 LINE",
"-2718 0 LINE",
"-2718 35 LINE",
"-2669 36 LINE",
"-2787 268 LINE",
"-2667 344 LINE"
);
},
{
closed = 1;
nodes = (
"-1759 36 LINE",
"-1710 35 LINE",
"-1710 0 LINE",
"-2018 0 LINE",
"-2018 35 LINE",
"-1969 36 LINE",
"-2087 268 LINE",
"-1967 344 LINE"
);
},
{
closed = 1;
nodes = (
"-2149 36 LINE",
"-2100 35 LINE",
"-2100 0 LINE",
"-2364 0 LINE",
"-2364 35 LINE",
"-2315 36 LINE",
"-2315 634 LINE",
"-2364 635 LINE",
"-2364 670 LINE",
"-2171 668 LINE",
"-2171 668 OFFCURVE",
"-2082 680 OFFCURVE",
"-2022 680 CURVE SMOOTH",
"-1872 680 OFFCURVE",
"-1794 581 OFFCURVE",
"-1794 493 CURVE SMOOTH",
"-1794 329 OFFCURVE",
"-1921 246 OFFCURVE",
"-2172 246 CURVE",
"-2172 284 LINE",
"-2036 284 OFFCURVE",
"-1972 338 OFFCURVE",
"-1972 452 CURVE SMOOTH",
"-1972 555 OFFCURVE",
"-2046 635 OFFCURVE",
"-2149 635 CURVE"
);
},
{
closed = 1;
nodes = (
"-959 36 LINE",
"-910 35 LINE",
"-910 0 LINE",
"-1218 0 LINE",
"-1218 35 LINE",
"-1169 36 LINE",
"-1287 268 LINE",
"-1167 344 LINE"
);
},
{
closed = 1;
nodes = (
"-1349 36 LINE",
"-1300 35 LINE",
"-1300 0 LINE",
"-1564 0 LINE",
"-1564 35 LINE",
"-1515 36 LINE",
"-1515 634 LINE",
"-1564 635 LINE",
"-1564 670 LINE",
"-1371 668 LINE",
"-1222 680 LINE",
"-1072 680 OFFCURVE",
"-994 581 OFFCURVE",
"-994 493 CURVE SMOOTH",
"-994 329 OFFCURVE",
"-1121 246 OFFCURVE",
"-1372 246 CURVE",
"-1372 284 LINE",
"-1236 284 OFFCURVE",
"-1172 338 OFFCURVE",
"-1172 452 CURVE SMOOTH",
"-1172 555 OFFCURVE",
"-1246 635 OFFCURVE",
"-1349 635 CURVE"
);
},
{
closed = 1;
nodes = (
"-159 36 LINE",
"-110 35 LINE",
"-110 0 LINE",
"-351 0 LINE",
"-487 268 LINE",
"-367 344 LINE"
);
},
{
closed = 1;
nodes = (
"-549 36 LINE",
"-500 35 LINE",
"-500 0 LINE",
"-764 0 LINE",
"-764 35 LINE",
"-715 36 LINE",
"-715 634 LINE",
"-764 635 LINE",
"-764 670 LINE",
"-571 668 LINE",
"-422 680 LINE",
"-272 680 OFFCURVE",
"-194 581 OFFCURVE",
"-194 493 CURVE SMOOTH",
"-194 329 OFFCURVE",
"-321 246 OFFCURVE",
"-572 246 CURVE",
"-572 284 LINE",
"-436 284 OFFCURVE",
"-372 338 OFFCURVE",
"-372 452 CURVE SMOOTH",
"-372 555 OFFCURVE",
"-446 635 OFFCURVE",
"-549 635 CURVE"
);
},
{
closed = 1;
nodes = (
"641 36 LINE",
"690 35 LINE",
"690 0 LINE",
"449 0 LINE",
"313 268 LINE",
"433 344 LINE"
);
},
{
closed = 1;
nodes = (
"300 35 LINE",
"300 0 LINE",
"36 0 LINE",
"36 35 LINE",
"85 36 LINE",
"85 634 LINE",
"36 635 LINE",
"36 670 LINE",
"229 668 LINE",
"378 680 LINE",
"528 680 OFFCURVE",
"606 589 OFFCURVE",
"606 484 CURVE SMOOTH",
"606 347 OFFCURVE",
"485 261 OFFCURVE",
"247 256 CURVE SMOOTH",
"228 256 LINE",
"228 294 LINE",
"352 294 OFFCURVE",
"428 353 OFFCURVE",
"428 455 CURVE SMOOTH",
"428 558 OFFCURVE",
"354 635 OFFCURVE",
"251 635 CURVE",
"251 36 LINE"
);
}
);
};
layerId = "FABFC9D4-E17A-4CB6-8F8E-4923CD579275";
name = Regular;
paths = (
{
closed = 1;
nodes = (
"641 36 LINE",
"690 35 LINE",
"690 0 LINE",
"449 0 LINE",
"313 268 LINE",
"433 344 LINE"
);
},
{
closed = 1;
nodes = (
"300 35 LINE",
"300 0 LINE",
"36 0 LINE",
"36 35 LINE",
"85 36 LINE",
"85 634 LINE",
"36 635 LINE",
"36 670 LINE",
"229 668 LINE",
"378 680 LINE",
"528 680 OFFCURVE",
"606 589 OFFCURVE",
"606 484 CURVE SMOOTH",
"606 355 OFFCURVE",
"485 271 OFFCURVE",
"247 266 CURVE SMOOTH",
"228 266 LINE",
"228 304 LINE",
"352 304 OFFCURVE",
"428 361 OFFCURVE",
"428 460 CURVE SMOOTH",
"428 560 OFFCURVE",
"354 635 OFFCURVE",
"251 635 CURVE",
"251 36 LINE"
);
}
);
width = 692;
}
);
leftKerningGroup = R;
rightKerningGroup = R;
unicode = 0052;
},
{
glyphname = S;
lastChange = "2016-02-22 12:49:18 +0000";
layers = (
{
anchors = (
{
name = bottom;
position = "{269, -80}";
},
{
name = top;
position = "{290, 770}";
}
);
background = {
paths = (
{
closed = 1;
nodes = (
"347 71 OFFCURVE",
"299 20 OFFCURVE",
"237 20 CURVE",
"129 212 LINE",
"16 125 LINE",
"58 43 OFFCURVE",
"141 -15 OFFCURVE",
"259 -15 CURVE SMOOTH",
"439 -15 OFFCURVE",
"522 87 OFFCURVE",
"522 181 CURVE SMOOTH",
"522 382 OFFCURVE",
"217 424 OFFCURVE",
"217 556 CURVE SMOOTH",
"217 614 OFFCURVE",
"249 650 OFFCURVE",
"310 650 CURVE",
"420 480 LINE",
"523 591 LINE",
"480 643 OFFCURVE",
"407 685 OFFCURVE",
"323 685 CURVE SMOOTH",
"136 685 OFFCURVE",
"48 595 OFFCURVE",
"48 480 CURVE SMOOTH",
"48 294 OFFCURVE",
"347 267 OFFCURVE",
"347 131 CURVE SMOOTH"
);
}
);
};
layerId = "FABFC9D4-E17A-4CB6-8F8E-4923CD579275";
name = Regular;
paths = (
{
closed = 1;
nodes = (
"347 72 OFFCURVE",
"297 20 OFFCURVE",
"238 20 CURVE SMOOTH",
"227 20 OFFCURVE",
"216 22 OFFCURVE",
"204 25 CURVE",
"254 -5 LINE",
"207 65 OFFCURVE",
"165 137 OFFCURVE",
"129 212 CURVE",
"16 125 LINE",
"58 45 OFFCURVE",
"134 -15 OFFCURVE",
"266 -15 CURVE SMOOTH",
"437 -15 OFFCURVE",
"522 87 OFFCURVE",
"522 189 CURVE SMOOTH",
"522 383 OFFCURVE",
"217 417 OFFCURVE",
"217 564 CURVE SMOOTH",
"217 611 OFFCURVE",
"249 650 OFFCURVE",
"311 650 CURVE SMOOTH",
"321 650 OFFCURVE",
"336 649 OFFCURVE",
"350 646 CURVE",
"293 675 LINE",
"338 613 OFFCURVE",
"380 549 OFFCURVE",
"418 485 CURVE",
"523 591 LINE",
"476 644 OFFCURVE",
"418 685 OFFCURVE",
"307 685 CURVE SMOOTH",
"145 685 OFFCURVE",
"48 597 OFFCURVE",
"48 487 CURVE SMOOTH",
"48 293 OFFCURVE",
"347 270 OFFCURVE",
"347 129 CURVE SMOOTH"
);
}
);
width = 551;
}
);
leftKerningGroup = S;
rightKerningGroup = S;
unicode = 0053;
},
{
glyphname = T;
lastChange = "2016-02-23 11:18:17 +0000";
layers = (
{
anchors = (
{
name = bottom;
position = "{283, -80}";
},
{
name = center;
position = "{297, 335}";
},
{
name = top;
position = "{296, 770}";
}
);
background = {
paths = (
{
closed = 1;
nodes = (
"-462 648 LINE",
"-530 621 OFFCURVE",
"-599 585 OFFCURVE",
"-667 542 CURVE",
"-669 492 LINE",
"-708 491 LINE",
"-708 670 LINE",
"-98 670 LINE",
"-98 491 LINE",
"-137 492 LINE",
"-139 542 LINE",
"-207 585 OFFCURVE",
"-276 621 OFFCURVE",
"-344 648 CURVE",
"-320 648 LINE",
"-320 36 LINE",
"-271 35 LINE",
"-271 0 LINE",
"-535 0 LINE",
"-535 35 LINE",
"-486 36 LINE",
"-486 648 LINE"
);
},
{
closed = 1;
nodes = (
"238 648 LINE",
"170 617 OFFCURVE",
"101 576 OFFCURVE",
"33 527 CURVE",
"31 477 LINE",
"-8 476 LINE",
"-8 670 LINE",
"602 670 LINE",
"602 476 LINE",
"563 477 LINE",
"561 527 LINE",
"493 576 OFFCURVE",
"424 617 OFFCURVE",
"356 648 CURVE",
"380 648 LINE",
"380 36 LINE",
"459 35 LINE",
"459 0 LINE",
"135 0 LINE",
"135 35 LINE",
"214 36 LINE",
"214 648 LINE"
);
}
);
};
guideLines = (
{
angle = 270;
position = "{296, 574}";
}
);
layerId = "FABFC9D4-E17A-4CB6-8F8E-4923CD579275";
name = Regular;
paths = (
{
closed = 1;
nodes = (
"214 36 LINE",
"135 35 LINE",
"135 0 LINE",
"459 0 LINE",
"459 35 LINE",
"380 36 LINE",
"380 648 LINE",
"356 648 LINE",
"421 617 OFFCURVE",
"483 576 OFFCURVE",
"551 527 CURVE",
"553 477 LINE",
"592 476 LINE",
"592 670 LINE",
"2 670 LINE",
"2 476 LINE",
"41 477 LINE",
"43 527 LINE",
"111 576 OFFCURVE",
"173 617 OFFCURVE",
"238 648 CURVE",
"214 648 LINE"
);
}
);
width = 594;
}
);
unicode = 0054;
},
{
glyphname = U;
lastChange = "2016-02-22 16:24:35 +0000";
layers = (
{
anchors = (
{
name = ogonek;
position = "{651, 10}";
},
{
name = top;
position = "{368, 770}";
}
);
background = {
paths = (
{
closed = 1;
nodes = (
"-1779 -15 OFFCURVE",
"-1687 95 OFFCURVE",
"-1687 266 CURVE SMOOTH",
"-1687 389 OFFCURVE",
"-1677 511 OFFCURVE",
"-1677 634 CURVE",
"-1628 635 LINE",
"-1628 670 LINE",
"-1792 670 LINE",
"-1792 635 LINE",
"-1743 634 LINE",
"-1733 504 OFFCURVE",
"-1723 335 OFFCURVE",
"-1723 245 CURVE SMOOTH",
"-1723 121 OFFCURVE",
"-1819 22 OFFCURVE",
"-1909 22 CURVE SMOOTH",
"-1985 22 OFFCURVE",
"-2061 91 OFFCURVE",
"-2061 295 CURVE SMOOTH",
"-2061 634 LINE",
"-2012 635 LINE",
"-2012 670 LINE",
"-2276 670 LINE",
"-2276 635 LINE",
"-2227 634 LINE",
"-2227 266 LINE SMOOTH",
"-2227 85 OFFCURVE",
"-2125 -15 OFFCURVE",
"-1932 -15 CURVE SMOOTH"
);
},
{
closed = 1;
nodes = (
"-1097 147 LINE",
"-1121 104 OFFCURVE",
"-1160 74 OFFCURVE",
"-1205 74 CURVE SMOOTH",
"-1289 74 OFFCURVE",
"-1361 141 OFFCURVE",
"-1361 311 CURVE SMOOTH",
"-1361 634 LINE",
"-1312 635 LINE",
"-1312 670 LINE",
"-1576 670 LINE",
"-1576 635 LINE",
"-1527 634 LINE",
"-1527 286 LINE SMOOTH",
"-1527 81 OFFCURVE",
"-1422 -15 OFFCURVE",
"-1279 -15 CURVE SMOOTH",
"-1171 -15 OFFCURVE",
"-1100 53 OFFCURVE",
"-1067 119 CURVE"
);
},
{
closed = 1;
nodes = (
"-946 634 LINE",
"-897 635 LINE",
"-897 670 LINE",
"-1161 670 LINE",
"-1161 635 LINE",
"-1112 634 LINE",
"-1112 0 LINE",
"-897 0 LINE",
"-897 35 LINE",
"-946 36 LINE"
);
},
{
closed = 1;
nodes = (
"-297 147 LINE",
"-326 97 OFFCURVE",
"-362 74 OFFCURVE",
"-411 74 CURVE SMOOTH",
"-507 74 OFFCURVE",
"-561 149 OFFCURVE",
"-561 301 CURVE SMOOTH",
"-561 634 LINE",
"-512 635 LINE",
"-512 670 LINE",
"-776 670 LINE",
"-776 635 LINE",
"-727 634 LINE",
"-727 286 LINE SMOOTH",
"-727 94 OFFCURVE",
"-645 -15 OFFCURVE",
"-483 -15 CURVE SMOOTH",
"-389 -15 OFFCURVE",
"-311 33 OFFCURVE",
"-267 119 CURVE"
);
},
{
closed = 1;
nodes = (
"-97 635 LINE",
"-97 670 LINE",
"-361 670 LINE",
"-361 635 LINE",
"-312 634 LINE",
"-312 88 LINE",
"-178 0 LINE",
"-146 0 LINE",
"-146 634 LINE"
);
},
{
closed = 1;
nodes = (
"510 136 LINE",
"471 89 OFFCURVE",
"437 74 OFFCURVE",
"385 74 CURVE SMOOTH",
"297 74 OFFCURVE",
"242 135 OFFCURVE",
"242 271 CURVE SMOOTH",
"242 634 LINE",
"291 635 LINE",
"291 670 LINE",
"24 670 LINE",
"24 635 LINE",
"73 634 LINE",
"73 266 LINE SMOOTH",
"73 80 OFFCURVE",
"158 -15 OFFCURVE",
"311 -15 CURVE SMOOTH",
"403 -15 OFFCURVE",
"475 25 OFFCURVE",
"536 104 CURVE"
);
},
{
closed = 1;
nodes = (
"703 635 LINE",
"703 670 LINE",
"439 670 LINE",
"439 635 LINE",
"488 634 LINE",
"488 88 LINE",
"622 0 LINE",
"654 0 LINE",
"654 634 LINE"
);
}
);
};
guideLines = (
{
angle = 270;
position = "{368, 434}";
}
);
layerId = "FABFC9D4-E17A-4CB6-8F8E-4923CD579275";
name = Regular;
paths = (
{
closed = 1;
nodes = (
"507 135 LINE",
"472 113 OFFCURVE",
"438 103 OFFCURVE",
"386 103 CURVE SMOOTH",
"306 103 OFFCURVE",
"244 160 OFFCURVE",
"244 281 CURVE SMOOTH",
"244 634 LINE",
"293 635 LINE",
"293 670 LINE",
"26 670 LINE",
"26 635 LINE",
"75 634 LINE",
"75 256 LINE SMOOTH",
"75 65 OFFCURVE",
"160 -15 OFFCURVE",
"293 -15 CURVE SMOOTH",
"384 -15 OFFCURVE",
"468 41 OFFCURVE",
"514 117 CURVE"
);
},
{
closed = 1;
nodes = (
"700 635 LINE",
"700 670 LINE",
"436 670 LINE",
"436 635 LINE",
"485 634 LINE",
"485 88 LINE",
"619 0 LINE",
"651 0 LINE",
"651 634 LINE"
);
}
);
width = 726;
}
);
leftKerningGroup = U;
rightKerningGroup = U;
unicode = 0055;
},
{
glyphname = Uogonek;
lastChange = "2016-02-22 12:49:18 +0000";
layers = (
{
anchors = (
{
name = ogonek;
position = "{658, 10}";
},
{
name = top;
position = "{370, 770}";
}
);
components = (
{
disableAlignment = 1;
name = ogonekcomb.case;
transform = "{1, 0, 0, 1, 219, 0}";
}
);
layerId = "FABFC9D4-E17A-4CB6-8F8E-4923CD579275";
name = Regular;
paths = (
{
closed = 1;
nodes = (
"505 147 LINE",
"476 97 OFFCURVE",
"440 74 OFFCURVE",
"391 74 CURVE SMOOTH",
"295 74 OFFCURVE",
"241 159 OFFCURVE",
"241 311 CURVE SMOOTH",
"241 634 LINE",
"290 635 LINE",
"290 670 LINE",
"26 670 LINE",
"26 635 LINE",
"75 634 LINE",
"75 286 LINE SMOOTH",
"75 94 OFFCURVE",
"167 -15 OFFCURVE",
"319 -15 CURVE SMOOTH",
"413 -15 OFFCURVE",
"491 33 OFFCURVE",
"535 119 CURVE"
);
},
{
closed = 1;
nodes = (
"705 635 LINE",
"705 670 LINE",
"441 670 LINE",
"441 635 LINE",
"490 634 LINE",
"490 88 LINE",
"601 0 LINE",
"656 0 LINE",
"656 634 LINE"
);
}
);
width = 731;
}
);
leftKerningGroup = U;
rightKerningGroup = U;
unicode = 0172;
},
{
glyphname = V;
lastChange = "2016-02-22 12:49:18 +0000";
layers = (
{
background = {
paths = (
{
closed = 1;
nodes = (
"-134 632 LINE",
"-134 672 LINE",
"-356 672 LINE",
"-356 632 LINE",
"-307 631 LINE",
"-419 77 LINE",
"-398 85 LINE",
"-555 631 LINE",
"-506 632 LINE",
"-506 672 LINE",
"-804 672 LINE",
"-804 632 LINE",
"-755 631 LINE",
"-535 0 LINE",
"-409 7 LINE",
"-181 631 LINE"
);
},
{
closed = 1;
nodes = (
"671 635 LINE",
"671 670 LINE",
"445 670 LINE",
"445 635 LINE",
"496 634 LINE",
"382 72 LINE",
"404 76 LINE",
"247 634 LINE",
"296 635 LINE",
"296 670 LINE",
"-5 670 LINE",
"-5 635 LINE",
"44 634 LINE",
"274 -9 LINE",
"398 8 LINE",
"622 634 LINE"
);
}
);
};
guideLines = (
{
position = "{282, 540}";
}
);
layerId = "FABFC9D4-E17A-4CB6-8F8E-4923CD579275";
name = Regular;
paths = (
{
closed = 1;
nodes = (
"667 635 LINE",
"667 670 LINE",
"440 670 LINE",
"440 635 LINE",
"499 634 LINE",
"369 72 LINE",
"391 76 LINE",
"247 634 LINE",
"306 635 LINE",
"306 670 LINE",
"2 670 LINE",
"2 635 LINE",
"44 634 LINE",
"261 -9 LINE",
"391 8 LINE",
"625 634 LINE"
);
}
);
width = 669;
}
);
leftKerningGroup = V;
rightKerningGroup = V;
unicode = 0056;
},
{
glyphname = W;
lastChange = "2016-02-22 12:49:18 +0000";
layers = (
{
anchors = (
{
name = top;
position = "{571, 770}";
}
);
background = {
paths = (
{
closed = 1;
nodes = (
"-1751 630 LINE",
"-1751 670 LINE",
"-1973 670 LINE",
"-1973 630 LINE",
"-1922 629 LINE",
"-2033 79 LINE",
"-2016 93 LINE",
"-2163 629 LINE",
"-2114 630 LINE",
"-2114 670 LINE",
"-2397 670 LINE",
"-2397 630 LINE",
"-2348 629 LINE",
"-2141 -2 LINE",
"-2017 15 LINE",
"-1800 629 LINE"
);
},
{
closed = 1;
nodes = (
"-1326 630 LINE",
"-1326 670 LINE",
"-1548 670 LINE",
"-1548 630 LINE",
"-1497 629 LINE",
"-1608 79 LINE",
"-1591 93 LINE",
"-1738 629 LINE",
"-1689 630 LINE",
"-1689 670 LINE",
"-1972 670 LINE",
"-1972 630 LINE",
"-1923 629 LINE",
"-1716 -2 LINE",
"-1592 15 LINE",
"-1375 629 LINE"
);
},
{
closed = 1;
nodes = (
"-554 635 LINE",
"-554 670 LINE",
"-780 670 LINE",
"-780 635 LINE",
"-729 634 LINE",
"-833 72 LINE",
"-811 76 LINE",
"-958 634 LINE",
"-909 635 LINE",
"-909 670 LINE",
"-1210 670 LINE",
"-1210 635 LINE",
"-1161 634 LINE",
"-941 -9 LINE",
"-817 8 LINE",
"-603 634 LINE"
);
},
{
closed = 1;
nodes = (
"-122 635 LINE",
"-122 670 LINE",
"-348 670 LINE",
"-348 635 LINE",
"-297 634 LINE",
"-401 72 LINE",
"-379 76 LINE",
"-526 634 LINE",
"-477 635 LINE",
"-477 670 LINE",
"-778 670 LINE",
"-778 635 LINE",
"-729 634 LINE",
"-509 -9 LINE",
"-385 8 LINE",
"-171 634 LINE"
);
},
{
closed = 1;
nodes = (
"388 8 LINE",
"264 -9 LINE",
"44 634 LINE",
"-5 635 LINE",
"-5 670 LINE",
"296 670 LINE",
"296 635 LINE",
"247 634 LINE",
"394 76 LINE",
"372 72 LINE",
"476 634 LINE",
"427 635 LINE",
"427 670 LINE",
"718 670 LINE",
"718 635 LINE",
"669 634 LINE",
"816 76 LINE",
"794 72 LINE",
"898 634 LINE",
"847 635 LINE",
"847 670 LINE",
"1073 670 LINE",
"1073 635 LINE",
"1024 634 LINE",
"810 8 LINE",
"686 -9 LINE",
"506 534 LINE",
"597 634 LINE"
);
}
);
};
layerId = "FABFC9D4-E17A-4CB6-8F8E-4923CD579275";
name = Regular;
paths = (
{
closed = 1;
nodes = (
"374 8 LINE",
"244 -9 LINE",
"44 634 LINE",
"2 635 LINE",
"2 670 LINE",
"296 670 LINE",
"296 635 LINE",
"247 634 LINE",
"374 76 LINE",
"352 72 LINE",
"461 634 LINE",
"412 635 LINE",
"412 670 LINE",
"703 670 LINE",
"703 635 LINE",
"654 634 LINE",
"786 76 LINE",
"764 72 LINE",
"868 634 LINE",
"817 635 LINE",
"817 670 LINE",
"1036 670 LINE",
"1036 635 LINE",
"994 634 LINE",
"786 8 LINE",
"656 -9 LINE",
"497 544 LINE",
"576 634 LINE"
);
}
);
width = 1038;
}
);
leftKerningGroup = V;
rightKerningGroup = V;
unicode = 0057;
},
{
glyphname = X;
lastChange = "2016-02-22 12:49:18 +0000";
layers = (
{
background = {
paths = (
{
closed = 1;
nodes = (
"-2039 629 LINE",
"-1990 630 LINE",
"-1990 670 LINE",
"-2308 670 LINE",
"-2308 630 LINE",
"-2259 629 LINE",
"-1897 41 LINE",
"-1946 40 LINE",
"-1946 0 LINE",
"-1628 0 LINE",
"-1628 40 LINE",
"-1677 41 LINE"
);
},
{
closed = 1;
nodes = (
"-1998 339 LINE",
"-1995 378 LINE",
"-2243 41 LINE",
"-2292 40 LINE",
"-2292 0 LINE",
"-2039 0 LINE",
"-2039 40 LINE",
"-2088 41 LINE"
);
},
{
closed = 1;
nodes = (
"-1664 630 LINE",
"-1664 670 LINE",
"-1912 670 LINE",
"-1912 630 LINE",
"-1863 629 LINE",
"-1962 360 LINE",
"-1965 322 LINE",
"-1713 629 LINE"
);
},
{
closed = 1;
nodes = (
"-1222 629 LINE",
"-1173 630 LINE",
"-1173 670 LINE",
"-1484 670 LINE",
"-1484 630 LINE",
"-1435 629 LINE",
"-1119 41 LINE",
"-1168 40 LINE",
"-1168 0 LINE",
"-857 0 LINE",
"-857 40 LINE",
"-906 41 LINE"
);
},
{
closed = 1;
nodes = (
"-1198 379 LINE",
"-1195 418 LINE",
"-1432 41 LINE",
"-1491 40 LINE",
"-1491 0 LINE",
"-1238 0 LINE",
"-1238 40 LINE",
"-1302 41 LINE"
);
},
{
closed = 1;
nodes = (
"-866 630 LINE",
"-866 670 LINE",
"-1114 670 LINE",
"-1114 630 LINE",
"-1050 629 LINE",
"-1152 350 LINE",
"-1155 312 LINE",
"-925 629 LINE"
);
},
{
closed = 1;
nodes = (
"-432 634 LINE",
"-383 635 LINE",
"-383 670 LINE",
"-691 670 LINE",
"-691 635 LINE",
"-642 634 LINE",
"-306 36 LINE",
"-355 35 LINE",
"-355 0 LINE",
"-47 0 LINE",
"-47 35 LINE",
"-96 36 LINE"
);
},
{
closed = 1;
nodes = (
"-398 389 LINE",
"-395 428 LINE",
"-642 36 LINE",
"-701 35 LINE",
"-701 0 LINE",
"-448 0 LINE",
"-448 35 LINE",
"-512 36 LINE"
);
},
{
closed = 1;
nodes = (
"-56 635 LINE",
"-56 670 LINE",
"-304 670 LINE",
"-304 635 LINE",
"-240 634 LINE",
"-362 347 LINE",
"-365 309 LINE",
"-115 634 LINE"
);
},
{
closed = 1;
nodes = (
"264 634 LINE",
"313 635 LINE",
"313 670 LINE",
"12 670 LINE",
"12 635 LINE",
"61 634 LINE",
"397 36 LINE",
"348 35 LINE",
"348 0 LINE",
"649 0 LINE",
"649 35 LINE",
"600 36 LINE"
);
},
{
closed = 1;
nodes = (
"305 389 LINE",
"308 428 LINE",
"61 36 LINE",
"2 35 LINE",
"2 0 LINE",
"255 0 LINE",
"255 35 LINE",
"191 36 LINE"
);
},
{
closed = 1;
nodes = (
"638 635 LINE",
"638 670 LINE",
"390 670 LINE",
"390 635 LINE",
"454 634 LINE",
"332 347 LINE",
"329 309 LINE",
"579 634 LINE"
);
}
);
};
guideLines = (
{
angle = 270;
position = "{19, 630}";
},
{
angle = 270;
position = "{634, 630}";
}
);
layerId = "FABFC9D4-E17A-4CB6-8F8E-4923CD579275";
name = Regular;
paths = (
{
closed = 1;
nodes = (
"262 634 LINE",
"311 635 LINE",
"311 670 LINE",
"10 670 LINE",
"10 635 LINE",
"59 634 LINE",
"399 36 LINE",
"350 35 LINE",
"350 0 LINE",
"641 0 LINE",
"641 35 LINE",
"602 36 LINE"
);
},
{
closed = 1;
nodes = (
"298 389 LINE",
"301 428 LINE",
"54 36 LINE",
"2 35 LINE",
"2 0 LINE",
"248 0 LINE",
"248 35 LINE",
"184 36 LINE"
);
},
{
closed = 1;
nodes = (
"628 635 LINE",
"628 670 LINE",
"397 670 LINE",
"397 635 LINE",
"461 634 LINE",
"339 347 LINE",
"336 309 LINE",
"586 634 LINE"
);
}
);
width = 643;
}
);
unicode = 0058;
},
{
glyphname = Y;
lastChange = "2016-02-22 12:49:18 +0000";
layers = (
{
anchors = (
{
name = top;
position = "{358, 770}";
}
);
background = {
paths = (
{
closed = 1;
nodes = (
"643 635 LINE",
"643 670 LINE",
"417 670 LINE",
"417 635 LINE",
"468 634 LINE",
"369 312 LINE",
"391 316 LINE",
"249 634 LINE",
"298 635 LINE",
"298 670 LINE",
"-3 670 LINE",
"-3 635 LINE",
"46 634 LINE",
"261 231 LINE",
"385 248 LINE",
"594 634 LINE"
);
},
{
closed = 1;
nodes = (
"406 294 LINE",
"240 294 LINE",
"240 36 LINE",
"191 35 LINE",
"191 0 LINE",
"455 0 LINE",
"455 35 LINE",
"406 36 LINE"
);
}
);
};
layerId = "FABFC9D4-E17A-4CB6-8F8E-4923CD579275";
name = Regular;
paths = (
{
closed = 1;
nodes = (
"634 635 LINE",
"634 670 LINE",
"415 670 LINE",
"415 635 LINE",
"466 634 LINE",
"364 312 LINE",
"386 316 LINE",
"247 634 LINE",
"296 635 LINE",
"296 670 LINE",
"2 670 LINE",
"2 635 LINE",
"44 634 LINE",
"256 231 LINE",
"380 248 LINE",
"592 634 LINE"
);
},
{
closed = 1;
nodes = (
"401 294 LINE",
"235 294 LINE",
"235 36 LINE",
"186 35 LINE",
"186 0 LINE",
"450 0 LINE",
"450 35 LINE",
"401 36 LINE"
);
}
);
width = 636;
}
);
leftKerningGroup = Y;
rightKerningGroup = Y;
unicode = 0059;
},
{
glyphname = Z;
lastChange = "2016-02-22 12:49:18 +0000";
layers = (
{
anchors = (
{
name = top;
position = "{296, 770}";
}
);
background = {
paths = (
{
closed = 1;
nodes = (
"-684 20 LINE",
"-671 0 LINE",
"-149 0 LINE",
"-149 199 LINE",
"-188 198 LINE",
"-190 148 LINE",
"-493 28 LINE",
"-488 14 LINE",
"-160 650 LINE",
"-178 670 LINE",
"-665 670 LINE",
"-665 471 LINE",
"-626 472 LINE",
"-624 522 LINE",
"-340 660 LINE",
"-353 660 LINE"
);
},
{
closed = 1;
nodes = (
"25 34 LINE",
"25 0 LINE",
"551 0 LINE",
"551 177 LINE",
"512 176 LINE",
"510 126 LINE",
"409 85 OFFCURVE",
"308 53 OFFCURVE",
"207 28 CURVE",
"208 14 LINE",
"533 626 LINE",
"533 670 LINE",
"38 670 LINE",
"38 493 LINE",
"77 494 LINE",
"79 544 LINE",
"175 586 OFFCURVE",
"271 621 OFFCURVE",
"367 647 CURVE",
"358 660 LINE"
);
}
);
};
layerId = "FABFC9D4-E17A-4CB6-8F8E-4923CD579275";
name = Regular;
paths = (
{
closed = 1;
nodes = (
"20 34 LINE",
"20 0 LINE",
"541 0 LINE",
"541 197 LINE",
"502 196 LINE",
"500 146 LINE",
"399 97 OFFCURVE",
"301 56 OFFCURVE",
"202 24 CURVE",
"203 14 LINE",
"528 626 LINE",
"528 670 LINE",
"38 670 LINE",
"38 478 LINE",
"77 479 LINE",
"79 529 LINE",
"175 577 OFFCURVE",
"271 619 OFFCURVE",
"367 651 CURVE",
"353 660 LINE"
);
}
);
width = 556;
}
);
leftKerningGroup = Z;
rightKerningGroup = Z;
unicode = 005A;
},
{
glyphname = OE.alt;
lastChange = "2016-02-22 12:54:42 +0000";
layers = (
{
anchors = (
{
name = top;
position = "{558, 770}";
}
);
background = {
paths = (
{
closed = 1;
nodes = (
"422 4816 OFFCURVE",
"536 4731 OFFCURVE",
"536 4484 CURVE SMOOTH",
"536 4432 OFFCURVE",
"526 4317 OFFCURVE",
"506 4245 CURVE",
"537 4255 LINE",
"323 4255 OFFCURVE",
"210 4339 OFFCURVE",
"210 4586 CURVE SMOOTH",
"210 4638 OFFCURVE",
"221 4753 OFFCURVE",
"241 4825 CURVE",
"214 4816 LINE"
);
},
{
closed = 1;
nodes = (
"278 4885 OFFCURVE",
"186 4840 OFFCURVE",
"128 4785 CURVE",
"64 4707 OFFCURVE",
"32 4601 OFFCURVE",
"32 4516 CURVE SMOOTH",
"32 4298 OFFCURVE",
"172 4185 OFFCURVE",
"367 4185 CURVE SMOOTH",
"468 4185 OFFCURVE",
"560 4230 OFFCURVE",
"619 4285 CURVE",
"684 4363 OFFCURVE",
"713 4469 OFFCURVE",
"713 4554 CURVE SMOOTH",
"713 4772 OFFCURVE",
"573 4885 OFFCURVE",
"377 4885 CURVE SMOOTH"
);
},
{
closed = 1;
nodes = (
"994 4379 LINE",
"955 4378 LINE",
"953 4328 LINE",
"865 4285 OFFCURVE",
"778 4249 OFFCURVE",
"690 4222 CURVE",
"706 4212 LINE",
"702 4858 LINE",
"690 4848 LINE",
"771 4821 OFFCURVE",
"852 4785 OFFCURVE",
"933 4742 CURVE",
"935 4692 LINE",
"974 4691 LINE",
"974 4870 LINE",
"487 4870 LINE",
"487 4835 LINE",
"536 4834 LINE",
"536 4236 LINE",
"487 4235 LINE",
"487 4200 LINE",
"994 4200 LINE"
);
},
{
closed = 1;
nodes = (
"891 4528 LINE",
"891 4565 LINE",
"659 4565 LINE",
"635 4528 LINE"
);
},
{
closed = 1;
nodes = (
"868 3728 LINE",
"868 3765 LINE",
"636 3765 LINE",
"612 3728 LINE"
);
},
{
closed = 1;
nodes = (
"389 4068 LINE",
"535 4041 OFFCURVE",
"758 3985 OFFCURVE",
"912 3942 CURVE",
"914 3892 LINE",
"953 3891 LINE",
"953 4070 LINE",
"398 4073 LINE"
);
},
{
closed = 1;
nodes = (
"685 3736 LINE SMOOTH",
"687 3924 OFFCURVE",
"580 4072 OFFCURVE",
"395 4073 CURVE SMOOTH",
"278 4074 OFFCURVE",
"186 4040 OFFCURVE",
"128 3985 CURVE",
"64 3907 OFFCURVE",
"32 3801 OFFCURVE",
"32 3716 CURVE SMOOTH",
"32 3513 OFFCURVE",
"159 3385 OFFCURVE",
"358 3385 CURVE SMOOTH",
"426 3385 OFFCURVE",
"492 3413 OFFCURVE",
"550 3475 CURVE",
"536 3489 LINE",
"313 3489 OFFCURVE",
"210 3564 OFFCURVE",
"210 3786 CURVE SMOOTH",
"210 3836 OFFCURVE",
"221 3947 OFFCURVE",
"241 4017 CURVE",
"225 4008 LINE",
"395 4008 OFFCURVE",
"520 3905 OFFCURVE",
"520 3654 CURVE SMOOTH",
"520 3400 LINE",
"973 3400 LINE",
"973 3579 LINE",
"934 3578 LINE",
"932 3528 LINE",
"844 3485 OFFCURVE",
"757 3449 OFFCURVE",
"669 3422 CURVE",
"682 3412 LINE"
);
},
{
closed = 1;
nodes = (
"868 2928 LINE",
"868 2965 LINE",
"636 2965 LINE",
"612 2928 LINE"
);
},
{
closed = 1;
nodes = (
"683 3258 LINE",
"671 3248 LINE",
"752 3221 OFFCURVE",
"833 3185 OFFCURVE",
"914 3142 CURVE",
"916 3092 LINE",
"955 3091 LINE",
"955 3270 LINE",
"466 3270 LINE",
"466 3235 LINE",
"520 3234 LINE",
"520 2600 LINE",
"973 2600 LINE",
"973 2779 LINE",
"934 2778 LINE",
"932 2728 LINE",
"844 2685 OFFCURVE",
"757 2649 OFFCURVE",
"669 2622 CURVE",
"683 2612 LINE"
);
},
{
closed = 1;
nodes = (
"565 3238 LINE",
"539 3263 OFFCURVE",
"490 3272 OFFCURVE",
"395 3273 CURVE SMOOTH",
"278 3274 OFFCURVE",
"186 3240 OFFCURVE",
"128 3185 CURVE",
"64 3107 OFFCURVE",
"32 3001 OFFCURVE",
"32 2906 CURVE SMOOTH",
"32 2693 OFFCURVE",
"159 2585 OFFCURVE",
"318 2585 CURVE SMOOTH",
"423 2585 OFFCURVE",
"496 2619 OFFCURVE",
"550 2680 CURVE",
"536 2694 LINE",
"313 2694 OFFCURVE",
"210 2768 OFFCURVE",
"210 2986 CURVE SMOOTH",
"210 3036 OFFCURVE",
"221 3147 OFFCURVE",
"241 3217 CURVE",
"225 3208 LINE",
"395 3208 OFFCURVE",
"492 3161 OFFCURVE",
"544 3091 CURVE"
);
},
{
closed = 1;
nodes = (
"868 2028 LINE",
"868 2065 LINE",
"636 2065 LINE",
"612 2028 LINE"
);
},
{
closed = 1;
nodes = (
"683 2358 LINE",
"671 2348 LINE",
"752 2321 OFFCURVE",
"833 2285 OFFCURVE",
"914 2242 CURVE",
"916 2192 LINE",
"955 2191 LINE",
"955 2370 LINE",
"466 2370 LINE",
"466 2335 LINE",
"520 2334 LINE",
"520 1700 LINE",
"973 1700 LINE",
"973 1879 LINE",
"934 1878 LINE",
"932 1828 LINE",
"844 1785 OFFCURVE",
"757 1749 OFFCURVE",
"669 1722 CURVE",
"683 1712 LINE"
);
},
{
closed = 1;
nodes = (
"565 2338 LINE",
"539 2363 OFFCURVE",
"490 2372 OFFCURVE",
"395 2373 CURVE SMOOTH",
"278 2374 OFFCURVE",
"186 2340 OFFCURVE",
"128 2285 CURVE",
"64 2207 OFFCURVE",
"32 2101 OFFCURVE",
"32 2006 CURVE SMOOTH",
"32 1793 OFFCURVE",
"159 1685 OFFCURVE",
"318 1685 CURVE SMOOTH",
"423 1685 OFFCURVE",
"496 1719 OFFCURVE",
"550 1780 CURVE",
"536 1794 LINE",
"313 1794 OFFCURVE",
"210 1868 OFFCURVE",
"210 2086 CURVE SMOOTH",
"210 2136 OFFCURVE",
"221 2247 OFFCURVE",
"241 2317 CURVE",
"225 2308 LINE",
"382 2308 OFFCURVE",
"520 2277 OFFCURVE",
"520 2049 CURVE"
);
},
{
closed = 1;
nodes = (
"868 1218 LINE",
"868 1255 LINE",
"636 1255 LINE",
"612 1218 LINE"
);
},
{
closed = 1;
nodes = (
"622 1499 OFFCURVE",
"768 1473 OFFCURVE",
"914 1442 CURVE",
"916 1392 LINE",
"955 1391 LINE",
"955 1570 LINE",
"435 1570 LINE",
"445 1518 LINE"
);
},
{
closed = 1;
nodes = (
"689 1497 OFFCURVE",
"556 1568 OFFCURVE",
"395 1573 CURVE SMOOTH",
"287 1574 OFFCURVE",
"206 1540 OFFCURVE",
"148 1485 CURVE",
"87 1407 OFFCURVE",
"57 1301 OFFCURVE",
"57 1206 CURVE SMOOTH",
"57 993 OFFCURVE",
"183 885 OFFCURVE",
"329 885 CURVE SMOOTH",
"434 885 OFFCURVE",
"503 926 OFFCURVE",
"550 980 CURVE",
"536 994 LINE",
"330 994 OFFCURVE",
"235 1068 OFFCURVE",
"235 1286 CURVE SMOOTH",
"235 1336 OFFCURVE",
"244 1447 OFFCURVE",
"261 1517 CURVE",
"225 1508 LINE",
"407 1508 OFFCURVE",
"515 1427 OFFCURVE",
"515 1149 CURVE SMOOTH",
"515 900 LINE",
"973 900 LINE",
"973 1079 LINE",
"934 1078 LINE",
"932 1028 LINE",
"844 985 OFFCURVE",
"757 949 OFFCURVE",
"669 922 CURVE",
"683 912 LINE",
"686 1184 LINE SMOOTH"
);
},
{
closed = 1;
nodes = (
"512 19 OFFCURVE",
"436 -15 OFFCURVE",
"347 -15 CURVE SMOOTH",
"159 -15 OFFCURVE",
"24 98 OFFCURVE",
"24 316 CURVE SMOOTH",
"24 401 OFFCURVE",
"56 507 OFFCURVE",
"120 585 CURVE",
"178 640 OFFCURVE",
"263 685 OFFCURVE",
"357 685 CURVE SMOOTH",
"531 685 OFFCURVE",
"658 572 OFFCURVE",
"658 354 CURVE",
"481 284 LINE",
"481 495 OFFCURVE",
"362 616 OFFCURVE",
"194 616 CURVE",
"233 625 LINE",
"213 553 OFFCURVE",
"202 438 OFFCURVE",
"202 386 CURVE SMOOTH",
"202 175 OFFCURVE",
"319 92 OFFCURVE",
"464 92 CURVE SMOOTH",
"518 92 OFFCURVE",
"579 110 OFFCURVE",
"607 128 CURVE",
"589 69 LINE"
);
},
{
closed = 1;
nodes = (
"927 100 OFFCURVE",
"985 124 OFFCURVE",
"1028 167 CURVE",
"1056 143 LINE",
"985 43 OFFCURVE",
"880 -15 OFFCURVE",
"770 -15 CURVE SMOOTH",
"612 -15 OFFCURVE",
"481 117 OFFCURVE",
"481 306 CURVE SMOOTH",
"481 542 OFFCURVE",
"606 685 OFFCURVE",
"811 685 CURVE SMOOTH",
"964 685 OFFCURVE",
"1076 552 OFFCURVE",
"1075 343 CURVE",
"640 328 LINE",
"640 365 LINE",
"888 382 LINE",
"884 509 OFFCURVE",
"798 625 OFFCURVE",
"718 627 CURVE",
"756 631 LINE",
"698 583 OFFCURVE",
"659 481 OFFCURVE",
"659 379 CURVE SMOOTH",
"659 221 OFFCURVE",
"733 100 OFFCURVE",
"865 100 CURVE SMOOTH"
);
},
{
closed = 1;
nodes = (
"1038 -733 LINE",
"995 -776 OFFCURVE",
"937 -800 OFFCURVE",
"875 -800 CURVE SMOOTH",
"742 -800 OFFCURVE",
"659 -699 OFFCURVE",
"659 -536 CURVE SMOOTH",
"659 -398 OFFCURVE",
"720 -276 OFFCURVE",
"812 -242 CURVE",
"796 -230 LINE",
"931 -443 LINE",
"1054 -340 LINE",
"1005 -263 OFFCURVE",
"915 -217 OFFCURVE",
"814 -217 CURVE SMOOTH",
"739 -217 OFFCURVE",
"657 -241 OFFCURVE",
"589 -285 CURVE",
"522 -348 OFFCURVE",
"480 -462 OFFCURVE",
"480 -582 CURVE SMOOTH",
"480 -780 OFFCURVE",
"601 -915 OFFCURVE",
"780 -915 CURVE SMOOTH",
"890 -915 OFFCURVE",
"995 -857 OFFCURVE",
"1066 -757 CURVE"
);
}
);
};
layerId = "FABFC9D4-E17A-4CB6-8F8E-4923CD579275";
name = Regular;
paths = (
{
closed = 1;
nodes = (
"512 19 OFFCURVE",
"436 -15 OFFCURVE",
"347 -15 CURVE SMOOTH",
"159 -15 OFFCURVE",
"24 98 OFFCURVE",
"24 316 CURVE SMOOTH",
"24 401 OFFCURVE",
"56 507 OFFCURVE",
"120 585 CURVE",
"178 640 OFFCURVE",
"263 685 OFFCURVE",
"357 685 CURVE SMOOTH",
"531 685 OFFCURVE",
"658 572 OFFCURVE",
"658 354 CURVE",
"481 284 LINE",
"481 495 OFFCURVE",
"362 616 OFFCURVE",
"194 616 CURVE",
"233 625 LINE",
"213 553 OFFCURVE",
"202 438 OFFCURVE",
"202 386 CURVE SMOOTH",
"202 175 OFFCURVE",
"319 92 OFFCURVE",
"464 92 CURVE SMOOTH",
"518 92 OFFCURVE",
"579 110 OFFCURVE",
"607 128 CURVE",
"589 69 LINE"
);
},
{
closed = 1;
nodes = (
"700 579 OFFCURVE",
"659 477 OFFCURVE",
"659 364 CURVE SMOOTH",
"659 201 OFFCURVE",
"742 100 OFFCURVE",
"875 100 CURVE SMOOTH",
"937 100 OFFCURVE",
"995 124 OFFCURVE",
"1038 167 CURVE",
"1066 143 LINE",
"995 43 OFFCURVE",
"890 -15 OFFCURVE",
"780 -15 CURVE SMOOTH",
"601 -15 OFFCURVE",
"480 120 OFFCURVE",
"480 318 CURVE SMOOTH",
"480 544 OFFCURVE",
"606 685 OFFCURVE",
"811 685 CURVE SMOOTH",
"964 685 OFFCURVE",
"1076 552 OFFCURVE",
"1075 343 CURVE",
"640 328 LINE",
"640 365 LINE",
"888 382 LINE",
"884 509 OFFCURVE",
"798 625 OFFCURVE",
"718 627 CURVE",
"765 631 LINE"
);
}
);
width = 1095;
}
);
leftKerningGroup = O;
rightKerningGroup = C;
},
{
glyphname = Q.alt;
lastChange = "2016-02-22 12:49:18 +0000";
layers = (
{
background = {
components = (
{
name = O;
}
);
paths = (
{
closed = 1;
nodes = (
"-850 -100 LINE",
"-838 -137 LINE",
"-660 -137 OFFCURVE",
"-505 -264 OFFCURVE",
"-384 -264 CURVE",
"-163 -112 LINE",
"-189 -79 LINE",
"-237 -101 OFFCURVE",
"-281 -111 OFFCURVE",
"-325 -111 CURVE SMOOTH",
"-417 -111 OFFCURVE",
"-550 -57 OFFCURVE",
"-648 -59 CURVE",
"-469 23 LINE",
"-491 56 LINE"
);
},
{
closed = 1;
nodes = (
"188 -84 LINE",
"162 -137 LINE",
"301 -188 OFFCURVE",
"599 -244 OFFCURVE",
"720 -244 CURVE",
"781 -84 LINE",
"641 -97 OFFCURVE",
"422 -97 OFFCURVE",
"287 -89 CURVE",
"531 23 LINE",
"509 56 LINE"
);
}
);
};
components = (
{
name = O;
}
);
layerId = "FABFC9D4-E17A-4CB6-8F8E-4923CD579275";
name = Regular;
paths = (
{
closed = 1;
nodes = (
"385 31 CURVE",
"385 -1 LINE",
"462 -111 OFFCURVE",
"610 -242 OFFCURVE",
"696 -250 CURVE",
"748 -84 LINE",
"602 -62 OFFCURVE",
"521 -39 OFFCURVE"
);
}
);
width = 709;
}
);
},
{
glyphname = a;
lastChange = "2016-02-22 14:20:37 +0000";
layers = (
{
anchors = (
{
name = bottom;
position = "{208, 0}";
},
{
name = ogonek;
position = "{391, 10}";
},
{
name = top;
position = "{219, 574}";
}
);
background = {
paths = (
{
closed = 1;
nodes = (
"-562 58 LINE",
"-571 91 LINE",
"-605 78 LINE",
"-618 97 OFFCURVE",
"-622 117 OFFCURVE",
"-617 173 CURVE SMOOTH",
"-604 320 LINE SMOOTH",
"-592 455 OFFCURVE",
"-672 513 OFFCURVE",
"-774 513 CURVE SMOOTH",
"-826 513 OFFCURVE",
"-879 499 OFFCURVE",
"-933 475 CURVE",
"-985 310 LINE",
"-956 298 LINE",
"-936 344 LINE",
"-911 355 OFFCURVE",
"-878 361 OFFCURVE",
"-847 361 CURVE SMOOTH",
"-779 361 OFFCURVE",
"-751 323 OFFCURVE",
"-756 256 CURVE SMOOTH",
"-766 125 LINE SMOOTH",
"-771 58 OFFCURVE",
"-758 13 OFFCURVE",
"-719 -16 CURVE"
);
},
{
closed = 1;
nodes = (
"-719 230 LINE",
"-983 187 LINE",
"-993 166 OFFCURVE",
"-1001 128 OFFCURVE",
"-1001 97 CURVE SMOOTH",
"-1001 33 OFFCURVE",
"-958 -15 OFFCURVE",
"-900 -15 CURVE SMOOTH",
"-849 -15 OFFCURVE",
"-774 22 OFFCURVE",
"-718 65 CURVE",
"-731 101 LINE",
"-756 77 OFFCURVE",
"-783 65 OFFCURVE",
"-801 65 CURVE SMOOTH",
"-820 65 OFFCURVE",
"-843 83 OFFCURVE",
"-843 127 CURVE SMOOTH",
"-843 142 OFFCURVE",
"-841 157 OFFCURVE",
"-838 167 CURVE",
"-723 195 LINE"
);
},
{
closed = 1;
nodes = (
"-75 52 LINE",
"-87 81 LINE",
"-118 69 LINE",
"-130 88 OFFCURVE",
"-133 101 OFFCURVE",
"-129 155 CURVE SMOOTH",
"-119 290 LINE SMOOTH",
"-110 418 OFFCURVE",
"-187 465 OFFCURVE",
"-276 465 CURVE SMOOTH",
"-321 465 OFFCURVE",
"-370 453 OFFCURVE",
"-419 432 CURVE",
"-465 288 LINE",
"-438 278 LINE",
"-422 312 LINE",
"-400 322 OFFCURVE",
"-368 328 OFFCURVE",
"-342 328 CURVE SMOOTH",
"-279 328 OFFCURVE",
"-255 290 OFFCURVE",
"-258 232 CURVE SMOOTH",
"-265 112 LINE SMOOTH",
"-269 51 OFFCURVE",
"-258 9 OFFCURVE",
"-222 -17 CURVE"
);
},
{
closed = 1;
nodes = (
"-224 208 LINE",
"-466 169 LINE",
"-475 150 OFFCURVE",
"-482 114 OFFCURVE",
"-482 88 CURVE SMOOTH",
"-482 28 OFFCURVE",
"-443 -15 OFFCURVE",
"-389 -15 CURVE SMOOTH",
"-343 -15 OFFCURVE",
"-274 18 OFFCURVE",
"-223 57 CURVE",
"-235 90 LINE",
"-258 68 OFFCURVE",
"-283 57 OFFCURVE",
"-299 57 CURVE SMOOTH",
"-317 57 OFFCURVE",
"-337 72 OFFCURVE",
"-337 116 CURVE SMOOTH",
"-337 126 OFFCURVE",
"-336 141 OFFCURVE",
"-333 151 CURVE",
"-228 176 LINE"
);
},
{
closed = 1;
nodes = (
"425 52 LINE",
"413 81 LINE",
"382 69 LINE",
"370 88 OFFCURVE",
"367 101 OFFCURVE",
"371 155 CURVE SMOOTH",
"381 290 LINE SMOOTH",
"390 418 OFFCURVE",
"313 465 OFFCURVE",
"224 465 CURVE SMOOTH",
"179 465 OFFCURVE",
"130 453 OFFCURVE",
"81 432 CURVE",
"35 288 LINE",
"62 278 LINE",
"78 312 LINE",
"100 322 OFFCURVE",
"132 328 OFFCURVE",
"158 328 CURVE SMOOTH",
"221 328 OFFCURVE",
"245 290 OFFCURVE",
"242 232 CURVE SMOOTH",
"235 112 LINE SMOOTH",
"231 51 OFFCURVE",
"242 9 OFFCURVE",
"278 -17 CURVE"
);
},
{
closed = 1;
nodes = (
"276 208 LINE",
"34 169 LINE",
"25 150 OFFCURVE",
"18 114 OFFCURVE",
"18 88 CURVE SMOOTH",
"18 28 OFFCURVE",
"57 -15 OFFCURVE",
"111 -15 CURVE SMOOTH",
"157 -15 OFFCURVE",
"226 18 OFFCURVE",
"277 57 CURVE",
"265 90 LINE",
"242 68 OFFCURVE",
"217 57 OFFCURVE",
"201 57 CURVE SMOOTH",
"183 57 OFFCURVE",
"163 72 OFFCURVE",
"163 116 CURVE SMOOTH",
"163 126 OFFCURVE",
"164 141 OFFCURVE",
"167 151 CURVE",
"272 176 LINE"
);
}
);
};
guideLines = (
{
angle = 269.648;
position = "{222, 498}";
}
);
layerId = "FABFC9D4-E17A-4CB6-8F8E-4923CD579275";
name = Regular;
paths = (
{
closed = 1;
nodes = (
"428 52 LINE",
"416 81 LINE",
"385 69 LINE",
"373 88 OFFCURVE",
"370 101 OFFCURVE",
"374 155 CURVE SMOOTH",
"384 290 LINE SMOOTH",
"393 418 OFFCURVE",
"315 465 OFFCURVE",
"224 465 CURVE SMOOTH",
"178 465 OFFCURVE",
"127 453 OFFCURVE",
"78 432 CURVE",
"32 288 LINE",
"59 278 LINE",
"75 312 LINE",
"97 322 OFFCURVE",
"131 328 OFFCURVE",
"158 328 CURVE SMOOTH",
"223 328 OFFCURVE",
"248 290 OFFCURVE",
"245 232 CURVE SMOOTH",
"238 112 LINE SMOOTH",
"234 51 OFFCURVE",
"245 9 OFFCURVE",
"281 -17 CURVE"
);
},
{
closed = 1;
nodes = (
"276 208 LINE",
"31 169 LINE",
"22 150 OFFCURVE",
"15 114 OFFCURVE",
"15 88 CURVE SMOOTH",
"15 28 OFFCURVE",
"54 -15 OFFCURVE",
"108 -15 CURVE SMOOTH",
"154 -15 OFFCURVE",
"225 18 OFFCURVE",
"277 57 CURVE",
"265 90 LINE",
"242 68 OFFCURVE",
"217 57 OFFCURVE",
"201 57 CURVE SMOOTH",
"182 57 OFFCURVE",
"160 72 OFFCURVE",
"160 116 CURVE SMOOTH",
"160 126 OFFCURVE",
"161 141 OFFCURVE",
"164 151 CURVE",
"272 176 LINE"
);
}
);
width = 428;
}
);
leftKerningGroup = a;
rightKerningGroup = a;
unicode = 0061;
},
{
glyphname = aogonek;
lastChange = "2016-02-22 12:49:18 +0000";
layers = (
{
anchors = (
{
name = _ogonek;
position = "{411, -37}";
}
);
components = (
{
name = a;
}
);
layerId = "FABFC9D4-E17A-4CB6-8F8E-4923CD579275";
name = Regular;
paths = (
{
closed = 1;
nodes = (
"302 12 OFFCURVE",
"243 -61 OFFCURVE",
"243 -133 CURVE SMOOTH",
"243 -202 OFFCURVE",
"290 -251 OFFCURVE",
"355 -251 CURVE SMOOTH",
"394 -251 OFFCURVE",
"427 -237 OFFCURVE",
"453 -218 CURVE",
"445 -193 LINE",
"378 -201 OFFCURVE",
"346 -157 OFFCURVE",
"346 -102 CURVE SMOOTH",
"346 -44 OFFCURVE",
"382 20 OFFCURVE",
"446 52 CURVE",
"431 52 LINE"
);
}
);
width = 460;
}
);
leftKerningGroup = a;
rightKerningGroup = a;
unicode = 0105;
},
{
glyphname = ae;
lastChange = "2016-02-22 12:49:18 +0000";
layers = (
{
background = {
paths = (
{
closed = 1;
nodes = (
"274 208 LINE",
"32 169 LINE",
"23 150 OFFCURVE",
"16 114 OFFCURVE",
"16 88 CURVE SMOOTH",
"16 28 OFFCURVE",
"55 -15 OFFCURVE",
"109 -15 CURVE SMOOTH",
"161 -15 OFFCURVE",
"244 14 OFFCURVE",
"297 52 CURVE",
"283 83 LINE",
"257 66 OFFCURVE",
"228 57 OFFCURVE",
"201 57 CURVE SMOOTH",
"175 57 OFFCURVE",
"161 79 OFFCURVE",
"161 116 CURVE SMOOTH",
"161 126 OFFCURVE",
"162 141 OFFCURVE",
"165 151 CURVE",
"270 176 LINE"
);
},
{
closed = 1;
nodes = (
"379 325 OFFCURVE",
"402 395 OFFCURVE",
"436 428 CURVE",
"416 425 LINE",
"460 424 OFFCURVE",
"494 355 OFFCURVE",
"496 263 CURVE",
"369 252 LINE",
"369 220 LINE",
"653 230 LINE",
"654 374 OFFCURVE",
"581 465 OFFCURVE",
"465 465 CURVE SMOOTH",
"309 465 OFFCURVE",
"244 355 OFFCURVE",
"244 209 CURVE",
"244 186 LINE SMOOTH",
"244 66 OFFCURVE",
"308 -15 OFFCURVE",
"435 -15 CURVE SMOOTH",
"521 -15 OFFCURVE",
"604 36 OFFCURVE",
"651 117 CURVE",
"633 133 LINE",
"602 114 OFFCURVE",
"561 103 OFFCURVE",
"521 103 CURVE SMOOTH",
"427 103 OFFCURVE",
"377 156 OFFCURVE",
"377 255 CURVE SMOOTH"
);
},
{
closed = 1;
nodes = (
"388 418 OFFCURVE",
"311 465 OFFCURVE",
"222 465 CURVE SMOOTH",
"177 465 OFFCURVE",
"128 453 OFFCURVE",
"79 432 CURVE",
"33 288 LINE",
"60 278 LINE",
"76 312 LINE",
"98 322 OFFCURVE",
"130 328 OFFCURVE",
"156 328 CURVE SMOOTH",
"223 328 OFFCURVE",
"248 290 OFFCURVE",
"244 209 CURVE",
"379 290 LINE"
);
}
);
};
layerId = "FABFC9D4-E17A-4CB6-8F8E-4923CD579275";
name = Regular;
paths = (
{
closed = 1;
nodes = (
"274 208 LINE",
"32 169 LINE",
"23 150 OFFCURVE",
"16 114 OFFCURVE",
"16 88 CURVE SMOOTH",
"16 28 OFFCURVE",
"55 -15 OFFCURVE",
"109 -15 CURVE SMOOTH",
"161 -15 OFFCURVE",
"244 16 OFFCURVE",
"297 59 CURVE",
"283 90 LINE",
"257 68 OFFCURVE",
"228 57 OFFCURVE",
"201 57 CURVE SMOOTH",
"175 57 OFFCURVE",
"161 79 OFFCURVE",
"161 116 CURVE SMOOTH",
"161 126 OFFCURVE",
"162 141 OFFCURVE",
"165 151 CURVE",
"270 176 LINE"
);
},
{
closed = 1;
nodes = (
"371 325 OFFCURVE",
"400 395 OFFCURVE",
"436 428 CURVE",
"416 425 LINE",
"456 424 OFFCURVE",
"486 355 OFFCURVE",
"488 263 CURVE",
"369 253 LINE",
"369 220 LINE",
"645 230 LINE",
"646 374 OFFCURVE",
"576 465 OFFCURVE",
"465 465 CURVE SMOOTH",
"316 465 OFFCURVE",
"241 372 OFFCURVE",
"241 186 CURVE SMOOTH",
"241 56 OFFCURVE",
"308 -15 OFFCURVE",
"435 -15 CURVE SMOOTH",
"518 -15 OFFCURVE",
"596 36 OFFCURVE",
"643 117 CURVE",
"625 133 LINE",
"594 114 OFFCURVE",
"558 103 OFFCURVE",
"521 103 CURVE SMOOTH",
"423 103 OFFCURVE",
"371 151 OFFCURVE",
"371 255 CURVE SMOOTH"
);
},
{
closed = 1;
nodes = (
"348 410 LINE",
"320 449 OFFCURVE",
"273 465 OFFCURVE",
"222 465 CURVE SMOOTH",
"177 465 OFFCURVE",
"128 453 OFFCURVE",
"79 432 CURVE",
"33 288 LINE",
"60 278 LINE",
"76 312 LINE",
"98 322 OFFCURVE",
"130 328 OFFCURVE",
"156 328 CURVE SMOOTH",
"221 328 OFFCURVE",
"242 290 OFFCURVE",
"241 209 CURVE",
"333 264 LINE"
);
}
);
width = 655;
}
);
leftKerningGroup = a;
rightKerningGroup = e;
unicode = 00E6;
},
{
glyphname = b;
lastChange = "2016-02-22 12:49:18 +0000";
layers = (
{
background = {
paths = (
{
closed = 1;
nodes = (
"-404 707 LINE",
"-587 647 LINE",
"-578 619 LINE",
"-540 627 LINE",
"-540 0 LINE",
"-515 0 LINE",
"-463 89 LINE",
"-404 142 LINE"
);
},
{
closed = 1;
nodes = (
"-141 121 OFFCURVE",
"-123 193 OFFCURVE",
"-123 262 CURVE SMOOTH",
"-123 388 OFFCURVE",
"-183 465 OFFCURVE",
"-305 465 CURVE",
"-427 322 LINE",
"-413 296 LINE",
"-359 350 LINE",
"-305 350 OFFCURVE",
"-263 310 OFFCURVE",
"-263 202 CURVE SMOOTH",
"-263 146 OFFCURVE",
"-274 86 OFFCURVE",
"-291 44 CURVE",
"-265 58 LINE",
"-309 68 OFFCURVE",
"-375 111 OFFCURVE",
"-424 177 CURVE",
"-477 66 LINE",
"-436 14 OFFCURVE",
"-351 -15 OFFCURVE",
"-315 -15 CURVE SMOOTH",
"-272 -15 OFFCURVE",
"-189 44 OFFCURVE",
"-165 83 CURVE SMOOTH"
);
},
{
closed = 1;
nodes = (
"196 707 LINE",
"13 647 LINE",
"22 619 LINE",
"60 627 LINE",
"60 37 LINE",
"196 58 LINE"
);
},
{
closed = 1;
nodes = (
"465 115 OFFCURVE",
"490 192 OFFCURVE",
"490 260 CURVE SMOOTH",
"490 378 OFFCURVE",
"411 465 OFFCURVE",
"295 465 CURVE",
"173 322 LINE",
"187 296 LINE",
"241 350 LINE",
"297 350 OFFCURVE",
"350 296 OFFCURVE",
"350 200 CURVE SMOOTH",
"350 145 OFFCURVE",
"339 85 OFFCURVE",
"314 44 CURVE",
"340 58 LINE",
"281 65 OFFCURVE",
"192 100 OFFCURVE",
"142 136 CURVE",
"61 37 LINE",
"107 12 OFFCURVE",
"223 -15 OFFCURVE",
"281 -15 CURVE SMOOTH",
"327 -15 OFFCURVE",
"409 38 OFFCURVE",
"434 73 CURVE"
);
}
);
};
layerId = "FABFC9D4-E17A-4CB6-8F8E-4923CD579275";
name = Regular;
paths = (
{
closed = 1;
nodes = (
"466 105 OFFCURVE",
"492 192 OFFCURVE",
"492 260 CURVE SMOOTH",
"492 378 OFFCURVE",
"412 465 OFFCURVE",
"295 465 CURVE",
"173 322 LINE",
"187 296 LINE",
"241 350 LINE",
"296 350 OFFCURVE",
"348 296 OFFCURVE",
"348 200 CURVE SMOOTH",
"348 145 OFFCURVE",
"338 85 OFFCURVE",
"314 44 CURVE",
"340 58 LINE",
"281 65 OFFCURVE",
"192 100 OFFCURVE",
"142 136 CURVE",
"57 37 LINE",
"104 12 OFFCURVE",
"222 -15 OFFCURVE",
"281 -15 CURVE SMOOTH",
"327 -15 OFFCURVE",
"409 28 OFFCURVE",
"434 63 CURVE"
);
},
{
closed = 1;
nodes = (
"198 59 LINE",
"205 684 LINE",
"191 708 LINE",
"6 652 LINE",
"16 623 LINE",
"54 631 LINE",
"57 37 LINE"
);
}
);
width = 504;
}
);
unicode = 0062;
},
{
glyphname = c;
lastChange = "2016-02-22 14:23:58 +0000";
layers = (
{
anchors = (
{
name = bottom;
position = "{221, -80}";
},
{
name = top;
position = "{247, 574}";
}
);
background = {
paths = (
{
closed = 1;
nodes = (
"-3270 -15 OFFCURVE",
"-3183 55 OFFCURVE",
"-3138 121 CURVE",
"-3160 142 LINE",
"-3208 123 OFFCURVE",
"-3245 116 OFFCURVE",
"-3282 116 CURVE SMOOTH",
"-3355 116 OFFCURVE",
"-3416 170 OFFCURVE",
"-3416 291 CURVE SMOOTH",
"-3416 368 OFFCURVE",
"-3396 435 OFFCURVE",
"-3375 468 CURVE",
"-3343 458 OFFCURVE",
"-3301 359 OFFCURVE",
"-3286 285 CURVE",
"-3134 339 LINE",
"-3154 441 OFFCURVE",
"-3219 512 OFFCURVE",
"-3330 510 CURVE SMOOTH",
"-3480 507 OFFCURVE",
"-3580 402 OFFCURVE",
"-3580 231 CURVE SMOOTH",
"-3580 78 OFFCURVE",
"-3484 -15 OFFCURVE",
"-3366 -15 CURVE SMOOTH"
);
},
{
closed = 1;
nodes = (
"-2664 -15 OFFCURVE",
"-2571 59 OFFCURVE",
"-2530 128 CURVE",
"-2554 148 LINE",
"-2596 126 OFFCURVE",
"-2628 116 OFFCURVE",
"-2668 116 CURVE SMOOTH",
"-2751 116 OFFCURVE",
"-2816 170 OFFCURVE",
"-2816 291 CURVE SMOOTH",
"-2816 368 OFFCURVE",
"-2796 435 OFFCURVE",
"-2775 468 CURVE",
"-2744 446 OFFCURVE",
"-2696 371 OFFCURVE",
"-2666 303 CURVE",
"-2540 381 LINE",
"-2574 451 OFFCURVE",
"-2649 510 OFFCURVE",
"-2730 510 CURVE SMOOTH",
"-2880 507 OFFCURVE",
"-2980 402 OFFCURVE",
"-2980 231 CURVE SMOOTH",
"-2980 78 OFFCURVE",
"-2884 -15 OFFCURVE",
"-2757 -15 CURVE SMOOTH"
);
},
{
closed = 1;
nodes = (
"-2164 105 OFFCURVE",
"-2228 154 OFFCURVE",
"-2228 265 CURVE SMOOTH",
"-2228 335 OFFCURVE",
"-2207 396 OFFCURVE",
"-2177 427 CURVE",
"-2149 407 OFFCURVE",
"-2106 338 OFFCURVE",
"-2079 276 CURVE",
"-1964 347 LINE",
"-1995 411 OFFCURVE",
"-2063 465 OFFCURVE",
"-2136 465 CURVE SMOOTH",
"-2195 465 OFFCURVE",
"-2246 451 OFFCURVE",
"-2298 425 CURVE",
"-2344 374 OFFCURVE",
"-2373 299 OFFCURVE",
"-2373 210 CURVE SMOOTH",
"-2373 71 OFFCURVE",
"-2283 -15 OFFCURVE",
"-2170 -15 CURVE SMOOTH",
"-2064 -15 OFFCURVE",
"-1983 55 OFFCURVE",
"-1945 124 CURVE",
"-1964 140 LINE",
"-1996 118 OFFCURVE",
"-2042 105 OFFCURVE",
"-2087 105 CURVE SMOOTH"
);
},
{
closed = 1;
nodes = (
"-1567 105 OFFCURVE",
"-1624 154 OFFCURVE",
"-1624 265 CURVE SMOOTH",
"-1624 347 OFFCURVE",
"-1597 417 OFFCURVE",
"-1562 440 CURVE",
"-1589 434 LINE",
"-1566 429 OFFCURVE",
"-1509 343 OFFCURVE",
"-1482 276 CURVE",
"-1369 347 LINE",
"-1400 411 OFFCURVE",
"-1465 465 OFFCURVE",
"-1536 465 CURVE SMOOTH",
"-1593 465 OFFCURVE",
"-1641 451 OFFCURVE",
"-1693 425 CURVE",
"-1739 374 OFFCURVE",
"-1768 299 OFFCURVE",
"-1768 210 CURVE SMOOTH",
"-1768 71 OFFCURVE",
"-1680 -15 OFFCURVE",
"-1570 -15 CURVE SMOOTH",
"-1466 -15 OFFCURVE",
"-1388 55 OFFCURVE",
"-1350 124 CURVE",
"-1369 140 LINE",
"-1401 118 OFFCURVE",
"-1447 105 OFFCURVE",
"-1492 105 CURVE SMOOTH"
);
},
{
closed = 1;
nodes = (
"-981 107 OFFCURVE",
"-1026 165 OFFCURVE",
"-1023 267 CURVE SMOOTH",
"-1021 343 OFFCURVE",
"-991 418 OFFCURVE",
"-954 440 CURVE",
"-982 435 LINE",
"-960 429 OFFCURVE",
"-906 343 OFFCURVE",
"-880 273 CURVE",
"-765 340 LINE",
"-802 421 OFFCURVE",
"-865 465 OFFCURVE",
"-944 465 CURVE SMOOTH",
"-989 465 OFFCURVE",
"-1041 452 OFFCURVE",
"-1086 430 CURVE",
"-1136 379 OFFCURVE",
"-1168 293 OFFCURVE",
"-1168 209 CURVE SMOOTH",
"-1168 75 OFFCURVE",
"-1089 -15 OFFCURVE",
"-971 -15 CURVE SMOOTH",
"-885 -15 OFFCURVE",
"-801 36 OFFCURVE",
"-754 117 CURVE",
"-772 133 LINE",
"-806 112 OFFCURVE",
"-852 101 OFFCURVE",
"-896 103 CURVE SMOOTH"
);
},
{
closed = 1;
nodes = (
"-281 107 OFFCURVE",
"-326 165 OFFCURVE",
"-323 267 CURVE SMOOTH",
"-321 343 OFFCURVE",
"-291 418 OFFCURVE",
"-254 440 CURVE",
"-282 435 LINE",
"-260 429 OFFCURVE",
"-206 343 OFFCURVE",
"-180 273 CURVE",
"-65 340 LINE",
"-102 421 OFFCURVE",
"-165 465 OFFCURVE",
"-244 465 CURVE SMOOTH",
"-289 465 OFFCURVE",
"-341 452 OFFCURVE",
"-386 430 CURVE",
"-436 379 OFFCURVE",
"-468 293 OFFCURVE",
"-468 209 CURVE SMOOTH",
"-468 75 OFFCURVE",
"-389 -15 OFFCURVE",
"-271 -15 CURVE SMOOTH",
"-185 -15 OFFCURVE",
"-101 36 OFFCURVE",
"-54 117 CURVE",
"-72 133 LINE",
"-106 112 OFFCURVE",
"-152 101 OFFCURVE",
"-196 103 CURVE SMOOTH"
);
},
{
closed = 1;
nodes = (
"209 100 OFFCURVE",
"161 156 OFFCURVE",
"164 267 CURVE SMOOTH",
"166 343 OFFCURVE",
"206 418 OFFCURVE",
"243 440 CURVE",
"215 435 LINE",
"237 429 OFFCURVE",
"291 343 OFFCURVE",
"317 273 CURVE",
"432 340 LINE",
"395 421 OFFCURVE",
"332 465 OFFCURVE",
"253 465 CURVE SMOOTH",
"208 465 OFFCURVE",
"156 452 OFFCURVE",
"111 430 CURVE",
"61 379 OFFCURVE",
"22 293 OFFCURVE",
"22 209 CURVE SMOOTH",
"22 72 OFFCURVE",
"99 -15 OFFCURVE",
"219 -15 CURVE SMOOTH",
"307 -15 OFFCURVE",
"385 40 OFFCURVE",
"432 137 CURVE",
"414 153 LINE",
"377 118 OFFCURVE",
"336 100 OFFCURVE",
"294 100 CURVE SMOOTH"
);
}
);
};
guideLines = (
{
position = "{15, 495}";
}
);
layerId = "FABFC9D4-E17A-4CB6-8F8E-4923CD579275";
name = Regular;
paths = (
{
closed = 1;
nodes = (
"209 100 OFFCURVE",
"161 156 OFFCURVE",
"164 267 CURVE SMOOTH",
"166 343 OFFCURVE",
"206 418 OFFCURVE",
"243 440 CURVE",
"215 435 LINE",
"237 429 OFFCURVE",
"291 343 OFFCURVE",
"317 273 CURVE",
"432 340 LINE",
"395 421 OFFCURVE",
"332 465 OFFCURVE",
"253 465 CURVE SMOOTH",
"208 465 OFFCURVE",
"156 452 OFFCURVE",
"111 430 CURVE",
"61 379 OFFCURVE",
"22 293 OFFCURVE",
"22 209 CURVE SMOOTH",
"22 72 OFFCURVE",
"99 -15 OFFCURVE",
"219 -15 CURVE SMOOTH",
"307 -15 OFFCURVE",
"384 44 OFFCURVE",
"431 127 CURVE",
"415 145 LINE",
"377 116 OFFCURVE",
"336 100 OFFCURVE",
"294 100 CURVE SMOOTH"
);
}
);
width = 434;
}
);
leftKerningGroup = c;
rightKerningGroup = c;
unicode = 0063;
},
{
glyphname = d;
lastChange = "2016-02-22 12:49:18 +0000";
layers = (
{
anchors = (
{
name = bottom;
position = "{263, -80}";
},
{
name = center;
position = "{250, 245}";
},
{
name = top;
position = "{376, 770}";
},
{
name = topright;
position = "{503, 670}";
}
);
background = {
paths = (
{
closed = 1;
nodes = (
"1566 1503 OFFCURVE",
"1515 1513 OFFCURVE",
"1459 1513 CURVE SMOOTH",
"1383 1513 OFFCURVE",
"1314 1471 OFFCURVE",
"1263 1415 CURVE",
"1239 1362 OFFCURVE",
"1226 1306 OFFCURVE",
"1226 1224 CURVE SMOOTH",
"1226 1067 OFFCURVE",
"1295 993 OFFCURVE",
"1383 993 CURVE SMOOTH",
"1452 993 OFFCURVE",
"1537 1066 OFFCURVE",
"1598 1138 CURVE",
"1586 1170 LINE",
"1566 1148 OFFCURVE",
"1520 1105 OFFCURVE",
"1488 1105 CURVE SMOOTH",
"1435 1105 OFFCURVE",
"1389 1144 OFFCURVE",
"1389 1283 CURVE SMOOTH",
"1389 1385 OFFCURVE",
"1394 1432 OFFCURVE",
"1400 1465 CURVE",
"1466 1471 OFFCURVE",
"1527 1462 OFFCURVE",
"1577 1432 CURVE",
"1619 1486 LINE"
);
},
{
closed = 1;
nodes = (
"1740 1077 LINE",
"1728 1109 LINE",
"1695 1093 LINE",
"1681 1111 OFFCURVE",
"1675 1131 OFFCURVE",
"1675 1187 CURVE SMOOTH",
"1675 1775 LINE",
"1530 1697 LINE",
"1530 1126 LINE SMOOTH",
"1530 1058 OFFCURVE",
"1548 1015 OFFCURVE",
"1590 990 CURVE"
);
},
{
closed = 1;
nodes = (
"-952 1467 OFFCURVE",
"-1002 1497 OFFCURVE",
"-1061 1513 CURVE",
"-1228 1476 LINE",
"-1253 1391 OFFCURVE",
"-1264 1315 OFFCURVE",
"-1264 1235 CURVE SMOOTH",
"-1264 1065 OFFCURVE",
"-1194 993 OFFCURVE",
"-1125 993 CURVE SMOOTH",
"-1054 993 OFFCURVE",
"-967 1064 OFFCURVE",
"-902 1138 CURVE",
"-914 1167 LINE",
"-936 1142 OFFCURVE",
"-984 1102 OFFCURVE",
"-1025 1102 CURVE SMOOTH",
"-1068 1102 OFFCURVE",
"-1101 1152 OFFCURVE",
"-1101 1269 CURVE SMOOTH",
"-1101 1344 OFFCURVE",
"-1093 1405 OFFCURVE",
"-1077 1467 CURVE",
"-1021 1455 OFFCURVE",
"-965 1429 OFFCURVE",
"-920 1396 CURVE",
"-900 1421 LINE"
);
},
{
closed = 1;
nodes = (
"-825 1685 OFFCURVE",
"-829 1751 OFFCURVE",
"-838 1800 CURVE",
"-1048 1694 LINE",
"-1038 1662 LINE",
"-983 1679 LINE",
"-975 1651 OFFCURVE",
"-970 1595 OFFCURVE",
"-970 1529 CURVE SMOOTH",
"-970 1126 LINE SMOOTH",
"-970 1058 OFFCURVE",
"-952 1015 OFFCURVE",
"-910 990 CURVE",
"-760 1077 LINE",
"-772 1109 LINE",
"-805 1093 LINE",
"-819 1111 OFFCURVE",
"-825 1131 OFFCURVE",
"-825 1187 CURVE SMOOTH",
"-825 1595 LINE SMOOTH"
);
},
{
closed = 1;
nodes = (
"-2177 1516 OFFCURVE",
"-2310 1514 OFFCURVE",
"-2428 1504 CURVE",
"-2453 1409 OFFCURVE",
"-2464 1324 OFFCURVE",
"-2464 1235 CURVE SMOOTH",
"-2464 1065 OFFCURVE",
"-2394 993 OFFCURVE",
"-2325 993 CURVE SMOOTH",
"-2254 993 OFFCURVE",
"-2167 1064 OFFCURVE",
"-2102 1138 CURVE",
"-2114 1167 LINE",
"-2136 1142 OFFCURVE",
"-2184 1102 OFFCURVE",
"-2225 1102 CURVE SMOOTH",
"-2268 1102 OFFCURVE",
"-2301 1152 OFFCURVE",
"-2301 1269 CURVE SMOOTH",
"-2301 1344 OFFCURVE",
"-2293 1405 OFFCURVE",
"-2277 1467 CURVE",
"-2221 1468 OFFCURVE",
"-2168 1467 OFFCURVE",
"-2116 1464 CURVE",
"-2108 1502 LINE"
);
},
{
closed = 1;
nodes = (
"-2025 1685 OFFCURVE",
"-2029 1751 OFFCURVE",
"-2038 1800 CURVE",
"-2248 1694 LINE",
"-2238 1662 LINE",
"-2183 1679 LINE",
"-2175 1654 OFFCURVE",
"-2170 1603 OFFCURVE",
"-2170 1544 CURVE SMOOTH",
"-2170 1126 LINE SMOOTH",
"-2170 1058 OFFCURVE",
"-2152 1015 OFFCURVE",
"-2110 990 CURVE",
"-1960 1077 LINE",
"-1972 1109 LINE",
"-2005 1093 LINE",
"-2019 1111 OFFCURVE",
"-2025 1131 OFFCURVE",
"-2025 1187 CURVE SMOOTH",
"-2025 1595 LINE SMOOTH"
);
},
{
closed = 1;
nodes = (
"-1561 1186 LINE",
"-1590 1150 OFFCURVE",
"-1621 1125 OFFCURVE",
"-1644 1113 CURVE",
"-1674 1113 OFFCURVE",
"-1701 1153 OFFCURVE",
"-1701 1269 CURVE SMOOTH",
"-1701 1344 OFFCURVE",
"-1693 1405 OFFCURVE",
"-1677 1467 CURVE",
"-1637 1470 OFFCURVE",
"-1564 1461 OFFCURVE",
"-1511 1443 CURVE",
"-1501 1474 LINE",
"-1548 1498 OFFCURVE",
"-1597 1513 OFFCURVE",
"-1661 1513 CURVE SMOOTH",
"-1717 1513 OFFCURVE",
"-1790 1494 OFFCURVE",
"-1828 1476 CURVE",
"-1853 1391 OFFCURVE",
"-1864 1315 OFFCURVE",
"-1864 1235 CURVE SMOOTH",
"-1864 1065 OFFCURVE",
"-1794 993 OFFCURVE",
"-1725 993 CURVE",
"-1657 1036 OFFCURVE",
"-1592 1092 OFFCURVE",
"-1544 1153 CURVE"
);
},
{
closed = 1;
nodes = (
"-1425 1685 OFFCURVE",
"-1429 1751 OFFCURVE",
"-1438 1800 CURVE",
"-1648 1694 LINE",
"-1638 1662 LINE",
"-1583 1679 LINE",
"-1575 1651 OFFCURVE",
"-1570 1595 OFFCURVE",
"-1570 1529 CURVE SMOOTH",
"-1570 1126 LINE SMOOTH",
"-1570 1058 OFFCURVE",
"-1552 1015 OFFCURVE",
"-1510 990 CURVE",
"-1360 1077 LINE",
"-1372 1109 LINE",
"-1405 1093 LINE",
"-1419 1111 OFFCURVE",
"-1425 1131 OFFCURVE",
"-1425 1187 CURVE SMOOTH",
"-1425 1595 LINE SMOOTH"
);
},
{
closed = 1;
nodes = (
"2123 1126 LINE SMOOTH",
"2123 1058 OFFCURVE",
"2143 1015 OFFCURVE",
"2190 990 CURVE",
"2340 1077 LINE",
"2328 1109 LINE",
"2295 1093 LINE",
"2281 1111 OFFCURVE",
"2275 1131 OFFCURVE",
"2275 1187 CURVE SMOOTH",
"2275 1790 LINE",
"2061 1709 LINE",
"2071 1677 LINE",
"2123 1688 LINE"
);
},
{
closed = 1;
nodes = (
"1964 1511 LINE",
"1830 1400 LINE",
"1815 1362 OFFCURVE",
"1808 1328 OFFCURVE",
"1808 1270 CURVE SMOOTH",
"1808 1118 OFFCURVE",
"1927 1017 OFFCURVE",
"2019 990 CURVE",
"2090 1034 OFFCURVE",
"2158 1097 OFFCURVE",
"2221 1155 CURVE",
"2200 1178 LINE",
"2164 1146 OFFCURVE",
"2129 1123 OFFCURVE",
"2093 1108 CURVE",
"2007 1170 OFFCURVE",
"1967 1242 OFFCURVE",
"1967 1359 CURVE SMOOTH",
"1967 1369 OFFCURVE",
"1969 1380 OFFCURVE",
"1970 1390 CURVE",
"2184 1394 LINE",
"2159 1513 LINE"
);
},
{
closed = 1;
nodes = (
"2766 1503 OFFCURVE",
"2705 1515 OFFCURVE",
"2644 1515 CURVE SMOOTH",
"2625 1515 OFFCURVE",
"2605 1514 OFFCURVE",
"2587 1511 CURVE",
"2453 1412 LINE",
"2441 1353 OFFCURVE",
"2433 1294 OFFCURVE",
"2433 1225 CURVE SMOOTH",
"2433 1065 OFFCURVE",
"2506 993 OFFCURVE",
"2575 993 CURVE SMOOTH",
"2626 993 OFFCURVE",
"2733 1060 OFFCURVE",
"2798 1125 CURVE",
"2786 1156 LINE",
"2764 1134 OFFCURVE",
"2716 1098 OFFCURVE",
"2675 1098 CURVE SMOOTH",
"2632 1098 OFFCURVE",
"2596 1152 OFFCURVE",
"2596 1269 CURVE SMOOTH",
"2596 1342 OFFCURVE",
"2607 1393 OFFCURVE",
"2622 1455 CURVE",
"2582 1395 LINE",
"2656 1399 OFFCURVE",
"2717 1394 OFFCURVE",
"2780 1379 CURVE",
"2796 1483 LINE"
);
},
{
closed = 1;
nodes = (
"2875 1685 OFFCURVE",
"2871 1751 OFFCURVE",
"2862 1800 CURVE",
"2652 1694 LINE",
"2662 1662 LINE",
"2717 1679 LINE",
"2725 1654 OFFCURVE",
"2730 1603 OFFCURVE",
"2730 1544 CURVE SMOOTH",
"2730 1126 LINE SMOOTH",
"2730 1058 OFFCURVE",
"2748 1015 OFFCURVE",
"2790 990 CURVE",
"2942 1079 LINE",
"2928 1109 LINE",
"2895 1093 LINE",
"2881 1111 OFFCURVE",
"2875 1131 OFFCURVE",
"2875 1187 CURVE SMOOTH",
"2875 1595 LINE SMOOTH"
);
},
{
closed = 1;
nodes = (
"3132 1342 OFFCURVE",
"3125 1269 OFFCURVE",
"3125 1225 CURVE SMOOTH",
"3125 1061 OFFCURVE",
"3200 986 OFFCURVE",
"3311 986 CURVE",
"3473 1128 LINE",
"3466 1159 LINE",
"3389 1105 LINE",
"3322 1105 OFFCURVE",
"3270 1158 OFFCURVE",
"3270 1293 CURVE SMOOTH",
"3270 1333 OFFCURVE",
"3274 1380 OFFCURVE",
"3279 1418 CURVE",
"3218 1382 LINE",
"3321 1394 OFFCURVE",
"3391 1384 OFFCURVE",
"3478 1348 CURVE",
"3498 1492 LINE",
"3456 1507 OFFCURVE",
"3412 1516 OFFCURVE",
"3368 1516 CURVE SMOOTH",
"3310 1516 OFFCURVE",
"3255 1505 OFFCURVE",
"3218 1490 CURVE",
"3143 1394 LINE"
);
},
{
closed = 1;
nodes = (
"3575 1790 LINE",
"3371 1724 LINE",
"3381 1692 LINE",
"3423 1701 LINE",
"3423 1125 LINE",
"3423 1057 OFFCURVE",
"3441 1015 OFFCURVE",
"3483 990 CURVE",
"3642 1079 LINE",
"3628 1109 LINE",
"3595 1093 LINE",
"3581 1111 OFFCURVE",
"3575 1131 OFFCURVE",
"3575 1187 CURVE"
);
},
{
closed = 1;
nodes = (
"642 1314 OFFCURVE",
"636 1243 OFFCURVE",
"636 1200 CURVE SMOOTH",
"636 1053 OFFCURVE",
"709 986 OFFCURVE",
"818 986 CURVE",
"963 1113 LINE",
"957 1141 LINE",
"888 1096 LINE",
"820 1096 OFFCURVE",
"768 1139 OFFCURVE",
"768 1264 CURVE SMOOTH",
"768 1296 OFFCURVE",
"771 1339 OFFCURVE",
"776 1373 CURVE",
"726 1357 LINE",
"793 1353 OFFCURVE",
"893 1336 OFFCURVE",
"967 1310 CURVE",
"985 1440 LINE",
"943 1453 OFFCURVE",
"887 1461 OFFCURVE",
"860 1461 CURVE SMOOTH",
"784 1461 OFFCURVE",
"676 1398 OFFCURVE",
"652 1364 CURVE"
);
},
{
closed = 1;
nodes = (
"1054 1707 LINE",
"871 1647 LINE",
"880 1619 LINE",
"918 1627 LINE",
"918 1111 LINE",
"918 1050 OFFCURVE",
"934 1012 OFFCURVE",
"972 990 CURVE",
"1114 1069 LINE",
"1102 1096 LINE",
"1072 1082 LINE",
"1060 1098 OFFCURVE",
"1054 1116 OFFCURVE",
"1054 1166 CURVE"
);
},
{
closed = 1;
nodes = (
"-146 1707 LINE",
"-329 1647 LINE",
"-320 1619 LINE",
"-282 1627 LINE",
"-282 1111 LINE",
"-282 1050 OFFCURVE",
"-266 1012 OFFCURVE",
"-228 990 CURVE",
"-86 1069 LINE",
"-98 1096 LINE",
"-128 1082 LINE",
"-140 1098 OFFCURVE",
"-146 1116 OFFCURVE",
"-146 1166 CURVE"
);
},
{
closed = 1;
nodes = (
"-547 1327 OFFCURVE",
"-563 1246 OFFCURVE",
"-563 1196 CURVE SMOOTH",
"-563 1058 OFFCURVE",
"-503 985 OFFCURVE",
"-381 985 CURVE",
"-259 1128 LINE",
"-273 1154 LINE",
"-327 1100 LINE",
"-381 1100 OFFCURVE",
"-423 1143 OFFCURVE",
"-423 1244 CURVE SMOOTH",
"-423 1308 OFFCURVE",
"-412 1363 OFFCURVE",
"-395 1406 CURVE",
"-421 1392 LINE",
"-377 1382 OFFCURVE",
"-311 1339 OFFCURVE",
"-262 1273 CURVE",
"-209 1384 LINE",
"-250 1434 OFFCURVE",
"-323 1465 OFFCURVE",
"-385 1465 CURVE SMOOTH",
"-411 1465 OFFCURVE",
"-501 1401 OFFCURVE",
"-521 1367 CURVE"
);
},
{
closed = 1;
nodes = (
"49 1331 OFFCURVE",
"27 1263 OFFCURVE",
"27 1198 CURVE SMOOTH",
"27 1066 OFFCURVE",
"90 985 OFFCURVE",
"219 985 CURVE",
"341 1128 LINE",
"327 1154 LINE",
"273 1100 LINE",
"213 1100 OFFCURVE",
"167 1143 OFFCURVE",
"167 1258 CURVE SMOOTH",
"167 1310 OFFCURVE",
"182 1367 OFFCURVE",
"205 1406 CURVE",
"179 1392 LINE",
"238 1385 OFFCURVE",
"323 1350 OFFCURVE",
"372 1314 CURVE",
"453 1413 LINE",
"408 1438 OFFCURVE",
"296 1465 OFFCURVE",
"238 1465 CURVE SMOOTH",
"192 1465 OFFCURVE",
"104 1406 OFFCURVE",
"79 1367 CURVE SMOOTH"
);
},
{
closed = 1;
nodes = (
"454 1707 LINE",
"271 1647 LINE",
"280 1619 LINE",
"318 1627 LINE",
"318 1111 LINE",
"318 1050 OFFCURVE",
"334 1012 OFFCURVE",
"372 990 CURVE",
"514 1069 LINE",
"502 1096 LINE",
"472 1082 LINE",
"460 1098 OFFCURVE",
"454 1116 OFFCURVE",
"454 1166 CURVE"
);
},
{
closed = 1;
nodes = (
"454 707 LINE",
"271 647 LINE",
"280 619 LINE",
"318 627 LINE",
"318 111 LINE",
"318 50 OFFCURVE",
"334 12 OFFCURVE",
"372 -10 CURVE",
"514 69 LINE",
"502 96 LINE",
"472 82 LINE",
"460 98 OFFCURVE",
"454 116 OFFCURVE",
"454 166 CURVE"
);
},
{
closed = 1;
nodes = (
"49 335 OFFCURVE",
"24 258 OFFCURVE",
"24 190 CURVE SMOOTH",
"24 72 OFFCURVE",
"103 -15 OFFCURVE",
"219 -15 CURVE",
"341 128 LINE",
"327 154 LINE",
"273 100 LINE",
"217 100 OFFCURVE",
"164 154 OFFCURVE",
"164 250 CURVE SMOOTH",
"164 305 OFFCURVE",
"175 365 OFFCURVE",
"200 406 CURVE",
"174 392 LINE",
"233 385 OFFCURVE",
"322 350 OFFCURVE",
"372 314 CURVE",
"453 413 LINE",
"407 438 OFFCURVE",
"291 465 OFFCURVE",
"233 465 CURVE SMOOTH",
"187 465 OFFCURVE",
"105 412 OFFCURVE",
"80 377 CURVE"
);
}
);
};
backgroundImage = {
crop = "{{0, 0}, {1080, 720}}";
imagePath = "../../Pictures/Photo Booth Library/Pictures/Photo on 03-09-2015 at 17.42.jpg";
locked = "1";
transform = "{-3.088, -0, 0, 3.088, 2066, -804}";
};
layerId = "FABFC9D4-E17A-4CB6-8F8E-4923CD579275";
name = Regular;
paths = (
{
closed = 1;
nodes = (
"318 50 OFFCURVE",
"334 12 OFFCURVE",
"372 -10 CURVE",
"518 69 LINE",
"506 96 LINE",
"476 82 LINE",
"464 98 OFFCURVE",
"458 116 OFFCURVE",
"458 166 CURVE",
"464 684 LINE",
"450 708 LINE",
"265 652 LINE",
"275 623 LINE",
"313 631 LINE",
"318 111 LINE"
);
},
{
closed = 1;
nodes = (
"48 345 OFFCURVE",
"22 258 OFFCURVE",
"22 190 CURVE SMOOTH",
"22 72 OFFCURVE",
"102 -15 OFFCURVE",
"219 -15 CURVE",
"341 128 LINE",
"327 154 LINE",
"273 100 LINE",
"218 100 OFFCURVE",
"166 154 OFFCURVE",
"166 250 CURVE SMOOTH",
"166 305 OFFCURVE",
"176 365 OFFCURVE",
"200 406 CURVE",
"174 392 LINE",
"233 385 OFFCURVE",
"322 350 OFFCURVE",
"372 314 CURVE",
"453 413 LINE",
"407 438 OFFCURVE",
"291 465 OFFCURVE",
"233 465 CURVE SMOOTH",
"187 465 OFFCURVE",
"105 422 OFFCURVE",
"80 387 CURVE"
);
}
);
width = 522;
}
);
unicode = 0064;
},
{
glyphname = eth;
lastChange = "2016-02-22 12:49:18 +0000";
layers = (
{
background = {
paths = (
{
closed = 1;
nodes = (
"305 466 LINE",
"218 466 OFFCURVE",
"140 434 OFFCURVE",
"88 396 CURVE",
"44 343 OFFCURVE",
"22 270 OFFCURVE",
"22 212 CURVE SMOOTH",
"22 63 OFFCURVE",
"117 -15 OFFCURVE",
"249 -15 CURVE SMOOTH",
"317 -15 OFFCURVE",
"378 16 OFFCURVE",
"418 54 CURVE",
"467 107 OFFCURVE",
"489 180 OFFCURVE",
"489 268 CURVE SMOOTH",
"489 459 OFFCURVE",
"322 671 OFFCURVE",
"102 705 CURVE",
"94 670 LINE",
"235 592 OFFCURVE",
"339 415 OFFCURVE",
"339 222 CURVE SMOOTH",
"339 140 OFFCURVE",
"332 86 OFFCURVE",
"322 47 CURVE",
"365 67 LINE",
"242 67 OFFCURVE",
"166 116 OFFCURVE",
"166 260 CURVE SMOOTH",
"166 291 OFFCURVE",
"174 360 OFFCURVE",
"188 403 CURVE",
"144 383 LINE",
"201 388 OFFCURVE",
"297 383 OFFCURVE",
"359 375 CURVE"
);
},
{
closed = 1;
nodes = (
"145 493 LINE",
"380 658 LINE",
"361 702 LINE",
"127 527 LINE"
);
}
);
};
layerId = "FABFC9D4-E17A-4CB6-8F8E-4923CD579275";
name = Regular;
paths = (
{
closed = 1;
nodes = (
"305 446 LINE",
"218 446 OFFCURVE",
"140 414 OFFCURVE",
"88 376 CURVE",
"44 323 OFFCURVE",
"22 260 OFFCURVE",
"22 207 CURVE SMOOTH",
"22 58 OFFCURVE",
"117 -15 OFFCURVE",
"249 -15 CURVE SMOOTH",
"317 -15 OFFCURVE",
"378 16 OFFCURVE",
"418 54 CURVE",
"467 107 OFFCURVE",
"489 180 OFFCURVE",
"489 268 CURVE SMOOTH",
"489 459 OFFCURVE",
"322 671 OFFCURVE",
"102 705 CURVE",
"94 670 LINE",
"235 592 OFFCURVE",
"339 415 OFFCURVE",
"339 222 CURVE SMOOTH",
"339 140 OFFCURVE",
"332 86 OFFCURVE",
"322 47 CURVE",
"365 67 LINE",
"242 67 OFFCURVE",
"166 111 OFFCURVE",
"166 255 CURVE SMOOTH",
"166 283 OFFCURVE",
"174 340 OFFCURVE",
"188 383 CURVE",
"144 363 LINE",
"201 368 OFFCURVE",
"297 363 OFFCURVE",
"359 355 CURVE"
);
},
{
closed = 1;
nodes = (
"145 493 LINE",
"380 658 LINE",
"361 702 LINE",
"127 527 LINE"
);
}
);
width = 501;
}
);
unicode = 00F0;
},
{
glyphname = e;
lastChange = "2016-02-22 14:25:27 +0000";
layers = (
{
anchors = (
{
name = bottom;
position = "{229, -80}";
},
{
name = ogonek;
position = "{415, 50}";
},
{
name = top;
position = "{241, 574}";
}
);
background = {
paths = (
{
closed = 1;
nodes = (
"-1542 1313 OFFCURVE",
"-1646 1205 OFFCURVE",
"-1646 1043 CURVE SMOOTH",
"-1646 878 OFFCURVE",
"-1539 785 OFFCURVE",
"-1391 785 CURVE SMOOTH",
"-1330 785 OFFCURVE",
"-1274 801 OFFCURVE",
"-1246 813 CURVE",
"-1214 983 LINE",
"-1246 993 LINE",
"-1264 930 LINE",
"-1280 925 OFFCURVE",
"-1308 921 OFFCURVE",
"-1331 921 CURVE SMOOTH",
"-1417 921 OFFCURVE",
"-1483 988 OFFCURVE",
"-1483 1128 CURVE SMOOTH",
"-1483 1223 OFFCURVE",
"-1453 1265 OFFCURVE",
"-1430 1265 CURVE SMOOTH",
"-1391 1265 OFFCURVE",
"-1374 1136 OFFCURVE",
"-1374 1091 CURVE",
"-1504 1071 LINE",
"-1505 1030 LINE",
"-1203 1075 LINE",
"-1203 1216 OFFCURVE",
"-1275 1313 OFFCURVE",
"-1405 1313 CURVE SMOOTH"
);
},
{
closed = 1;
nodes = (
"360 1313 OFFCURVE",
"248 1309 OFFCURVE",
"210 1274 CURVE",
"171 1228 OFFCURVE",
"134 1156 OFFCURVE",
"134 1047 CURVE SMOOTH",
"134 871 OFFCURVE",
"231 785 OFFCURVE",
"372 785 CURVE SMOOTH",
"503 785 OFFCURVE",
"570 862 OFFCURVE",
"597 909 CURVE",
"572 929 LINE",
"548 898 OFFCURVE",
"505 853 OFFCURVE",
"444 853 CURVE SMOOTH",
"355 853 OFFCURVE",
"307 940 OFFCURVE",
"307 1058 CURVE SMOOTH",
"307 1173 OFFCURVE",
"352 1252 OFFCURVE",
"370 1265 CURVE",
"400 1265 OFFCURVE",
"417 1224 OFFCURVE",
"417 1142 CURVE SMOOTH",
"417 1107 OFFCURVE",
"413 1069 OFFCURVE",
"410 1054 CURVE",
"297 1048 LINE",
"293 1011 LINE",
"567 1024 LINE",
"576 1051 OFFCURVE",
"581 1093 OFFCURVE",
"581 1130 CURVE SMOOTH",
"581 1235 OFFCURVE",
"540 1313 OFFCURVE",
"393 1313 CURVE SMOOTH"
);
},
{
closed = 1;
nodes = (
"1075 785 OFFCURVE",
"1164 842 OFFCURVE",
"1206 925 CURVE",
"1179 943 LINE",
"1142 886 OFFCURVE",
"1090 853 OFFCURVE",
"1041 853 CURVE SMOOTH",
"958 853 OFFCURVE",
"907 934 OFFCURVE",
"907 1065 CURVE SMOOTH",
"907 1119 OFFCURVE",
"914 1168 OFFCURVE",
"933 1197 CURVE",
"937 1200 OFFCURVE",
"945 1202 OFFCURVE",
"953 1202 CURVE SMOOTH",
"989 1202 OFFCURVE",
"1014 1152 OFFCURVE",
"1013 1101 CURVE SMOOTH",
"1013 1092 OFFCURVE",
"1012 1083 OFFCURVE",
"1010 1074 CURVE",
"897 1068 LINE",
"893 1031 LINE",
"1167 1044 LINE",
"1176 1069 OFFCURVE",
"1181 1105 OFFCURVE",
"1181 1137 CURVE SMOOTH",
"1181 1245 OFFCURVE",
"1115 1313 OFFCURVE",
"1012 1313 CURVE SMOOTH",
"933 1313 OFFCURVE",
"834 1266 OFFCURVE",
"771 1208 CURVE",
"744 1155 OFFCURVE",
"734 1112 OFFCURVE",
"734 1050 CURVE SMOOTH",
"734 883 OFFCURVE",
"823 785 OFFCURVE",
"967 785 CURVE SMOOTH"
);
},
{
closed = 1;
nodes = (
"-1817 785 OFFCURVE",
"-1722 881 OFFCURVE",
"-1692 978 CURVE",
"-1720 993 LINE",
"-1760 934 OFFCURVE",
"-1802 916 OFFCURVE",
"-1861 916 CURVE SMOOTH",
"-1944 916 OFFCURVE",
"-2002 974 OFFCURVE",
"-2002 1084 CURVE SMOOTH",
"-2002 1119 OFFCURVE",
"-1997 1208 OFFCURVE",
"-1989 1237 CURVE",
"-1948 1237 OFFCURVE",
"-1914 1145 OFFCURVE",
"-1914 1100 CURVE",
"-2008 1083 LINE",
"-2007 1046 LINE",
"-1741 1079 LINE",
"-1736 1227 OFFCURVE",
"-1818 1312 OFFCURVE",
"-1926 1310 CURVE SMOOTH",
"-2002 1309 OFFCURVE",
"-2090 1275 OFFCURVE",
"-2137 1214 CURVE",
"-2153 1172 OFFCURVE",
"-2166 1110 OFFCURVE",
"-2166 1034 CURVE SMOOTH",
"-2166 883 OFFCURVE",
"-2080 785 OFFCURVE",
"-1942 785 CURVE SMOOTH"
);
},
{
closed = 1;
nodes = (
"1653 785 OFFCURVE",
"1763 881 OFFCURVE",
"1808 978 CURVE",
"1780 993 LINE",
"1750 949 OFFCURVE",
"1690 916 OFFCURVE",
"1649 916 CURVE SMOOTH",
"1576 916 OFFCURVE",
"1508 970 OFFCURVE",
"1508 1071 CURVE SMOOTH",
"1508 1153 OFFCURVE",
"1527 1209 OFFCURVE",
"1551 1237 CURVE",
"1584 1208 OFFCURVE",
"1606 1155 OFFCURVE",
"1619 1102 CURVE",
"1478 1079 LINE",
"1479 1042 LINE",
"1779 1079 LINE",
"1779 1207 OFFCURVE",
"1702 1312 OFFCURVE",
"1594 1310 CURVE SMOOTH",
"1541 1309 OFFCURVE",
"1448 1277 OFFCURVE",
"1403 1237 CURVE",
"1374 1188 OFFCURVE",
"1344 1116 OFFCURVE",
"1344 1021 CURVE SMOOTH",
"1344 878 OFFCURVE",
"1440 785 OFFCURVE",
"1558 785 CURVE SMOOTH"
);
},
{
closed = 1;
nodes = (
"-2445 785 OFFCURVE",
"-2359 859 OFFCURVE",
"-2316 928 CURVE",
"-2340 948 LINE",
"-2381 926 OFFCURVE",
"-2413 916 OFFCURVE",
"-2452 916 CURVE SMOOTH",
"-2540 916 OFFCURVE",
"-2602 970 OFFCURVE",
"-2602 1094 CURVE SMOOTH",
"-2602 1167 OFFCURVE",
"-2577 1235 OFFCURVE",
"-2551 1268 CURVE",
"-2519 1258 OFFCURVE",
"-2476 1179 OFFCURVE",
"-2476 1101 CURVE",
"-2632 1094 LINE",
"-2631 1059 LINE",
"-2312 1061 LINE",
"-2316 1198 OFFCURVE",
"-2384 1310 OFFCURVE",
"-2515 1310 CURVE SMOOTH",
"-2654 1310 OFFCURVE",
"-2766 1212 OFFCURVE",
"-2766 1034 CURVE SMOOTH",
"-2766 877 OFFCURVE",
"-2665 785 OFFCURVE",
"-2545 785 CURVE SMOOTH"
);
},
{
closed = 1;
nodes = (
"-728 785 OFFCURVE",
"-642 861 OFFCURVE",
"-601 937 CURVE",
"-622 954 LINE",
"-655 930 OFFCURVE",
"-704 916 OFFCURVE",
"-751 916 CURVE SMOOTH",
"-840 916 OFFCURVE",
"-902 966 OFFCURVE",
"-902 1099 CURVE SMOOTH",
"-902 1165 OFFCURVE",
"-887 1245 OFFCURVE",
"-871 1268 CURVE",
"-887 1265 LINE",
"-834 1265 OFFCURVE",
"-793 1189 OFFCURVE",
"-793 1091 CURVE",
"-932 1074 LINE",
"-931 1039 LINE",
"-615 1061 LINE",
"-619 1195 OFFCURVE",
"-687 1310 OFFCURVE",
"-826 1310 CURVE SMOOTH",
"-958 1310 OFFCURVE",
"-1066 1205 OFFCURVE",
"-1066 1031 CURVE SMOOTH",
"-1066 869 OFFCURVE",
"-965 785 OFFCURVE",
"-842 785 CURVE SMOOTH"
);
},
{
closed = 1;
nodes = (
"-468 871 OFFCURVE",
"-377 785 OFFCURVE",
"-263 785 CURVE SMOOTH",
"-156 785 OFFCURVE",
"-74 855 OFFCURVE",
"-36 924 CURVE",
"-55 940 LINE",
"-87 918 OFFCURVE",
"-134 905 OFFCURVE",
"-180 905 CURVE SMOOTH",
"-258 905 OFFCURVE",
"-323 954 OFFCURVE",
"-323 1065 CURVE SMOOTH",
"-323 1135 OFFCURVE",
"-304 1196 OFFCURVE",
"-278 1227 CURVE",
"-298 1224 LINE",
"-250 1224 OFFCURVE",
"-212 1154 OFFCURVE",
"-207 1065 CURVE",
"-339 1049 LINE",
"-338 1017 LINE",
"-49 1037 LINE",
"-53 1160 OFFCURVE",
"-115 1265 OFFCURVE",
"-242 1265 CURVE SMOOTH",
"-287 1265 OFFCURVE",
"-353 1250 OFFCURVE",
"-388 1230 CURVE",
"-440 1174 OFFCURVE",
"-468 1099 OFFCURVE",
"-468 1010 CURVE SMOOTH"
);
},
{
closed = 1;
nodes = (
"-298 424 LINE",
"-253 424 OFFCURVE",
"-217 354 OFFCURVE",
"-212 265 CURVE",
"-339 249 LINE",
"-338 217 LINE",
"-54 237 LINE",
"-58 360 OFFCURVE",
"-118 465 OFFCURVE",
"-242 465 CURVE SMOOTH",
"-289 465 OFFCURVE",
"-357 448 OFFCURVE",
"-393 425 CURVE",
"-439 374 OFFCURVE",
"-468 299 OFFCURVE",
"-468 210 CURVE SMOOTH",
"-468 71 OFFCURVE",
"-380 -15 OFFCURVE",
"-270 -15 CURVE SMOOTH",
"-166 -15 OFFCURVE",
"-88 55 OFFCURVE",
"-50 124 CURVE",
"-69 140 LINE",
"-101 118 OFFCURVE",
"-147 105 OFFCURVE",
"-192 105 CURVE SMOOTH",
"-267 105 OFFCURVE",
"-324 154 OFFCURVE",
"-324 265 CURVE SMOOTH",
"-324 335 OFFCURVE",
"-305 397 OFFCURVE",
"-278 427 CURVE"
);
},
{
closed = 1;
nodes = (
"209 425 LINE",
"253 424 OFFCURVE",
"287 355 OFFCURVE",
"289 263 CURVE",
"162 252 LINE",
"162 220 LINE",
"446 230 LINE",
"447 374 OFFCURVE",
"374 465 OFFCURVE",
"258 465 CURVE SMOOTH",
"210 465 OFFCURVE",
"149 450 OFFCURVE",
"114 430 CURVE",
"64 378 OFFCURVE",
"32 292 OFFCURVE",
"32 209 CURVE SMOOTH",
"32 76 OFFCURVE",
"112 -15 OFFCURVE",
"230 -15 CURVE SMOOTH",
"316 -15 OFFCURVE",
"399 36 OFFCURVE",
"446 117 CURVE",
"428 133 LINE",
"397 114 OFFCURVE",
"356 103 OFFCURVE",
"316 103 CURVE SMOOTH",
"225 103 OFFCURVE",
"177 156 OFFCURVE",
"177 255 CURVE SMOOTH",
"177 325 OFFCURVE",
"198 395 OFFCURVE",
"229 428 CURVE"
);
}
);
};
layerId = "FABFC9D4-E17A-4CB6-8F8E-4923CD579275";
name = Regular;
paths = (
{
closed = 1;
nodes = (
"204 425 LINE",
"259 424 OFFCURVE",
"291 366 OFFCURVE",
"293 263 CURVE",
"122 249 LINE",
"122 220 LINE",
"441 230 LINE",
"442 374 OFFCURVE",
"370 465 OFFCURVE",
"253 465 CURVE SMOOTH",
"205 465 OFFCURVE",
"144 450 OFFCURVE",
"109 430 CURVE",
"59 378 OFFCURVE",
"22 292 OFFCURVE",
"22 209 CURVE SMOOTH",
"22 72 OFFCURVE",
"99 -15 OFFCURVE",
"220 -15 CURVE SMOOTH",
"308 -15 OFFCURVE",
"393 36 OFFCURVE",
"441 127 CURVE",
"423 143 LINE",
"391 115 OFFCURVE",
"348 100 OFFCURVE",
"296 100 CURVE SMOOTH",
"212 100 OFFCURVE",
"163 154 OFFCURVE",
"163 255 CURVE SMOOTH",
"163 324 OFFCURVE",
"188 394 OFFCURVE",
"224 428 CURVE"
);
}
);
width = 451;
}
);
leftKerningGroup = e;
rightKerningGroup = e;
unicode = 0065;
},
{
glyphname = eogonek;
lastChange = "2016-02-22 12:49:18 +0000";
layers = (
{
background = {
paths = (
{
closed = 1;
nodes = (
"302 12 OFFCURVE",
"243 -61 OFFCURVE",
"243 -133 CURVE SMOOTH",
"243 -202 OFFCURVE",
"290 -251 OFFCURVE",
"355 -251 CURVE SMOOTH",
"394 -251 OFFCURVE",
"427 -237 OFFCURVE",
"453 -218 CURVE",
"445 -193 LINE",
"378 -201 OFFCURVE",
"346 -157 OFFCURVE",
"346 -102 CURVE SMOOTH",
"346 -44 OFFCURVE",
"382 20 OFFCURVE",
"446 52 CURVE",
"431 52 LINE"
);
}
);
};
components = (
{
name = e;
}
);
layerId = "FABFC9D4-E17A-4CB6-8F8E-4923CD579275";
name = Regular;
paths = (
{
closed = 1;
nodes = (
"364 61 OFFCURVE",
"243 -47 OFFCURVE",
"243 -139 CURVE SMOOTH",
"243 -203 OFFCURVE",
"290 -251 OFFCURVE",
"355 -251 CURVE SMOOTH",
"394 -251 OFFCURVE",
"427 -237 OFFCURVE",
"453 -218 CURVE",
"445 -193 LINE",
"378 -201 OFFCURVE",
"346 -157 OFFCURVE",
"346 -102 CURVE SMOOTH",
"346 -30 OFFCURVE",
"410 48 OFFCURVE",
"451 112 CURVE",
"441 116 LINE"
);
}
);
width = 490;
}
);
leftKerningGroup = e;
rightKerningGroup = e;
unicode = 0119;
},
{
glyphname = f;
lastChange = "2016-02-22 12:49:18 +0000";
layers = (
{
background = {
paths = (
{
closed = 1;
nodes = (
"-1783 460 LINE",
"-1696 460 LINE",
"-1696 498 LINE",
"-1791 498 LINE",
"-1823 524 OFFCURVE",
"-1846 579 OFFCURVE",
"-1846 611 CURVE SMOOTH",
"-1846 643 OFFCURVE",
"-1826 659 OFFCURVE",
"-1796 659 CURVE SMOOTH",
"-1781 659 OFFCURVE",
"-1762 653 OFFCURVE",
"-1754 648 CURVE",
"-1771 600 LINE",
"-1739 591 LINE",
"-1652 750 LINE",
"-1686 776 OFFCURVE",
"-1745 801 OFFCURVE",
"-1816 801 CURVE SMOOTH",
"-1911 801 OFFCURVE",
"-2002 752 OFFCURVE",
"-2002 641 CURVE SMOOTH",
"-2002 575 OFFCURVE",
"-1947 514 OFFCURVE",
"-1885 498 CURVE",
"-2006 498 LINE",
"-2006 460 LINE",
"-1945 460 LINE",
"-1945 39 LINE",
"-2010 32 LINE",
"-2010 0 LINE",
"-1718 0 LINE",
"-1718 32 LINE",
"-1783 39 LINE"
);
},
{
closed = 1;
nodes = (
"-1283 460 LINE",
"-1196 460 LINE",
"-1196 498 LINE",
"-1291 498 LINE",
"-1323 524 OFFCURVE",
"-1346 579 OFFCURVE",
"-1346 611 CURVE SMOOTH",
"-1346 636 OFFCURVE",
"-1329 648 OFFCURVE",
"-1299 648 CURVE SMOOTH",
"-1275 648 OFFCURVE",
"-1242 639 OFFCURVE",
"-1234 634 CURVE",
"-1248 597 LINE",
"-1216 588 LINE",
"-1128 750 LINE",
"-1162 774 OFFCURVE",
"-1235 801 OFFCURVE",
"-1316 801 CURVE SMOOTH",
"-1411 801 OFFCURVE",
"-1502 752 OFFCURVE",
"-1502 641 CURVE SMOOTH",
"-1502 575 OFFCURVE",
"-1471 524 OFFCURVE",
"-1445 498 CURVE",
"-1506 498 LINE",
"-1506 460 LINE",
"-1445 460 LINE",
"-1445 39 LINE",
"-1510 32 LINE",
"-1510 0 LINE",
"-1218 0 LINE",
"-1218 32 LINE",
"-1283 39 LINE"
);
},
{
closed = 1;
nodes = (
"-934 32 LINE",
"-971 29 LINE",
"-971 0 LINE",
"-738 0 LINE",
"-738 29 LINE",
"-795 32 LINE",
"-795 416 LINE",
"-706 416 LINE",
"-706 450 LINE",
"-793 450 LINE",
"-819 486 OFFCURVE",
"-859 596 OFFCURVE",
"-859 669 CURVE",
"-893 664 LINE",
"-850 645 OFFCURVE",
"-766 582 OFFCURVE",
"-727 537 CURVE",
"-644 656 LINE",
"-677 678 OFFCURVE",
"-746 702 OFFCURVE",
"-820 702 CURVE SMOOTH",
"-866 702 OFFCURVE",
"-917 692 OFFCURVE",
"-947 672 CURVE",
"-955 647 OFFCURVE",
"-962 605 OFFCURVE",
"-962 560 CURVE SMOOTH",
"-962 518 OFFCURVE",
"-951 478 OFFCURVE",
"-934 450 CURVE",
"-990 450 LINE",
"-990 416 LINE",
"-934 416 LINE"
);
},
{
closed = 1;
nodes = (
"-435 32 LINE",
"-472 29 LINE",
"-472 0 LINE",
"-237 0 LINE",
"-237 29 LINE",
"-294 32 LINE",
"-294 416 LINE",
"-205 416 LINE",
"-205 450 LINE",
"-292 450 LINE",
"-318 486 OFFCURVE",
"-359 596 OFFCURVE",
"-359 669 CURVE",
"-393 664 LINE",
"-350 645 OFFCURVE",
"-266 582 OFFCURVE",
"-227 537 CURVE",
"-144 656 LINE",
"-173 678 OFFCURVE",
"-234 702 OFFCURVE",
"-297 702 CURVE SMOOTH",
"-386 702 OFFCURVE",
"-442 662 OFFCURVE",
"-460 608 CURVE",
"-461 599 OFFCURVE",
"-461 590 OFFCURVE",
"-461 580 CURVE SMOOTH",
"-461 538 OFFCURVE",
"-451 485 OFFCURVE",
"-435 450 CURVE",
"-491 450 LINE",
"-491 416 LINE",
"-435 416 LINE"
);
},
{
closed = 1;
nodes = (
"65 32 LINE",
"28 29 LINE",
"28 0 LINE",
"283 0 LINE",
"283 29 LINE",
"206 32 LINE",
"208 416 LINE",
"297 416 LINE",
"297 450 LINE",
"210 450 LINE",
"184 486 OFFCURVE",
"141 606 OFFCURVE",
"141 669 CURVE",
"107 664 LINE",
"150 645 OFFCURVE",
"231 579 OFFCURVE",
"270 534 CURVE",
"353 653 LINE",
"308 682 OFFCURVE",
"245 702 OFFCURVE",
"185 702 CURVE SMOOTH",
"134 702 OFFCURVE",
"58 662 OFFCURVE",
"40 608 CURVE",
"39 599 OFFCURVE",
"39 590 OFFCURVE",
"39 580 CURVE SMOOTH",
"39 538 OFFCURVE",
"49 484 OFFCURVE",
"63 450 CURVE",
"7 450 LINE",
"7 416 LINE",
"63 416 LINE"
);
}
);
};
layerId = "FABFC9D4-E17A-4CB6-8F8E-4923CD579275";
name = Regular;
paths = (
{
closed = 1;
nodes = (
"74 32 LINE",
"37 29 LINE",
"37 0 LINE",
"292 0 LINE",
"292 29 LINE",
"215 32 LINE",
"217 411 LINE",
"304 408 LINE",
"304 450 LINE",
"216 450 LINE",
"193 486 OFFCURVE",
"150 606 OFFCURVE",
"150 669 CURVE",
"116 664 LINE",
"159 645 OFFCURVE",
"240 579 OFFCURVE",
"279 534 CURVE",
"362 653 LINE",
"317 682 OFFCURVE",
"254 702 OFFCURVE",
"194 702 CURVE SMOOTH",
"143 702 OFFCURVE",
"67 662 OFFCURVE",
"49 608 CURVE",
"48 599 OFFCURVE",
"48 590 OFFCURVE",
"48 580 CURVE SMOOTH",
"48 544 OFFCURVE",
"58 485 OFFCURVE",
"69 450 CURVE",
"16 450 LINE",
"16 413 LINE",
"72 413 LINE"
);
}
);
width = 310;
}
);
unicode = 0066;
},
{
glyphname = g;
lastChange = "2016-02-22 14:26:38 +0000";
layers = (
{
anchors = (
{
name = bottom;
position = "{228, -320}";
},
{
name = top;
position = "{240, 574}";
}
);
background = {
paths = (
{
closed = 1;
nodes = (
"-4382 244 OFFCURVE",
"-4396 198 OFFCURVE",
"-4425 160 CURVE",
"-4456 133 OFFCURVE",
"-4530 94 OFFCURVE",
"-4573 94 CURVE SMOOTH",
"-4668 94 OFFCURVE",
"-4733 156 OFFCURVE",
"-4733 259 CURVE SMOOTH",
"-4733 316 OFFCURVE",
"-4719 361 OFFCURVE",
"-4690 400 CURVE",
"-4659 426 OFFCURVE",
"-4585 465 OFFCURVE",
"-4542 465 CURVE SMOOTH",
"-4447 465 OFFCURVE",
"-4382 402 OFFCURVE",
"-4382 300 CURVE SMOOTH"
);
},
{
closed = 1;
nodes = (
"-4623 219 OFFCURVE",
"-4581 165 OFFCURVE",
"-4524 165 CURVE SMOOTH",
"-4485 165 LINE",
"-4505 147 LINE",
"-4495 184 OFFCURVE",
"-4492 227 OFFCURVE",
"-4492 264 CURVE SMOOTH",
"-4492 341 OFFCURVE",
"-4534 394 OFFCURVE",
"-4591 394 CURVE SMOOTH",
"-4630 394 LINE",
"-4610 412 LINE",
"-4620 375 OFFCURVE",
"-4623 333 OFFCURVE",
"-4623 295 CURVE SMOOTH"
);
},
{
closed = 1;
nodes = (
"-4620 142 LINE",
"-4652 56 LINE",
"-4645 56 OFFCURVE",
"-4632 56 OFFCURVE",
"-4626 56 CURVE SMOOTH",
"-4465 56 OFFCURVE",
"-4376 2 OFFCURVE",
"-4376 -89 CURVE",
"-4394 -138 OFFCURVE",
"-4462 -222 OFFCURVE",
"-4516 -255 CURVE",
"-4541 -257 OFFCURVE",
"-4564 -260 OFFCURVE",
"-4589 -260 CURVE SMOOTH",
"-4697 -260 OFFCURVE",
"-4779 -223 OFFCURVE",
"-4793 -185 CURVE",
"-4685 -19 LINE",
"-4658 -29 LINE",
"-4703 -111 LINE",
"-4675 -141 OFFCURVE",
"-4626 -171 OFFCURVE",
"-4586 -171 CURVE SMOOTH",
"-4484 -171 OFFCURVE",
"-4452 -160 OFFCURVE",
"-4452 -136 CURVE SMOOTH",
"-4452 -112 OFFCURVE",
"-4604 -61 OFFCURVE",
"-4680 -61 CURVE SMOOTH",
"-4708 -61 OFFCURVE",
"-4737 -62 OFFCURVE",
"-4766 -61 CURVE",
"-4645 151 LINE"
);
},
{
closed = 1;
nodes = (
"-3768 251 OFFCURVE",
"-3787 207 OFFCURVE",
"-3825 170 CURVE",
"-3856 143 OFFCURVE",
"-3930 104 OFFCURVE",
"-3973 104 CURVE SMOOTH",
"-4076 104 OFFCURVE",
"-4147 164 OFFCURVE",
"-4147 264 CURVE SMOOTH",
"-4147 321 OFFCURVE",
"-4128 362 OFFCURVE",
"-4090 400 CURVE",
"-4059 426 OFFCURVE",
"-3985 465 OFFCURVE",
"-3942 465 CURVE SMOOTH",
"-3839 465 OFFCURVE",
"-3768 407 OFFCURVE",
"-3768 305 CURVE SMOOTH"
);
},
{
closed = 1;
nodes = (
"-4021 223 OFFCURVE",
"-3980 169 OFFCURVE",
"-3924 169 CURVE SMOOTH",
"-3885 169 LINE",
"-3919 157 LINE",
"-3899 192 OFFCURVE",
"-3892 234 OFFCURVE",
"-3892 269 CURVE SMOOTH",
"-3892 350 OFFCURVE",
"-3934 400 OFFCURVE",
"-3991 400 CURVE SMOOTH",
"-4030 400 LINE",
"-3994 412 LINE",
"-4014 382 OFFCURVE",
"-4021 338 OFFCURVE",
"-4021 300 CURVE SMOOTH"
);
},
{
closed = 1;
nodes = (
"-4040 131 LINE",
"-4075 89 LINE",
"-4064 74 OFFCURVE",
"-4038 66 OFFCURVE",
"-4006 62 CURVE SMOOTH",
"-3975 57 OFFCURVE",
"-3938 55 OFFCURVE",
"-3903 53 CURVE SMOOTH",
"-3830 48 OFFCURVE",
"-3773 44 OFFCURVE",
"-3736 -13 CURVE",
"-3773 -111 OFFCURVE",
"-3862 -250 OFFCURVE",
"-4009 -250 CURVE SMOOTH",
"-4090 -250 OFFCURVE",
"-4158 -194 OFFCURVE",
"-4129 -83 CURVE",
"-4085 11 LINE",
"-4058 1 LINE",
"-4080 -56 LINE",
"-4073 -105 OFFCURVE",
"-4025 -145 OFFCURVE",
"-3946 -145 CURVE SMOOTH",
"-3894 -145 OFFCURVE",
"-3842 -120 OFFCURVE",
"-3832 -103 CURVE",
"-3832 -95 OFFCURVE",
"-3866 -73 OFFCURVE",
"-3923 -70 CURVE SMOOTH",
"-3959 -68 OFFCURVE",
"-4005 -65 OFFCURVE",
"-4044 -62 CURVE SMOOTH",
"-4113 -56 OFFCURVE",
"-4148 -50 OFFCURVE",
"-4180 16 CURVE",
"-4060 151 LINE"
);
},
{
closed = 1;
nodes = (
"-3801 547 LINE",
"-3765 552 OFFCURVE",
"-3716 544 OFFCURVE",
"-3680 524 CURVE",
"-3741 438 LINE",
"-3770 452 OFFCURVE",
"-3801 458 OFFCURVE",
"-3827 456 CURVE",
"-3878 407 LINE",
"-3900 419 LINE"
);
},
{
closed = 1;
nodes = (
"-3068 251 OFFCURVE",
"-3087 207 OFFCURVE",
"-3125 170 CURVE",
"-3156 143 OFFCURVE",
"-3230 104 OFFCURVE",
"-3273 104 CURVE SMOOTH",
"-3376 104 OFFCURVE",
"-3447 164 OFFCURVE",
"-3447 264 CURVE SMOOTH",
"-3447 321 OFFCURVE",
"-3428 362 OFFCURVE",
"-3390 400 CURVE",
"-3359 426 OFFCURVE",
"-3285 465 OFFCURVE",
"-3242 465 CURVE SMOOTH",
"-3139 465 OFFCURVE",
"-3068 407 OFFCURVE",
"-3068 305 CURVE SMOOTH"
);
},
{
closed = 1;
nodes = (
"-3321 223 OFFCURVE",
"-3280 169 OFFCURVE",
"-3224 169 CURVE SMOOTH",
"-3185 169 LINE",
"-3219 157 LINE",
"-3199 192 OFFCURVE",
"-3192 234 OFFCURVE",
"-3192 269 CURVE SMOOTH",
"-3192 350 OFFCURVE",
"-3234 400 OFFCURVE",
"-3291 400 CURVE SMOOTH",
"-3330 400 LINE",
"-3294 412 LINE",
"-3314 382 OFFCURVE",
"-3321 338 OFFCURVE",
"-3321 300 CURVE SMOOTH"
);
},
{
closed = 1;
nodes = (
"-3340 131 LINE",
"-3375 89 LINE",
"-3364 74 OFFCURVE",
"-3339 65 OFFCURVE",
"-3306 62 CURVE SMOOTH",
"-3183 52 LINE SMOOTH",
"-3109 46 OFFCURVE",
"-3064 24 OFFCURVE",
"-3036 -13 CURVE",
"-3073 -111 OFFCURVE",
"-3162 -250 OFFCURVE",
"-3309 -250 CURVE SMOOTH",
"-3376 -250 OFFCURVE",
"-3434 -212 OFFCURVE",
"-3436 -136 CURVE SMOOTH",
"-3436 -120 OFFCURVE",
"-3434 -102 OFFCURVE",
"-3429 -83 CURVE",
"-3385 11 LINE",
"-3358 1 LINE",
"-3380 -56 LINE",
"-3373 -105 OFFCURVE",
"-3325 -145 OFFCURVE",
"-3246 -145 CURVE SMOOTH",
"-3205 -145 OFFCURVE",
"-3161 -134 OFFCURVE",
"-3142 -120 CURVE",
"-3135 -108 LINE",
"-3135 -100 OFFCURVE",
"-3169 -74 OFFCURVE",
"-3223 -70 CURVE SMOOTH",
"-3344 -62 LINE SMOOTH",
"-3423 -56 OFFCURVE",
"-3451 -38 OFFCURVE",
"-3480 16 CURVE",
"-3360 151 LINE"
);
},
{
closed = 1;
nodes = (
"-3113 566 LINE",
"-3078 574 OFFCURVE",
"-3029 570 OFFCURVE",
"-2991 553 CURVE",
"-3044 462 LINE",
"-3074 474 OFFCURVE",
"-3106 477 OFFCURVE",
"-3131 473 CURVE",
"-3178 420 LINE",
"-3201 430 LINE"
);
},
{
closed = 1;
nodes = (
"-2645 131 LINE",
"-2680 89 LINE",
"-2670 75 OFFCURVE",
"-2643 65 OFFCURVE",
"-2606 62 CURVE SMOOTH",
"-2483 52 LINE SMOOTH",
"-2407 46 OFFCURVE",
"-2359 20 OFFCURVE",
"-2331 -17 CURVE",
"-2367 -125 OFFCURVE",
"-2463 -255 OFFCURVE",
"-2604 -255 CURVE SMOOTH",
"-2687 -255 OFFCURVE",
"-2741 -206 OFFCURVE",
"-2741 -135 CURVE SMOOTH",
"-2741 -121 OFFCURVE",
"-2739 -102 OFFCURVE",
"-2734 -83 CURVE",
"-2690 11 LINE",
"-2663 1 LINE",
"-2685 -56 LINE",
"-2678 -105 OFFCURVE",
"-2628 -145 OFFCURVE",
"-2547 -145 CURVE SMOOTH",
"-2486 -145 OFFCURVE",
"-2437 -123 OFFCURVE",
"-2430 -112 CURVE",
"-2436 -99 OFFCURVE",
"-2466 -71 OFFCURVE",
"-2543 -67 CURVE SMOOTH",
"-2644 -62 LINE SMOOTH",
"-2719 -58 OFFCURVE",
"-2756 -38 OFFCURVE",
"-2785 16 CURVE",
"-2665 151 LINE"
);
},
{
closed = 1;
nodes = (
"-2413 566 LINE",
"-2378 574 OFFCURVE",
"-2329 570 OFFCURVE",
"-2291 553 CURVE",
"-2344 462 LINE",
"-2374 474 OFFCURVE",
"-2406 477 OFFCURVE",
"-2436 473 CURVE",
"-2476 420 LINE",
"-2501 430 LINE"
);
},
{
closed = 1;
nodes = (
"-2612 419 LINE",
"-2624 389 OFFCURVE",
"-2636 345 OFFCURVE",
"-2636 302 CURVE SMOOTH",
"-2636 206 OFFCURVE",
"-2572 164 OFFCURVE",
"-2467 164 CURVE",
"-2513 149 LINE",
"-2497 183 OFFCURVE",
"-2489 228 OFFCURVE",
"-2489 264 CURVE SMOOTH",
"-2489 362 OFFCURVE",
"-2553 404 OFFCURVE",
"-2655 404 CURVE"
);
},
{
closed = 1;
nodes = (
"-2444 465 OFFCURVE",
"-2368 402 OFFCURVE",
"-2368 297 CURVE SMOOTH",
"-2368 248 OFFCURVE",
"-2394 187 OFFCURVE",
"-2425 154 CURVE",
"-2457 125 OFFCURVE",
"-2517 103 OFFCURVE",
"-2575 103 CURVE SMOOTH",
"-2680 103 OFFCURVE",
"-2757 165 OFFCURVE",
"-2757 270 CURVE SMOOTH",
"-2757 320 OFFCURVE",
"-2730 381 OFFCURVE",
"-2700 414 CURVE",
"-2669 440 OFFCURVE",
"-2611 465 OFFCURVE",
"-2549 465 CURVE SMOOTH"
);
},
{
closed = 1;
nodes = (
"-2045 131 LINE",
"-2080 89 LINE",
"-2072 77 OFFCURVE",
"-2046 65 OFFCURVE",
"-2006 62 CURVE SMOOTH",
"-1883 53 LINE SMOOTH",
"-1808 48 OFFCURVE",
"-1759 20 OFFCURVE",
"-1731 -17 CURVE",
"-1767 -125 OFFCURVE",
"-1864 -255 OFFCURVE",
"-2002 -255 CURVE SMOOTH",
"-2087 -255 OFFCURVE",
"-2141 -205 OFFCURVE",
"-2141 -140 CURVE SMOOTH",
"-2141 -98 OFFCURVE",
"-2119 -27 OFFCURVE",
"-2090 11 CURVE",
"-2063 1 LINE",
"-2085 -56 LINE",
"-2078 -105 OFFCURVE",
"-2028 -145 OFFCURVE",
"-1947 -145 CURVE SMOOTH",
"-1886 -145 OFFCURVE",
"-1837 -123 OFFCURVE",
"-1830 -112 CURVE",
"-1836 -99 OFFCURVE",
"-1866 -71 OFFCURVE",
"-1943 -67 CURVE SMOOTH",
"-2044 -62 LINE SMOOTH",
"-2119 -58 OFFCURVE",
"-2156 -38 OFFCURVE",
"-2185 16 CURVE",
"-2065 151 LINE"
);
},
{
closed = 1;
nodes = (
"-1813 566 LINE",
"-1801 569 OFFCURVE",
"-1787 570 OFFCURVE",
"-1775 570 CURVE SMOOTH",
"-1746 570 OFFCURVE",
"-1716 564 OFFCURVE",
"-1691 553 CURVE",
"-1749 454 LINE",
"-1771 463 OFFCURVE",
"-1794 467 OFFCURVE",
"-1815 467 CURVE SMOOTH",
"-1825 467 OFFCURVE",
"-1833 466 OFFCURVE",
"-1841 465 CURVE",
"-1876 420 LINE",
"-1901 430 LINE"
);
},
{
closed = 1;
nodes = (
"-2007 419 LINE",
"-2019 389 OFFCURVE",
"-2031 345 OFFCURVE",
"-2031 302 CURVE SMOOTH",
"-2031 206 OFFCURVE",
"-1969 164 OFFCURVE",
"-1867 164 CURVE",
"-1918 149 LINE",
"-1902 183 OFFCURVE",
"-1894 228 OFFCURVE",
"-1894 264 CURVE SMOOTH",
"-1894 362 OFFCURVE",
"-1956 404 OFFCURVE",
"-2055 404 CURVE"
);
},
{
closed = 1;
nodes = (
"-1844 465 OFFCURVE",
"-1768 399 OFFCURVE",
"-1768 301 CURVE SMOOTH",
"-1768 244 OFFCURVE",
"-1794 188 OFFCURVE",
"-1825 154 CURVE",
"-1857 125 OFFCURVE",
"-1916 103 OFFCURVE",
"-1976 103 CURVE SMOOTH",
"-2080 103 OFFCURVE",
"-2157 168 OFFCURVE",
"-2157 265 CURVE SMOOTH",
"-2157 322 OFFCURVE",
"-2131 379 OFFCURVE",
"-2100 414 CURVE",
"-2069 440 OFFCURVE",
"-2012 465 OFFCURVE",
"-1948 465 CURVE SMOOTH"
);
},
{
closed = 1;
nodes = (
"-1045 131 LINE",
"-1080 89 LINE",
"-1072 77 OFFCURVE",
"-1046 65 OFFCURVE",
"-1006 62 CURVE SMOOTH",
"-883 53 LINE SMOOTH",
"-806 48 OFFCURVE",
"-754 20 OFFCURVE",
"-726 -17 CURVE",
"-762 -125 OFFCURVE",
"-861 -255 OFFCURVE",
"-1002 -255 CURVE SMOOTH",
"-1090 -255 OFFCURVE",
"-1146 -205 OFFCURVE",
"-1146 -140 CURVE SMOOTH",
"-1146 -98 OFFCURVE",
"-1124 -27 OFFCURVE",
"-1095 11 CURVE",
"-1068 1 LINE",
"-1090 -56 LINE",
"-1083 -105 OFFCURVE",
"-1031 -145 OFFCURVE",
"-947 -145 CURVE SMOOTH",
"-883 -145 OFFCURVE",
"-832 -123 OFFCURVE",
"-825 -112 CURVE",
"-831 -99 OFFCURVE",
"-863 -71 OFFCURVE",
"-943 -67 CURVE SMOOTH",
"-1044 -62 LINE SMOOTH",
"-1119 -58 OFFCURVE",
"-1156 -38 OFFCURVE",
"-1185 16 CURVE",
"-1065 151 LINE"
);
},
{
closed = 1;
nodes = (
"-814 571 LINE",
"-802 574 OFFCURVE",
"-788 575 OFFCURVE",
"-776 575 CURVE SMOOTH",
"-747 575 OFFCURVE",
"-717 569 OFFCURVE",
"-692 558 CURVE",
"-750 456 LINE",
"-772 465 OFFCURVE",
"-795 469 OFFCURVE",
"-816 469 CURVE SMOOTH",
"-826 469 OFFCURVE",
"-834 468 OFFCURVE",
"-842 467 CURVE",
"-876 420 LINE",
"-901 430 LINE"
);
},
{
closed = 1;
nodes = (
"-1012 419 LINE",
"-1024 389 OFFCURVE",
"-1036 345 OFFCURVE",
"-1036 302 CURVE SMOOTH",
"-1036 206 OFFCURVE",
"-972 164 OFFCURVE",
"-867 164 CURVE",
"-913 149 LINE",
"-897 183 OFFCURVE",
"-889 228 OFFCURVE",
"-889 264 CURVE SMOOTH",
"-889 362 OFFCURVE",
"-953 404 OFFCURVE",
"-1055 404 CURVE"
);
},
{
closed = 1;
nodes = (
"-841 465 OFFCURVE",
"-763 399 OFFCURVE",
"-763 301 CURVE SMOOTH",
"-763 244 OFFCURVE",
"-794 188 OFFCURVE",
"-820 154 CURVE",
"-852 125 OFFCURVE",
"-914 103 OFFCURVE",
"-976 103 CURVE SMOOTH",
"-1083 103 OFFCURVE",
"-1162 168 OFFCURVE",
"-1162 265 CURVE SMOOTH",
"-1162 322 OFFCURVE",
"-1136 379 OFFCURVE",
"-1105 414 CURVE",
"-1074 440 OFFCURVE",
"-1014 465 OFFCURVE",
"-948 465 CURVE SMOOTH"
);
},
{
closed = 1;
nodes = (
"-445 131 LINE",
"-480 89 LINE",
"-472 77 OFFCURVE",
"-446 65 OFFCURVE",
"-406 62 CURVE SMOOTH",
"-283 53 LINE SMOOTH",
"-206 48 OFFCURVE",
"-154 20 OFFCURVE",
"-126 -17 CURVE",
"-162 -125 OFFCURVE",
"-261 -255 OFFCURVE",
"-402 -255 CURVE SMOOTH",
"-490 -255 OFFCURVE",
"-546 -205 OFFCURVE",
"-546 -140 CURVE SMOOTH",
"-546 -98 OFFCURVE",
"-524 -27 OFFCURVE",
"-495 11 CURVE",
"-468 1 LINE",
"-490 -56 LINE",
"-483 -105 OFFCURVE",
"-431 -145 OFFCURVE",
"-347 -145 CURVE SMOOTH",
"-283 -145 OFFCURVE",
"-232 -123 OFFCURVE",
"-225 -112 CURVE",
"-231 -99 OFFCURVE",
"-263 -71 OFFCURVE",
"-343 -67 CURVE SMOOTH",
"-444 -62 LINE SMOOTH",
"-519 -58 OFFCURVE",
"-556 -38 OFFCURVE",
"-585 16 CURVE",
"-465 151 LINE"
);
},
{
closed = 1;
nodes = (
"-204 591 LINE",
"-192 594 OFFCURVE",
"-178 595 OFFCURVE",
"-166 595 CURVE SMOOTH",
"-138 595 OFFCURVE",
"-110 589 OFFCURVE",
"-85 578 CURVE",
"-153 456 LINE",
"-175 465 OFFCURVE",
"-196 469 OFFCURVE",
"-216 469 CURVE SMOOTH",
"-226 469 OFFCURVE",
"-234 468 OFFCURVE",
"-242 467 CURVE",
"-276 420 LINE",
"-301 430 LINE"
);
},
{
closed = 1;
nodes = (
"-409 419 LINE",
"-421 389 OFFCURVE",
"-433 345 OFFCURVE",
"-433 302 CURVE SMOOTH",
"-433 206 OFFCURVE",
"-370 161 OFFCURVE",
"-267 161 CURVE",
"-316 149 LINE",
"-300 183 OFFCURVE",
"-292 228 OFFCURVE",
"-292 264 CURVE SMOOTH",
"-292 362 OFFCURVE",
"-355 407 OFFCURVE",
"-455 407 CURVE"
);
},
{
closed = 1;
nodes = (
"-241 465 OFFCURVE",
"-163 399 OFFCURVE",
"-163 301 CURVE SMOOTH",
"-163 244 OFFCURVE",
"-194 188 OFFCURVE",
"-220 154 CURVE",
"-252 125 OFFCURVE",
"-314 103 OFFCURVE",
"-376 103 CURVE SMOOTH",
"-483 103 OFFCURVE",
"-562 168 OFFCURVE",
"-562 265 CURVE SMOOTH",
"-562 322 OFFCURVE",
"-536 379 OFFCURVE",
"-505 414 CURVE",
"-474 440 OFFCURVE",
"-414 465 OFFCURVE",
"-348 465 CURVE SMOOTH"
);
},
{
closed = 1;
nodes = (
"155 131 LINE",
"120 89 LINE",
"128 77 OFFCURVE",
"154 65 OFFCURVE",
"194 62 CURVE SMOOTH",
"317 53 LINE SMOOTH",
"394 48 OFFCURVE",
"446 20 OFFCURVE",
"474 -17 CURVE",
"438 -125 OFFCURVE",
"339 -255 OFFCURVE",
"198 -255 CURVE SMOOTH",
"110 -255 OFFCURVE",
"54 -205 OFFCURVE",
"54 -140 CURVE SMOOTH",
"54 -98 OFFCURVE",
"76 -27 OFFCURVE",
"105 11 CURVE",
"132 1 LINE",
"110 -56 LINE",
"117 -108 OFFCURVE",
"169 -150 OFFCURVE",
"253 -150 CURVE SMOOTH",
"317 -150 OFFCURVE",
"368 -125 OFFCURVE",
"375 -112 CURVE",
"369 -99 OFFCURVE",
"337 -71 OFFCURVE",
"257 -67 CURVE SMOOTH",
"156 -62 LINE SMOOTH",
"81 -58 OFFCURVE",
"44 -38 OFFCURVE",
"15 16 CURVE",
"135 151 LINE"
);
},
{
closed = 1;
nodes = (
"396 591 LINE",
"408 594 OFFCURVE",
"422 595 OFFCURVE",
"434 595 CURVE SMOOTH",
"462 595 OFFCURVE",
"490 589 OFFCURVE",
"515 578 CURVE",
"447 456 LINE",
"425 465 OFFCURVE",
"404 469 OFFCURVE",
"384 469 CURVE SMOOTH",
"374 469 OFFCURVE",
"366 468 OFFCURVE",
"358 467 CURVE",
"324 420 LINE",
"299 430 LINE"
);
},
{
closed = 1;
nodes = (
"191 419 LINE",
"179 389 OFFCURVE",
"167 345 OFFCURVE",
"167 302 CURVE SMOOTH",
"167 206 OFFCURVE",
"230 161 OFFCURVE",
"333 161 CURVE",
"284 149 LINE",
"300 183 OFFCURVE",
"308 228 OFFCURVE",
"308 264 CURVE SMOOTH",
"308 362 OFFCURVE",
"245 407 OFFCURVE",
"145 407 CURVE"
);
},
{
closed = 1;
nodes = (
"359 465 OFFCURVE",
"437 399 OFFCURVE",
"437 301 CURVE SMOOTH",
"437 244 OFFCURVE",
"406 188 OFFCURVE",
"380 154 CURVE",
"348 125 OFFCURVE",
"286 103 OFFCURVE",
"224 103 CURVE SMOOTH",
"117 103 OFFCURVE",
"38 168 OFFCURVE",
"38 265 CURVE SMOOTH",
"38 322 OFFCURVE",
"64 379 OFFCURVE",
"95 414 CURVE",
"126 440 OFFCURVE",
"186 465 OFFCURVE",
"252 465 CURVE SMOOTH"
);
}
);
};
guideLines = (
{
angle = 270;
position = "{66, 100}";
},
{
angle = 270;
position = "{418, 126}";
}
);
layerId = "FABFC9D4-E17A-4CB6-8F8E-4923CD579275";
name = Regular;
paths = (
{
closed = 1;
nodes = (
"150 131 LINE",
"115 89 LINE",
"123 78 OFFCURVE",
"149 67 OFFCURVE",
"189 65 CURVE SMOOTH",
"322 56 LINE SMOOTH",
"399 51 OFFCURVE",
"451 22 OFFCURVE",
"479 -17 CURVE",
"443 -125 OFFCURVE",
"334 -255 OFFCURVE",
"193 -255 CURVE SMOOTH",
"105 -255 OFFCURVE",
"49 -205 OFFCURVE",
"49 -140 CURVE SMOOTH",
"49 -98 OFFCURVE",
"71 -27 OFFCURVE",
"100 11 CURVE",
"127 1 LINE",
"105 -56 LINE",
"112 -108 OFFCURVE",
"164 -150 OFFCURVE",
"248 -150 CURVE SMOOTH",
"312 -150 OFFCURVE",
"373 -125 OFFCURVE",
"380 -112 CURVE",
"374 -99 OFFCURVE",
"342 -72 OFFCURVE",
"262 -68 CURVE SMOOTH",
"151 -62 LINE SMOOTH",
"76 -58 OFFCURVE",
"39 -38 OFFCURVE",
"10 16 CURVE",
"130 151 LINE"
);
},
{
closed = 1;
nodes = (
"389 599 LINE",
"404 602 OFFCURVE",
"419 603 OFFCURVE",
"431 603 CURVE SMOOTH",
"459 603 OFFCURVE",
"487 597 OFFCURVE",
"512 586 CURVE",
"442 456 LINE",
"420 465 OFFCURVE",
"399 469 OFFCURVE",
"379 469 CURVE SMOOTH",
"369 469 OFFCURVE",
"361 468 OFFCURVE",
"353 467 CURVE",
"319 420 LINE",
"290 430 LINE"
);
},
{
closed = 1;
nodes = (
"186 419 LINE",
"174 389 OFFCURVE",
"162 345 OFFCURVE",
"162 302 CURVE SMOOTH",
"162 206 OFFCURVE",
"225 161 OFFCURVE",
"328 161 CURVE",
"279 149 LINE",
"295 183 OFFCURVE",
"303 228 OFFCURVE",
"303 264 CURVE SMOOTH",
"303 362 OFFCURVE",
"240 407 OFFCURVE",
"140 407 CURVE"
);
},
{
closed = 1;
nodes = (
"356 465 OFFCURVE",
"435 399 OFFCURVE",
"435 301 CURVE SMOOTH",
"435 244 OFFCURVE",
"402 188 OFFCURVE",
"375 154 CURVE",
"343 125 OFFCURVE",
"281 103 OFFCURVE",
"219 103 CURVE SMOOTH",
"110 103 OFFCURVE",
"30 168 OFFCURVE",
"30 265 CURVE SMOOTH",
"30 322 OFFCURVE",
"57 379 OFFCURVE",
"90 414 CURVE",
"121 440 OFFCURVE",
"181 465 OFFCURVE",
"247 465 CURVE SMOOTH"
);
}
);
width = 475;
}
);
leftKerningGroup = g;
rightKerningGroup = g;
unicode = 0067;
},
{
glyphname = h;
lastChange = "2016-02-22 12:49:18 +0000";
layers = (
{
background = {
paths = (
{
closed = 1;
nodes = (
"-392 595 LINE SMOOTH",
"-392 685 OFFCURVE",
"-396 751 OFFCURVE",
"-405 800 CURVE",
"-615 694 LINE",
"-605 662 LINE",
"-561 677 LINE",
"-553 649 OFFCURVE",
"-548 593 OFFCURVE",
"-548 527 CURVE SMOOTH",
"-548 38 LINE",
"-602 32 LINE",
"-602 0 LINE",
"-338 0 LINE",
"-338 32 LINE",
"-392 38 LINE"
);
},
{
closed = 1;
nodes = (
"-258 38 LINE",
"-312 32 LINE",
"-312 0 LINE",
"-48 0 LINE",
"-48 32 LINE",
"-102 38 LINE",
"-102 300 LINE SMOOTH",
"-102 436 OFFCURVE",
"-147 491 OFFCURVE",
"-241 525 CURVE",
"-411 333 LINE",
"-399 301 LINE",
"-321 371 LINE",
"-287 362 OFFCURVE",
"-258 318 OFFCURVE",
"-258 249 CURVE SMOOTH"
);
},
{
closed = 1;
nodes = (
"202 286 LINE",
"202 307 LINE",
"202 790 LINE",
"-12 709 LINE",
"-2 677 LINE",
"50 687 LINE",
"50 38 LINE",
"-4 32 LINE",
"-4 0 LINE",
"256 0 LINE",
"256 32 LINE",
"202 38 LINE"
);
},
{
closed = 1;
nodes = (
"336 38 LINE",
"282 32 LINE",
"282 0 LINE",
"542 0 LINE",
"542 32 LINE",
"488 38 LINE",
"488 300 LINE SMOOTH",
"488 436 OFFCURVE",
"429 525 OFFCURVE",
"301 525 CURVE",
"177 267 LINE",
"190 250 LINE",
"265 354 LINE",
"307 354 OFFCURVE",
"336 318 OFFCURVE",
"336 236 CURVE SMOOTH"
);
}
);
};
components = (
{
name = _part.shoulder;
transform = "{1, 0, 0, 1, -59, 0}";
},
{
name = _part.tallstem;
transform = "{1, 0, 0, 1, -24, 0}";
}
);
layerId = "FABFC9D4-E17A-4CB6-8F8E-4923CD579275";
name = Regular;
width = 512;
}
);
leftKerningGroup = l;
rightKerningGroup = n;
unicode = 0068;
},
{
glyphname = i;
lastChange = "2016-02-22 12:49:18 +0000";
layers = (
{
anchors = (
{
name = bottom;
position = "{139, 0}";
},
{
name = top;
position = "{142, 574}";
}
);
background = {
components = (
{
name = _part.tallstem;
transform = "{1, 0, 0, 1, -304, 0}";
piece = {
XHeight = 100;
};
},
{
name = _part.tallstem;
transform = "{1, 0, 0, 1, -4, 0}";
piece = {
XHeight = 100;
};
}
);
paths = (
{
closed = 1;
nodes = (
"-965 125 LINE SMOOTH",
"-973 58 OFFCURVE",
"-957 13 OFFCURVE",
"-918 -16 CURVE",
"-761 58 LINE",
"-770 91 LINE",
"-804 78 LINE",
"-817 97 OFFCURVE",
"-823 117 OFFCURVE",
"-816 173 CURVE SMOOTH",
"-801 300 LINE SMOOTH",
"-791 387 OFFCURVE",
"-807 453 OFFCURVE",
"-838 505 CURVE",
"-1023 399 LINE",
"-1013 367 LINE",
"-969 382 LINE",
"-953 356 OFFCURVE",
"-945 302 OFFCURVE",
"-953 232 CURVE SMOOTH"
);
},
{
closed = 1;
nodes = (
"-965 713 OFFCURVE",
"-965 706 OFFCURVE",
"-965 695 CURVE SMOOTH",
"-965 626 OFFCURVE",
"-931 575 OFFCURVE",
"-868 575 CURVE SMOOTH",
"-837 574 OFFCURVE",
"-805 587 OFFCURVE",
"-780 605 CURVE",
"-780 613 OFFCURVE",
"-780 622 OFFCURVE",
"-780 630 CURVE SMOOTH",
"-780 701 OFFCURVE",
"-815 750 OFFCURVE",
"-879 750 CURVE SMOOTH",
"-909 750 OFFCURVE",
"-941 738 OFFCURVE",
"-965 720 CURVE"
);
},
{
closed = 1;
nodes = (
"-594 459 LINE",
"-591 421 LINE",
"-540 428 LINE",
"-540 38 LINE",
"-594 32 LINE",
"-594 0 LINE",
"-334 0 LINE",
"-334 32 LINE",
"-388 38 LINE",
"-388 515 LINE"
);
},
{
closed = 1;
nodes = (
"-525 601 LINE",
"-480 624 OFFCURVE",
"-436 643 OFFCURVE",
"-392 654 CURVE",
"-444 785 LINE",
"-489 772 OFFCURVE",
"-534 754 OFFCURVE",
"-577 729 CURVE"
);
},
{
closed = 1;
nodes = (
"-72 627 LINE",
"-72 550 LINE",
"-250 494 LINE",
"-250 555 LINE"
);
},
{
closed = 1;
nodes = (
"206 670 LINE",
"206 556 LINE",
"78 537 LINE",
"78 641 LINE"
);
}
);
};
components = (
{
name = _part.tallstem;
transform = "{1, 0, 0, 1, -4, 0}";
piece = {
XHeight = 100;
};
}
);
layerId = "FABFC9D4-E17A-4CB6-8F8E-4923CD579275";
name = Regular;
paths = (
{
closed = 1;
nodes = (
"206 690 LINE",
"206 576 LINE",
"78 557 LINE",
"78 661 LINE"
);
}
);
width = 271;
}
);
leftKerningGroup = i;
rightKerningGroup = i;
unicode = 0069;
},
{
glyphname = dotlessi;
lastChange = "2016-02-22 14:29:47 +0000";
layers = (
{
anchors = (
{
name = bottom;
position = "{148, -80}";
},
{
name = ogonek;
position = "{260, 10}";
},
{
name = top;
position = "{144, 574}";
}
);
guideLines = (
{
angle = 270;
position = "{148, 112}";
}
);
layerId = "FABFC9D4-E17A-4CB6-8F8E-4923CD579275";
name = Regular;
paths = (
{
closed = 1;
nodes = (
"205 465 LINE",
"24 409 LINE",
"34 380 LINE",
"72 388 LINE",
"75 32 LINE",
"38 29 LINE",
"38 0 LINE",
"253 0 LINE",
"253 29 LINE",
"216 32 LINE",
"219 441 LINE"
);
}
);
width = 271;
}
);
leftKerningGroup = i;
rightKerningGroup = i;
unicode = 0131;
},
{
glyphname = iogonek;
lastChange = "2016-02-22 12:49:18 +0000";
layers = (
{
components = (
{
name = dotlessi;
transform = "{1, 0, 0, 1, -3, 0}";
}
);
layerId = "FABFC9D4-E17A-4CB6-8F8E-4923CD579275";
name = Regular;
paths = (
{
closed = 1;
nodes = (
"106 -40 OFFCURVE",
"44 -95 OFFCURVE",
"44 -153 CURVE SMOOTH",
"44 -212 OFFCURVE",
"91 -251 OFFCURVE",
"156 -251 CURVE SMOOTH",
"195 -251 OFFCURVE",
"228 -237 OFFCURVE",
"254 -218 CURVE",
"246 -193 LINE",
"179 -199 OFFCURVE",
"151 -177 OFFCURVE",
"151 -129 CURVE SMOOTH",
"151 -71 OFFCURVE",
"190 -32 OFFCURVE",
"254 0 CURVE",
"199 0 LINE"
);
}
);
width = 269;
}
);
leftKerningGroup = i;
rightKerningGroup = i;
unicode = 012F;
},
{
glyphname = j;
lastChange = "2016-02-14 18:53:27 +0000";
layers = (
{
background = {
paths = (
{
closed = 1;
nodes = (
"-837 109 OFFCURVE",
"-839 295 OFFCURVE",
"-843 390 CURVE",
"-881 381 LINE",
"-891 411 LINE",
"-704 471 LINE",
"-704 114 LINE SMOOTH",
"-704 -99 OFFCURVE",
"-769 -217 OFFCURVE",
"-833 -250 CURVE",
"-896 -250 OFFCURVE",
"-972 -221 OFFCURVE",
"-1024 -181 CURVE",
"-949 -57 LINE",
"-910 -103 OFFCURVE",
"-861 -158 OFFCURVE",
"-804 -200 CURVE",
"-839 -201 LINE",
"-836 -129 OFFCURVE",
"-835 -58 OFFCURVE",
"-836 14 CURVE SMOOTH"
);
},
{
closed = 1;
nodes = (
"-437 89 OFFCURVE",
"-439 285 OFFCURVE",
"-443 380 CURVE",
"-481 371 LINE",
"-491 401 LINE",
"-304 461 LINE",
"-304 94 LINE SMOOTH",
"-304 2 OFFCURVE",
"-309 -110 OFFCURVE",
"-319 -166 CURVE",
"-339 -201 OFFCURVE",
"-400 -250 OFFCURVE",
"-466 -250 CURVE SMOOTH",
"-525 -250 OFFCURVE",
"-575 -236 OFFCURVE",
"-624 -206 CURVE",
"-549 -77 LINE",
"-510 -123 OFFCURVE",
"-461 -178 OFFCURVE",
"-404 -220 CURVE",
"-439 -221 LINE",
"-436 -149 OFFCURVE",
"-435 -78 OFFCURVE",
"-436 -6 CURVE SMOOTH"
);
},
{
closed = 1;
nodes = (
"-363 676 OFFCURVE",
"-404 672 OFFCURVE",
"-445 665 CURVE",
"-434 540 LINE",
"-394 550 OFFCURVE",
"-353 552 OFFCURVE",
"-309 553 CURVE",
"-319 673 LINE"
);
},
{
closed = 1;
nodes = (
"55 -93 OFFCURVE",
"56 135 OFFCURVE",
"53 388 CURVE",
"15 380 LINE",
"5 409 LINE",
"190 465 LINE",
"204 441 LINE",
"204 388 LINE SMOOTH",
"201 8 OFFCURVE",
"192 -120 OFFCURVE",
"174 -157 CURVE SMOOTH",
"156 -194 OFFCURVE",
"88 -237 OFFCURVE",
"26 -250 CURVE",
"-27 -250 OFFCURVE",
"-83 -236 OFFCURVE",
"-132 -206 CURVE",
"-57 -77 LINE",
"-18 -123 OFFCURVE",
"31 -178 OFFCURVE",
"88 -220 CURVE",
"50 -221 LINE"
);
},
{
closed = 1;
nodes = (
"191 670 LINE",
"191 556 LINE",
"63 537 LINE",
"63 641 LINE"
);
}
);
};
layerId = "FABFC9D4-E17A-4CB6-8F8E-4923CD579275";
name = Regular;
paths = (
{
closed = 1;
nodes = (
"55 -93 OFFCURVE",
"56 135 OFFCURVE",
"53 388 CURVE",
"15 380 LINE",
"5 409 LINE",
"190 465 LINE",
"204 441 LINE",
"204 388 LINE SMOOTH",
"201 8 OFFCURVE",
"192 -120 OFFCURVE",
"174 -157 CURVE SMOOTH",
"156 -194 OFFCURVE",
"88 -237 OFFCURVE",
"26 -250 CURVE",
"-27 -250 OFFCURVE",
"-83 -236 OFFCURVE",
"-132 -206 CURVE",
"-60 -92 LINE",
"-17 -137 OFFCURVE",
"34 -180 OFFCURVE",
"88 -220 CURVE",
"50 -221 LINE"
);
},
{
closed = 1;
nodes = (
"191 670 LINE",
"191 556 LINE",
"63 537 LINE",
"63 641 LINE"
);
}
);
width = 234;
}
);
unicode = 006A;
},
{
glyphname = k;
lastChange = "2016-02-22 12:49:18 +0000";
layers = (
{
anchors = (
{
name = bottom;
position = "{258, -80}";
},
{
name = top;
position = "{258, 770}";
}
);
background = {
components = (
{
name = _part.tallstem;
transform = "{1, 0, 0, 1, -620, 0}";
},
{
name = _part.tallstem;
transform = "{1, 0, 0, 1, -20, 0}";
}
);
paths = (
{
closed = 1;
nodes = (
"-2507 790 LINE",
"-2721 709 LINE",
"-2711 677 LINE",
"-2659 687 LINE",
"-2659 38 LINE",
"-2713 32 LINE",
"-2713 0 LINE",
"-2453 0 LINE",
"-2453 32 LINE",
"-2507 38 LINE"
);
},
{
closed = 1;
nodes = (
"-2362 38 LINE",
"-2416 32 LINE",
"-2416 0 LINE",
"-2137 0 LINE",
"-2137 32 LINE",
"-2191 38 LINE",
"-2321 280 LINE",
"-2443 219 LINE"
);
},
{
closed = 1;
nodes = (
"-2211 426 OFFCURVE",
"-2258 494 OFFCURVE",
"-2360 522 CURVE",
"-2526 318 LINE",
"-2512 287 LINE",
"-2424 366 LINE",
"-2390 359 OFFCURVE",
"-2365 317 OFFCURVE",
"-2365 291 CURVE",
"-2525 212 LINE",
"-2523 173 LINE",
"-2211 310 LINE"
);
},
{
closed = 1;
nodes = (
"-1807 790 LINE",
"-2011 724 LINE",
"-2001 692 LINE",
"-1959 701 LINE",
"-1959 35 LINE",
"-1996 32 LINE",
"-1996 0 LINE",
"-1770 0 LINE",
"-1770 32 LINE",
"-1807 35 LINE"
);
},
{
closed = 1;
nodes = (
"-1592 256 OFFCURVE",
"-1526 321 OFFCURVE",
"-1526 352 CURVE SMOOTH",
"-1526 415 OFFCURVE",
"-1569 488 OFFCURVE",
"-1660 513 CURVE",
"-1826 309 LINE",
"-1812 278 LINE",
"-1726 359 LINE",
"-1690 349 OFFCURVE",
"-1665 301 OFFCURVE",
"-1665 272 CURVE",
"-1825 193 LINE",
"-1823 154 LINE",
"-1631 239 LINE SMOOTH"
);
},
{
closed = 1;
nodes = (
"-1680 53 OFFCURVE",
"-1647 9 OFFCURVE",
"-1618 -15 CURVE",
"-1461 75 LINE",
"-1473 107 LINE",
"-1506 91 LINE",
"-1525 107 OFFCURVE",
"-1553 140 OFFCURVE",
"-1599 232 CURVE SMOOTH",
"-1621 280 LINE",
"-1743 219 LINE",
"-1720 158 LINE SMOOTH"
);
},
{
closed = 1;
nodes = (
"-1001 721 LINE",
"-1187 661 LINE",
"-1178 631 LINE",
"-1140 640 LINE",
"-1140 31 LINE",
"-1174 28 LINE",
"-1174 -1 LINE",
"-967 -1 LINE",
"-967 28 LINE",
"-1001 31 LINE"
);
},
{
closed = 1;
nodes = (
"-730 375 OFFCURVE",
"-773 441 OFFCURVE",
"-867 468 CURVE",
"-1018 281 LINE",
"-1005 253 LINE",
"-927 327 LINE",
"-894 318 OFFCURVE",
"-871 274 OFFCURVE",
"-871 247 CURVE",
"-1017 175 LINE",
"-1016 140 LINE",
"-730 265 LINE"
);
},
{
closed = 1;
nodes = (
"-885 47 OFFCURVE",
"-855 7 OFFCURVE",
"-828 -15 CURVE",
"-685 67 LINE",
"-696 97 LINE",
"-726 82 LINE",
"-743 97 OFFCURVE",
"-769 127 OFFCURVE",
"-811 211 CURVE SMOOTH",
"-831 255 LINE",
"-942 199 LINE",
"-921 143 LINE SMOOTH"
);
},
{
closed = 1;
nodes = (
"-130 375 OFFCURVE",
"-173 441 OFFCURVE",
"-267 468 CURVE",
"-418 281 LINE",
"-405 253 LINE",
"-327 327 LINE",
"-294 318 OFFCURVE",
"-271 274 OFFCURVE",
"-271 247 CURVE",
"-417 175 LINE",
"-416 140 LINE",
"-130 265 LINE"
);
},
{
closed = 1;
nodes = (
"-280 50 OFFCURVE",
"-250 10 OFFCURVE",
"-223 -12 CURVE",
"-80 70 LINE",
"-91 100 LINE",
"-121 85 LINE",
"-138 100 OFFCURVE",
"-164 130 OFFCURVE",
"-206 214 CURVE SMOOTH",
"-226 258 LINE",
"-337 202 LINE",
"-316 146 LINE SMOOTH"
);
},
{
closed = 1;
nodes = (
"476 375 OFFCURVE",
"433 441 OFFCURVE",
"339 468 CURVE",
"182 281 LINE",
"195 253 LINE",
"279 327 LINE",
"312 318 OFFCURVE",
"335 274 OFFCURVE",
"335 247 CURVE",
"183 175 LINE",
"184 140 LINE",
"476 265 LINE"
);
},
{
closed = 1;
nodes = (
"326 50 OFFCURVE",
"356 10 OFFCURVE",
"383 -12 CURVE",
"526 70 LINE",
"515 100 LINE",
"485 85 LINE",
"468 100 OFFCURVE",
"442 130 OFFCURVE",
"400 214 CURVE SMOOTH",
"380 258 LINE",
"269 202 LINE",
"290 146 LINE SMOOTH"
);
}
);
};
components = (
{
name = _part.tallstem;
transform = "{1, 0, 0, 1, -24, 0}";
}
);
layerId = "FABFC9D4-E17A-4CB6-8F8E-4923CD579275";
name = Regular;
paths = (
{
closed = 1;
nodes = (
"472 375 OFFCURVE",
"429 441 OFFCURVE",
"335 468 CURVE",
"178 281 LINE",
"191 253 LINE",
"280 330 LINE",
"313 321 OFFCURVE",
"336 277 OFFCURVE",
"336 250 CURVE",
"179 175 LINE",
"180 140 LINE",
"472 265 LINE"
);
},
{
closed = 1;
nodes = (
"313 50 OFFCURVE",
"353 10 OFFCURVE",
"380 -12 CURVE",
"520 70 LINE",
"509 100 LINE",
"482 85 LINE",
"449 110 OFFCURVE",
"409 163 OFFCURVE",
"387 214 CURVE SMOOTH",
"367 258 LINE",
"256 202 LINE",
"277 146 LINE SMOOTH"
);
}
);
width = 518;
}
);
leftKerningGroup = k;
rightKerningGroup = k;
unicode = 006B;
},
{
glyphname = l;
lastChange = "2016-02-22 12:49:18 +0000";
layers = (
{
anchors = (
{
name = bottom;
position = "{127, -80}";
},
{
name = center;
position = "{129, 365}";
},
{
name = top;
position = "{122, 770}";
},
{
name = topright;
position = "{237, 450}";
}
);
background = {
paths = (
{
closed = 1;
nodes = (
"202 790 LINE",
"-12 709 LINE",
"-2 677 LINE",
"50 687 LINE",
"50 38 LINE",
"-4 32 LINE",
"-4 0 LINE",
"256 0 LINE",
"256 32 LINE",
"202 38 LINE"
);
}
);
};
components = (
{
name = _part.tallstem;
transform = "{1, 0, 0, 1, -24, 0}";
}
);
layerId = "FABFC9D4-E17A-4CB6-8F8E-4923CD579275";
name = Regular;
width = 247;
}
);
leftKerningGroup = l;
rightKerningGroup = l;
unicode = 006C;
},
{
glyphname = m;
lastChange = "2016-02-22 12:49:18 +0000";
layers = (
{
background = {
components = (
{
name = _part.shortstem;
transform = "{1, 0, 0, 1, -1032, 0}";
},
{
name = _part.shoulder;
transform = "{1, 0, 0, 1, -1032, 0}";
piece = {
shoulderWidth = 20.2407;
};
},
{
name = _part.shoulder;
transform = "{1, 0, 0, 1, -759, 0}";
piece = {
shoulderWidth = 20.2407;
};
}
);
paths = (
{
closed = 1;
nodes = (
"1111 286 LINE",
"1111 307 LINE",
"1111 515 LINE",
"897 434 LINE",
"907 402 LINE",
"959 412 LINE",
"959 38 LINE",
"905 32 LINE",
"905 0 LINE",
"1165 0 LINE",
"1165 32 LINE",
"1111 38 LINE"
);
},
{
closed = 1;
nodes = (
"1233 38 LINE",
"1179 32 LINE",
"1179 0 LINE",
"1439 0 LINE",
"1439 32 LINE",
"1385 38 LINE",
"1385 300 LINE SMOOTH",
"1385 436 OFFCURVE",
"1330 525 OFFCURVE",
"1210 525 CURVE",
"1086 267 LINE",
"1099 250 LINE",
"1174 354 LINE",
"1209 354 OFFCURVE",
"1233 318 OFFCURVE",
"1233 236 CURVE SMOOTH"
);
},
{
closed = 1;
nodes = (
"1504 38 LINE",
"1450 32 LINE",
"1450 0 LINE",
"1710 0 LINE",
"1710 32 LINE",
"1656 38 LINE",
"1656 300 LINE SMOOTH",
"1656 436 OFFCURVE",
"1601 525 OFFCURVE",
"1481 525 CURVE",
"1357 267 LINE",
"1370 250 LINE",
"1445 354 LINE",
"1480 354 OFFCURVE",
"1504 318 OFFCURVE",
"1504 236 CURVE SMOOTH"
);
},
{
closed = 1;
nodes = (
"211 274 LINE",
"211 295 LINE",
"211 503 LINE",
"-3 432 LINE",
"7 400 LINE",
"59 410 LINE",
"59 38 LINE",
"5 32 LINE",
"5 0 LINE",
"260 0 LINE",
"260 32 LINE",
"211 38 LINE"
);
},
{
closed = 1;
nodes = (
"333 38 LINE",
"284 32 LINE",
"284 0 LINE",
"534 0 LINE",
"534 32 LINE",
"485 38 LINE",
"485 288 LINE SMOOTH",
"485 439 OFFCURVE",
"439 513 OFFCURVE",
"310 513 CURVE",
"269 429 OFFCURVE",
"227 344 OFFCURVE",
"186 260 CURVE",
"199 238 LINE",
"268 342 LINE",
"317 342 OFFCURVE",
"333 311 OFFCURVE",
"333 224 CURVE SMOOTH"
);
},
{
closed = 1;
nodes = (
"603 38 LINE",
"554 32 LINE",
"554 0 LINE",
"809 0 LINE",
"809 32 LINE",
"755 38 LINE",
"755 288 LINE SMOOTH",
"755 439 OFFCURVE",
"709 513 OFFCURVE",
"580 513 CURVE",
"456 260 LINE",
"469 238 LINE",
"538 342 LINE",
"587 342 OFFCURVE",
"603 311 OFFCURVE",
"603 224 CURVE SMOOTH"
);
}
);
};
components = (
{
name = _part.shoulder;
transform = "{1, 0, 0, 1, -50, 0}";
piece = {
shoulderWidth = 75.1284;
};
},
{
name = _part.shoulder;
transform = "{1, 0, 0, 1, 213, 0}";
piece = {
shoulderWidth = 74.8316;
};
},
{
name = _part.shortstem;
transform = "{1, 0, 0, 1, -32, 0}";
}
);
guideLines = (
{
position = "{547, 469}";
}
);
layerId = "FABFC9D4-E17A-4CB6-8F8E-4923CD579275";
name = Regular;
width = 778;
}
);
unicode = 006D;
},
{
glyphname = n;
lastChange = "2016-02-22 14:33:30 +0000";
layers = (
{
anchors = (
{
name = bottom;
position = "{272, -80}";
},
{
name = top;
position = "{270, 574}";
}
);
background = {
components = (
{
name = _part.shoulder;
transform = "{1, 0, 0, 1, 1169, 0}";
},
{
name = _part.shortstem;
transform = "{1, 0, 0, 1, 1169, 0}";
},
{
name = _part.shoulder;
transform = "{1, 0, 0, 1, -1230, 900}";
}
);
paths = (
{
closed = 1;
nodes = (
"827 1027 OFFCURVE",
"827 1116 OFFCURVE",
"827 1205 CURVE SMOOTH",
"827 1295 OFFCURVE",
"806 1361 OFFCURVE",
"776 1410 CURVE",
"591 1304 LINE",
"602 1270 LINE",
"646 1285 LINE",
"661 1259 OFFCURVE",
"673 1203 OFFCURVE",
"673 1137 CURVE SMOOTH",
"673 1071 OFFCURVE",
"671 1004 OFFCURVE",
"668 938 CURVE",
"614 932 LINE",
"614 900 LINE",
"878 900 LINE",
"878 932 LINE",
"824 938 LINE"
);
},
{
closed = 1;
nodes = (
"964 1082 OFFCURVE",
"961 1010 OFFCURVE",
"958 938 CURVE",
"904 932 LINE",
"904 900 LINE",
"1168 900 LINE",
"1168 932 LINE",
"1114 938 LINE",
"1116 1037 OFFCURVE",
"1118 1136 OFFCURVE",
"1118 1235 CURVE SMOOTH",
"1118 1341 OFFCURVE",
"1069 1399 OFFCURVE",
"1006 1422 CURVE",
"809 1270 LINE",
"815 1236 LINE",
"896 1281 LINE",
"930 1272 OFFCURVE",
"964 1223 OFFCURVE",
"964 1154 CURVE SMOOTH"
);
},
{
closed = 1;
nodes = (
"-388 1200 LINE SMOOTH",
"-388 1290 OFFCURVE",
"-405 1356 OFFCURVE",
"-434 1405 CURVE",
"-619 1299 LINE",
"-609 1267 LINE",
"-565 1282 LINE",
"-548 1254 OFFCURVE",
"-540 1198 OFFCURVE",
"-540 1132 CURVE SMOOTH",
"-540 938 LINE",
"-594 932 LINE",
"-594 900 LINE",
"-334 900 LINE",
"-334 932 LINE",
"-388 938 LINE"
);
},
{
closed = 1;
nodes = (
"-250 938 LINE",
"-304 932 LINE",
"-304 900 LINE",
"-44 900 LINE",
"-44 932 LINE",
"-98 938 LINE",
"-98 1200 LINE SMOOTH",
"-98 1336 OFFCURVE",
"-142 1391 OFFCURVE",
"-235 1425 CURVE",
"-405 1233 LINE",
"-393 1201 LINE",
"-315 1271 LINE",
"-280 1262 OFFCURVE",
"-250 1218 OFFCURVE",
"-250 1149 CURVE SMOOTH"
);
},
{
closed = 1;
nodes = (
"212 1174 LINE",
"212 1195 LINE",
"212 1403 LINE",
"-2 1332 LINE",
"8 1300 LINE",
"60 1310 LINE",
"60 938 LINE",
"6 932 LINE",
"6 900 LINE",
"266 900 LINE",
"266 932 LINE",
"212 938 LINE"
);
},
{
closed = 1;
nodes = (
"346 938 LINE",
"292 932 LINE",
"292 900 LINE",
"552 900 LINE",
"552 932 LINE",
"498 938 LINE",
"498 1188 LINE SMOOTH",
"498 1339 OFFCURVE",
"449 1413 OFFCURVE",
"311 1413 CURVE",
"187 1160 LINE",
"200 1138 LINE",
"269 1242 LINE",
"327 1242 OFFCURVE",
"346 1211 OFFCURVE",
"346 1124 CURVE SMOOTH"
);
},
{
closed = 1;
nodes = (
"-988 1174 LINE",
"-988 1195 LINE",
"-988 1403 LINE",
"-1202 1332 LINE",
"-1192 1300 LINE",
"-1140 1310 LINE",
"-1140 938 LINE",
"-1194 932 LINE",
"-1194 900 LINE",
"-934 900 LINE",
"-934 932 LINE",
"-988 938 LINE"
);
}
);
};
components = (
{
name = _part.shortstem;
transform = "{1, 0, 0, 1, -32, 0}";
},
{
name = _part.shoulder;
transform = "{1, 0, 0, 1, -50, 0}";
}
);
guideLines = (
{
angle = 270;
position = "{274, 196}";
}
);
layerId = "FABFC9D4-E17A-4CB6-8F8E-4923CD579275";
name = Regular;
width = 521;
}
);
leftKerningGroup = n;
rightKerningGroup = n;
unicode = 006E;
},
{
glyphname = o;
lastChange = "2016-02-22 14:34:51 +0000";
layers = (
{
anchors = (
{
name = top;
position = "{247, 574}";
}
);
background = {
paths = (
{
closed = 1;
nodes = (
"-2708 39 OFFCURVE",
"-2724 35 OFFCURVE",
"-2734 35 CURVE SMOOTH",
"-2774 35 OFFCURVE",
"-2827 104 OFFCURVE",
"-2827 261 CURVE SMOOTH",
"-2827 342 OFFCURVE",
"-2819 411 OFFCURVE",
"-2810 454 CURVE",
"-2797 461 OFFCURVE",
"-2781 465 OFFCURVE",
"-2771 465 CURVE SMOOTH",
"-2731 465 OFFCURVE",
"-2678 396 OFFCURVE",
"-2678 239 CURVE SMOOTH",
"-2678 158 OFFCURVE",
"-2686 89 OFFCURVE",
"-2695 46 CURVE"
);
},
{
closed = 1;
nodes = (
"-2788 515 OFFCURVE",
"-2886 470 OFFCURVE",
"-2930 432 CURVE",
"-2970 378 OFFCURVE",
"-2991 306 OFFCURVE",
"-2991 221 CURVE SMOOTH",
"-2991 68 OFFCURVE",
"-2903 -15 OFFCURVE",
"-2775 -15 CURVE SMOOTH",
"-2717 -15 OFFCURVE",
"-2619 30 OFFCURVE",
"-2575 68 CURVE",
"-2535 122 OFFCURVE",
"-2514 194 OFFCURVE",
"-2514 279 CURVE SMOOTH",
"-2514 432 OFFCURVE",
"-2602 515 OFFCURVE",
"-2730 515 CURVE"
);
},
{
closed = 1;
nodes = (
"-2401 302 OFFCURVE",
"-2380 368 OFFCURVE",
"-2340 422 CURVE",
"-2296 460 OFFCURVE",
"-2191 515 OFFCURVE",
"-2130 515 CURVE SMOOTH",
"-1996 515 OFFCURVE",
"-1904 426 OFFCURVE",
"-1904 279 CURVE SMOOTH",
"-1904 194 OFFCURVE",
"-1925 129 OFFCURVE",
"-1965 78 CURVE",
"-2009 40 OFFCURVE",
"-2114 -15 OFFCURVE",
"-2175 -15 CURVE SMOOTH",
"-2309 -15 OFFCURVE",
"-2401 68 OFFCURVE",
"-2401 221 CURVE SMOOTH"
);
},
{
closed = 1;
nodes = (
"-2068 337 OFFCURVE",
"-2112 414 OFFCURVE",
"-2200 414 CURVE SMOOTH",
"-2255 414 LINE",
"-2221 439 LINE",
"-2231 388 OFFCURVE",
"-2237 337 OFFCURVE",
"-2237 271 CURVE SMOOTH",
"-2237 144 OFFCURVE",
"-2182 84 OFFCURVE",
"-2101 83 CURVE SMOOTH",
"-2099 83 LINE",
"-2078 131 OFFCURVE",
"-2068 171 OFFCURVE",
"-2068 239 CURVE SMOOTH"
);
},
{
closed = 1;
nodes = (
"-1325 179 OFFCURVE",
"-1344 119 OFFCURVE",
"-1381 70 CURVE",
"-1421 35 OFFCURVE",
"-1517 -15 OFFCURVE",
"-1573 -15 CURVE SMOOTH",
"-1696 -15 OFFCURVE",
"-1780 65 OFFCURVE",
"-1780 199 CURVE SMOOTH",
"-1780 272 OFFCURVE",
"-1761 331 OFFCURVE",
"-1724 381 CURVE",
"-1684 415 OFFCURVE",
"-1588 465 OFFCURVE",
"-1532 465 CURVE SMOOTH",
"-1409 465 OFFCURVE",
"-1325 384 OFFCURVE",
"-1325 252 CURVE SMOOTH"
);
},
{
closed = 1;
nodes = (
"-1637 147 OFFCURVE",
"-1583 77 OFFCURVE",
"-1509 77 CURVE SMOOTH",
"-1459 77 LINE",
"-1485 54 LINE",
"-1472 102 OFFCURVE",
"-1468 157 OFFCURVE",
"-1468 205 CURVE SMOOTH",
"-1468 304 OFFCURVE",
"-1522 373 OFFCURVE",
"-1596 373 CURVE SMOOTH",
"-1646 373 LINE",
"-1620 396 LINE",
"-1633 349 OFFCURVE",
"-1637 294 OFFCURVE",
"-1637 245 CURVE SMOOTH"
);
},
{
closed = 1;
nodes = (
"-939 383 OFFCURVE",
"-863 334 OFFCURVE",
"-863 190 CURVE SMOOTH",
"-863 159 OFFCURVE",
"-870 90 OFFCURVE",
"-884 47 CURVE",
"-840 67 LINE",
"-965 67 OFFCURVE",
"-1042 116 OFFCURVE",
"-1042 260 CURVE SMOOTH",
"-1042 291 OFFCURVE",
"-1034 360 OFFCURVE",
"-1020 403 CURVE",
"-1061 383 LINE"
);
},
{
closed = 1;
nodes = (
"-1017 465 OFFCURVE",
"-1080 434 OFFCURVE",
"-1120 396 CURVE",
"-1164 343 OFFCURVE",
"-1186 270 OFFCURVE",
"-1186 212 CURVE SMOOTH",
"-1186 63 OFFCURVE",
"-1090 -15 OFFCURVE",
"-956 -15 CURVE SMOOTH",
"-887 -15 OFFCURVE",
"-824 16 OFFCURVE",
"-784 54 CURVE",
"-739 107 OFFCURVE",
"-719 180 OFFCURVE",
"-719 238 CURVE SMOOTH",
"-719 387 OFFCURVE",
"-815 465 OFFCURVE",
"-949 465 CURVE SMOOTH"
);
},
{
closed = 1;
nodes = (
"-341 383 OFFCURVE",
"-266 334 OFFCURVE",
"-266 190 CURVE SMOOTH",
"-266 159 OFFCURVE",
"-273 90 OFFCURVE",
"-287 47 CURVE",
"-240 67 LINE",
"-363 67 OFFCURVE",
"-439 116 OFFCURVE",
"-439 260 CURVE SMOOTH",
"-439 291 OFFCURVE",
"-431 360 OFFCURVE",
"-417 403 CURVE",
"-461 383 LINE"
);
},
{
closed = 1;
nodes = (
"-416 465 OFFCURVE",
"-477 434 OFFCURVE",
"-517 396 CURVE",
"-561 343 OFFCURVE",
"-583 270 OFFCURVE",
"-583 212 CURVE SMOOTH",
"-583 63 OFFCURVE",
"-488 -15 OFFCURVE",
"-356 -15 CURVE SMOOTH",
"-288 -15 OFFCURVE",
"-227 16 OFFCURVE",
"-187 54 CURVE",
"-142 107 OFFCURVE",
"-122 180 OFFCURVE",
"-122 238 CURVE SMOOTH",
"-122 387 OFFCURVE",
"-217 465 OFFCURVE",
"-349 465 CURVE SMOOTH"
);
},
{
closed = 1;
nodes = (
"259 390 OFFCURVE",
"334 339 OFFCURVE",
"334 190 CURVE SMOOTH",
"334 157 OFFCURVE",
"327 83 OFFCURVE",
"313 40 CURVE",
"360 60 LINE",
"237 60 OFFCURVE",
"161 111 OFFCURVE",
"161 260 CURVE SMOOTH",
"161 293 OFFCURVE",
"169 367 OFFCURVE",
"183 410 CURVE",
"139 390 LINE"
);
},
{
closed = 1;
nodes = (
"184 465 OFFCURVE",
"123 434 OFFCURVE",
"83 396 CURVE",
"39 343 OFFCURVE",
"17 270 OFFCURVE",
"17 212 CURVE SMOOTH",
"17 63 OFFCURVE",
"112 -15 OFFCURVE",
"244 -15 CURVE SMOOTH",
"312 -15 OFFCURVE",
"373 16 OFFCURVE",
"413 54 CURVE",
"458 107 OFFCURVE",
"478 180 OFFCURVE",
"478 238 CURVE SMOOTH",
"478 387 OFFCURVE",
"383 465 OFFCURVE",
"251 465 CURVE SMOOTH"
);
}
);
};
guideLines = (
{
angle = 270;
position = "{248, 421}";
}
);
layerId = "FABFC9D4-E17A-4CB6-8F8E-4923CD579275";
name = Regular;
paths = (
{
closed = 1;
nodes = (
"258 390 OFFCURVE",
"329 339 OFFCURVE",
"329 190 CURVE SMOOTH",
"329 157 OFFCURVE",
"322 83 OFFCURVE",
"308 40 CURVE",
"355 60 LINE",
"238 60 OFFCURVE",
"166 111 OFFCURVE",
"166 260 CURVE SMOOTH",
"166 293 OFFCURVE",
"174 367 OFFCURVE",
"188 410 CURVE",
"144 390 LINE"
);
},
{
closed = 1;
nodes = (
"186 465 OFFCURVE",
"128 434 OFFCURVE",
"88 396 CURVE",
"44 343 OFFCURVE",
"22 270 OFFCURVE",
"22 212 CURVE SMOOTH",
"22 63 OFFCURVE",
"115 -15 OFFCURVE",
"244 -15 CURVE SMOOTH",
"310 -15 OFFCURVE",
"368 15 OFFCURVE",
"408 53 CURVE",
"453 106 OFFCURVE",
"473 180 OFFCURVE",
"473 238 CURVE SMOOTH",
"473 387 OFFCURVE",
"380 465 OFFCURVE",
"251 465 CURVE SMOOTH"
);
}
);
width = 485;
}
);
leftKerningGroup = o;
rightKerningGroup = o;
unicode = 006F;
},
{
glyphname = oslash;
lastChange = "2016-02-22 14:37:52 +0000";
layers = (
{
components = (
{
name = o;
}
);
layerId = "FABFC9D4-E17A-4CB6-8F8E-4923CD579275";
name = Regular;
paths = (
{
closed = 1;
nodes = (
"186 52 LINE",
"344 368 LINE",
"314 388 LINE",
"158 77 LINE"
);
}
);
width = 485;
}
);
leftKerningGroup = o;
rightKerningGroup = o;
unicode = 00F8;
},
{
glyphname = oe;
lastChange = "2016-02-22 12:49:18 +0000";
layers = (
{
background = {
paths = (
{
closed = 1;
nodes = (
"-369 425 LINE",
"-325 424 OFFCURVE",
"-291 355 OFFCURVE",
"-289 263 CURVE",
"-416 252 LINE",
"-416 220 LINE",
"-132 230 LINE",
"-131 374 OFFCURVE",
"-204 465 OFFCURVE",
"-320 465 CURVE SMOOTH",
"-368 465 OFFCURVE",
"-429 450 OFFCURVE",
"-464 430 CURVE",
"-514 378 OFFCURVE",
"-546 292 OFFCURVE",
"-546 209 CURVE SMOOTH",
"-546 76 OFFCURVE",
"-466 -15 OFFCURVE",
"-348 -15 CURVE SMOOTH",
"-262 -15 OFFCURVE",
"-179 36 OFFCURVE",
"-132 117 CURVE",
"-150 133 LINE",
"-181 114 OFFCURVE",
"-222 103 OFFCURVE",
"-262 103 CURVE SMOOTH",
"-353 103 OFFCURVE",
"-401 156 OFFCURVE",
"-401 255 CURVE SMOOTH",
"-401 325 OFFCURVE",
"-380 395 OFFCURVE",
"-349 428 CURVE"
);
},
{
closed = 1;
nodes = (
"-620 383 OFFCURVE",
"-545 334 OFFCURVE",
"-545 190 CURVE SMOOTH",
"-545 159 OFFCURVE",
"-552 90 OFFCURVE",
"-566 47 CURVE",
"-519 67 LINE",
"-642 67 OFFCURVE",
"-718 116 OFFCURVE",
"-718 260 CURVE SMOOTH",
"-718 291 OFFCURVE",
"-710 360 OFFCURVE",
"-696 403 CURVE",
"-740 383 LINE"
);
},
{
closed = 1;
nodes = (
"-695 465 OFFCURVE",
"-756 434 OFFCURVE",
"-796 396 CURVE",
"-840 343 OFFCURVE",
"-862 270 OFFCURVE",
"-862 212 CURVE SMOOTH",
"-862 63 OFFCURVE",
"-767 -15 OFFCURVE",
"-635 -15 CURVE SMOOTH",
"-567 -15 OFFCURVE",
"-506 16 OFFCURVE",
"-466 54 CURVE",
"-421 107 OFFCURVE",
"-401 180 OFFCURVE",
"-401 238 CURVE SMOOTH",
"-401 387 OFFCURVE",
"-496 465 OFFCURVE",
"-628 465 CURVE SMOOTH"
);
},
{
closed = 1;
nodes = (
"531 425 LINE",
"575 424 OFFCURVE",
"609 355 OFFCURVE",
"611 263 CURVE",
"484 252 LINE",
"484 220 LINE",
"768 230 LINE",
"769 374 OFFCURVE",
"696 465 OFFCURVE",
"580 465 CURVE SMOOTH",
"440 465 OFFCURVE",
"354 367 OFFCURVE",
"354 205 CURVE SMOOTH",
"354 76 OFFCURVE",
"434 -15 OFFCURVE",
"552 -15 CURVE SMOOTH",
"638 -15 OFFCURVE",
"721 36 OFFCURVE",
"768 117 CURVE",
"750 133 LINE",
"719 114 OFFCURVE",
"678 103 OFFCURVE",
"638 103 CURVE SMOOTH",
"547 103 OFFCURVE",
"499 156 OFFCURVE",
"499 255 CURVE SMOOTH",
"499 325 OFFCURVE",
"520 395 OFFCURVE",
"551 428 CURVE"
);
},
{
closed = 1;
nodes = (
"495 238 LINE",
"495 387 OFFCURVE",
"402 465 OFFCURVE",
"272 465 CURVE SMOOTH",
"209 465 OFFCURVE",
"154 434 OFFCURVE",
"114 396 CURVE",
"70 343 OFFCURVE",
"48 270 OFFCURVE",
"48 212 CURVE SMOOTH",
"48 63 OFFCURVE",
"139 -15 OFFCURVE",
"265 -15 CURVE SMOOTH",
"333 -15 OFFCURVE",
"394 16 OFFCURVE",
"434 54 CURVE",
"413 65 LINE",
"276 65 OFFCURVE",
"192 114 OFFCURVE",
"192 260 CURVE SMOOTH",
"192 291 OFFCURVE",
"200 360 OFFCURVE",
"214 403 CURVE",
"170 383 LINE",
"284 383 OFFCURVE",
"355 334 OFFCURVE",
"354 212 CURVE"
);
}
);
};
layerId = "FABFC9D4-E17A-4CB6-8F8E-4923CD579275";
name = Regular;
paths = (
{
closed = 1;
nodes = (
"505 425 LINE",
"552 424 OFFCURVE",
"589 355 OFFCURVE",
"591 263 CURVE",
"458 252 LINE",
"458 220 LINE",
"742 230 LINE",
"743 374 OFFCURVE",
"670 465 OFFCURVE",
"554 465 CURVE SMOOTH",
"414 465 OFFCURVE",
"328 367 OFFCURVE",
"328 205 CURVE SMOOTH",
"328 76 OFFCURVE",
"408 -15 OFFCURVE",
"526 -15 CURVE SMOOTH",
"618 -15 OFFCURVE",
"695 35 OFFCURVE",
"742 127 CURVE",
"724 143 LINE",
"693 114 OFFCURVE",
"652 103 OFFCURVE",
"612 103 CURVE SMOOTH",
"521 103 OFFCURVE",
"473 156 OFFCURVE",
"473 255 CURVE SMOOTH",
"473 325 OFFCURVE",
"494 395 OFFCURVE",
"525 428 CURVE"
);
},
{
closed = 1;
nodes = (
"469 238 LINE",
"469 387 OFFCURVE",
"376 465 OFFCURVE",
"246 465 CURVE SMOOTH",
"183 465 OFFCURVE",
"128 434 OFFCURVE",
"88 396 CURVE",
"44 343 OFFCURVE",
"22 270 OFFCURVE",
"22 212 CURVE SMOOTH",
"22 63 OFFCURVE",
"113 -15 OFFCURVE",
"239 -15 CURVE SMOOTH",
"307 -15 OFFCURVE",
"368 16 OFFCURVE",
"408 54 CURVE",
"387 65 LINE",
"250 65 OFFCURVE",
"166 114 OFFCURVE",
"166 260 CURVE SMOOTH",
"166 291 OFFCURVE",
"174 360 OFFCURVE",
"188 403 CURVE",
"144 383 LINE",
"258 383 OFFCURVE",
"329 334 OFFCURVE",
"328 212 CURVE"
);
}
);
width = 752;
}
);
leftKerningGroup = o;
rightKerningGroup = e;
unicode = 0153;
},
{
glyphname = p;
lastChange = "2016-02-22 12:49:18 +0000";
layers = (
{
background = {
paths = (
{
closed = 1;
nodes = (
"-535 -257 LINE",
"-352 -197 LINE",
"-361 -169 LINE",
"-399 -177 LINE",
"-399 339 LINE",
"-399 400 OFFCURVE",
"-415 438 OFFCURVE",
"-453 460 CURVE",
"-595 381 LINE",
"-583 354 LINE",
"-553 368 LINE",
"-541 352 OFFCURVE",
"-535 334 OFFCURVE",
"-535 284 CURVE"
);
},
{
closed = 1;
nodes = (
"-134 123 OFFCURVE",
"-118 204 OFFCURVE",
"-118 254 CURVE SMOOTH",
"-118 392 OFFCURVE",
"-178 465 OFFCURVE",
"-300 465 CURVE",
"-422 322 LINE",
"-408 296 LINE",
"-354 350 LINE",
"-300 350 OFFCURVE",
"-258 307 OFFCURVE",
"-258 206 CURVE SMOOTH",
"-258 142 OFFCURVE",
"-269 87 OFFCURVE",
"-286 44 CURVE",
"-260 58 LINE",
"-304 68 OFFCURVE",
"-370 111 OFFCURVE",
"-419 177 CURVE",
"-472 66 LINE",
"-431 16 OFFCURVE",
"-358 -15 OFFCURVE",
"-296 -15 CURVE SMOOTH",
"-270 -15 OFFCURVE",
"-180 49 OFFCURVE",
"-160 83 CURVE"
);
},
{
closed = 1;
nodes = (
"65 -218 LINE",
"28 -221 LINE",
"28 -250 LINE",
"281 -250 LINE",
"281 -221 LINE",
"204 -218 LINE",
"204 342 LINE",
"171 462 LINE",
"17 413 LINE",
"27 383 LINE",
"65 392 LINE"
);
},
{
closed = 1;
nodes = (
"473 115 OFFCURVE",
"498 192 OFFCURVE",
"498 260 CURVE SMOOTH",
"498 378 OFFCURVE",
"419 465 OFFCURVE",
"303 465 CURVE",
"181 322 LINE",
"195 296 LINE",
"249 350 LINE",
"305 350 OFFCURVE",
"358 296 OFFCURVE",
"358 200 CURVE SMOOTH",
"358 145 OFFCURVE",
"347 85 OFFCURVE",
"322 44 CURVE",
"348 58 LINE",
"289 65 OFFCURVE",
"200 100 OFFCURVE",
"150 136 CURVE",
"69 37 LINE",
"115 12 OFFCURVE",
"231 -15 OFFCURVE",
"289 -15 CURVE SMOOTH",
"335 -15 OFFCURVE",
"417 38 OFFCURVE",
"442 73 CURVE"
);
}
);
};
layerId = "FABFC9D4-E17A-4CB6-8F8E-4923CD579275";
name = Regular;
paths = (
{
closed = 1;
nodes = (
"59 -218 LINE",
"22 -221 LINE",
"22 -250 LINE",
"287 -250 LINE",
"287 -221 LINE",
"210 -218 LINE",
"205 342 LINE",
"171 462 LINE",
"16 413 LINE",
"26 383 LINE",
"64 392 LINE"
);
},
{
closed = 1;
nodes = (
"474 105 OFFCURVE",
"499 192 OFFCURVE",
"499 260 CURVE SMOOTH",
"499 378 OFFCURVE",
"420 465 OFFCURVE",
"303 465 CURVE",
"181 322 LINE",
"195 296 LINE",
"249 350 LINE",
"304 350 OFFCURVE",
"356 296 OFFCURVE",
"356 200 CURVE SMOOTH",
"356 145 OFFCURVE",
"346 85 OFFCURVE",
"322 44 CURVE",
"348 58 LINE",
"289 65 OFFCURVE",
"200 100 OFFCURVE",
"150 136 CURVE",
"69 37 LINE",
"115 12 OFFCURVE",
"231 -15 OFFCURVE",
"289 -15 CURVE SMOOTH",
"335 -15 OFFCURVE",
"417 28 OFFCURVE",
"442 63 CURVE"
);
}
);
width = 511;
}
);
unicode = 0070;
},
{
glyphname = thorn;
lastChange = "2016-02-22 12:49:18 +0000";
layers = (
{
background = {
paths = (
{
closed = 1;
nodes = (
"61 -218 LINE",
"24 -221 LINE",
"24 -250 LINE",
"289 -250 LINE",
"289 -221 LINE",
"212 -218 LINE",
"207 342 LINE",
"173 462 LINE",
"18 413 LINE",
"28 383 LINE",
"66 392 LINE"
);
},
{
closed = 1;
nodes = (
"476 105 OFFCURVE",
"501 192 OFFCURVE",
"501 260 CURVE SMOOTH",
"501 378 OFFCURVE",
"422 465 OFFCURVE",
"305 465 CURVE",
"183 322 LINE",
"197 296 LINE",
"251 350 LINE",
"306 350 OFFCURVE",
"358 296 OFFCURVE",
"358 200 CURVE SMOOTH",
"358 145 OFFCURVE",
"348 85 OFFCURVE",
"324 44 CURVE",
"350 58 LINE",
"291 65 OFFCURVE",
"202 100 OFFCURVE",
"152 136 CURVE",
"71 37 LINE",
"117 12 OFFCURVE",
"233 -15 OFFCURVE",
"291 -15 CURVE SMOOTH",
"337 -15 OFFCURVE",
"419 28 OFFCURVE",
"444 63 CURVE"
);
}
);
};
layerId = "FABFC9D4-E17A-4CB6-8F8E-4923CD579275";
name = Regular;
paths = (
{
closed = 1;
nodes = (
"197 708 LINE",
"16 652 LINE",
"26 623 LINE",
"64 631 LINE",
"65 -218 LINE",
"28 -221 LINE",
"28 -250 LINE",
"247 -250 LINE",
"247 -221 LINE",
"210 -218 LINE",
"211 684 LINE"
);
},
{
closed = 1;
nodes = (
"476 105 OFFCURVE",
"501 192 OFFCURVE",
"501 260 CURVE SMOOTH",
"501 378 OFFCURVE",
"422 465 OFFCURVE",
"305 465 CURVE",
"183 322 LINE",
"197 296 LINE",
"251 350 LINE",
"306 350 OFFCURVE",
"358 296 OFFCURVE",
"358 200 CURVE SMOOTH",
"358 145 OFFCURVE",
"348 85 OFFCURVE",
"324 44 CURVE",
"350 58 LINE",
"291 65 OFFCURVE",
"202 100 OFFCURVE",
"152 136 CURVE",
"71 37 LINE",
"117 12 OFFCURVE",
"233 -15 OFFCURVE",
"291 -15 CURVE SMOOTH",
"337 -15 OFFCURVE",
"419 28 OFFCURVE",
"444 63 CURVE"
);
}
);
width = 513;
}
);
unicode = 00FE;
},
{
glyphname = q;
lastChange = "2016-02-22 12:49:18 +0000";
layers = (
{
background = {
paths = (
{
closed = 1;
nodes = (
"-281 -257 LINE",
"-98 -197 LINE",
"-107 -169 LINE",
"-145 -177 LINE",
"-145 450 LINE",
"-170 450 LINE",
"-222 361 LINE",
"-281 308 LINE"
);
},
{
closed = 1;
nodes = (
"-547 327 OFFCURVE",
"-563 246 OFFCURVE",
"-563 196 CURVE SMOOTH",
"-563 58 OFFCURVE",
"-503 -15 OFFCURVE",
"-380 -15 CURVE",
"-258 128 LINE",
"-272 154 LINE",
"-326 100 LINE",
"-381 100 OFFCURVE",
"-423 143 OFFCURVE",
"-423 244 CURVE SMOOTH",
"-423 308 OFFCURVE",
"-411 363 OFFCURVE",
"-394 406 CURVE",
"-420 392 LINE",
"-376 382 OFFCURVE",
"-310 339 OFFCURVE",
"-261 273 CURVE",
"-208 384 LINE",
"-249 434 OFFCURVE",
"-322 465 OFFCURVE",
"-384 465 CURVE SMOOTH",
"-410 465 OFFCURVE",
"-500 401 OFFCURVE",
"-520 367 CURVE"
);
},
{
closed = 1;
nodes = (
"317 -255 LINE",
"500 -195 LINE",
"491 -167 LINE",
"453 -175 LINE",
"453 415 LINE",
"317 394 LINE"
);
},
{
closed = 1;
nodes = (
"48 337 OFFCURVE",
"23 260 OFFCURVE",
"23 192 CURVE SMOOTH",
"23 74 OFFCURVE",
"102 -13 OFFCURVE",
"218 -13 CURVE",
"340 130 LINE",
"326 156 LINE",
"272 102 LINE",
"216 102 OFFCURVE",
"163 156 OFFCURVE",
"163 252 CURVE SMOOTH",
"163 307 OFFCURVE",
"174 367 OFFCURVE",
"199 408 CURVE",
"173 394 LINE",
"232 387 OFFCURVE",
"321 352 OFFCURVE",
"371 316 CURVE",
"452 415 LINE",
"406 440 OFFCURVE",
"290 467 OFFCURVE",
"232 467 CURVE SMOOTH",
"186 467 OFFCURVE",
"104 414 OFFCURVE",
"79 379 CURVE"
);
}
);
};
layerId = "FABFC9D4-E17A-4CB6-8F8E-4923CD579275";
name = Regular;
paths = (
{
closed = 1;
nodes = (
"48 345 OFFCURVE",
"22 258 OFFCURVE",
"22 190 CURVE SMOOTH",
"22 72 OFFCURVE",
"102 -15 OFFCURVE",
"219 -15 CURVE",
"341 128 LINE",
"327 154 LINE",
"273 100 LINE",
"218 100 OFFCURVE",
"166 154 OFFCURVE",
"166 250 CURVE SMOOTH",
"166 305 OFFCURVE",
"176 365 OFFCURVE",
"200 406 CURVE",
"174 392 LINE",
"233 385 OFFCURVE",
"322 350 OFFCURVE",
"372 314 CURVE",
"457 413 LINE",
"410 438 OFFCURVE",
"292 465 OFFCURVE",
"233 465 CURVE SMOOTH",
"187 465 OFFCURVE",
"105 422 OFFCURVE",
"80 387 CURVE"
);
},
{
closed = 1;
nodes = (
"457 413 LINE",
"316 391 LINE",
"311 -218 LINE",
"234 -221 LINE",
"234 -250 LINE",
"499 -250 LINE",
"499 -221 LINE",
"462 -218 LINE"
);
}
);
width = 507;
}
);
unicode = 0071;
},
{
glyphname = r;
lastChange = "2016-02-22 16:29:31 +0000";
layers = (
{
anchors = (
{
name = bottom;
position = "{139, -80}";
},
{
name = top;
position = "{264, 574}";
}
);
background = {
components = (
{
name = _part.shortstem;
transform = "{1, 0, 0, 1, -1032, 0}";
},
{
name = _part.shortstem;
transform = "{1, 0, 0, 1, -532, 0}";
},
{
name = _part.shortstem;
transform = "{1, 0, 0, 1, -32, 0}";
piece = {
WideSerif = 73.6197;
};
}
);
paths = (
{
closed = 1;
nodes = (
"-1647 416 LINE",
"-1680 475 OFFCURVE",
"-1736 512 OFFCURVE",
"-1817 512 CURVE",
"-1910 217 LINE",
"-1893 198 LINE",
"-1830 348 LINE",
"-1808 348 OFFCURVE",
"-1777 327 OFFCURVE",
"-1763 304 CURVE"
);
},
{
closed = 1;
nodes = (
"-1389 274 LINE",
"-1389 295 LINE",
"-1389 503 LINE",
"-1603 432 LINE",
"-1593 400 LINE",
"-1541 410 LINE",
"-1541 38 LINE",
"-1595 32 LINE",
"-1595 0 LINE",
"-1270 0 LINE",
"-1270 32 LINE",
"-1389 38 LINE"
);
},
{
closed = 1;
nodes = (
"-1135 399 LINE",
"-1176 474 OFFCURVE",
"-1234 506 OFFCURVE",
"-1315 506 CURVE",
"-1411 237 LINE",
"-1401 208 LINE",
"-1330 339 LINE",
"-1303 339 OFFCURVE",
"-1277 318 OFFCURVE",
"-1255 278 CURVE"
);
},
{
closed = 1;
nodes = (
"-545 332 LINE",
"-544 445 OFFCURVE",
"-593 513 OFFCURVE",
"-700 513 CURVE",
"-801 337 LINE",
"-794 307 LINE",
"-775 321 OFFCURVE",
"-746 341 OFFCURVE",
"-720 341 CURVE SMOOTH",
"-700 341 OFFCURVE",
"-682 319 OFFCURVE",
"-678 285 CURVE"
);
},
{
closed = 1;
nodes = (
"-303 302 LINE",
"-274 319 OFFCURVE",
"-189 327 OFFCURVE",
"-128 311 CURVE",
"-110 464 LINE",
"-197 464 OFFCURVE",
"-274 414 OFFCURVE",
"-313 322 CURVE"
);
},
{
closed = 1;
nodes = (
"432 300 LINE",
"429 403 OFFCURVE",
"384 465 OFFCURVE",
"294 465 CURVE",
"194 312 LINE",
"202 275 LINE",
"254 331 LINE",
"274 331 OFFCURVE",
"303 301 OFFCURVE",
"306 257 CURVE"
);
}
);
};
components = (
{
name = _part.shortstem;
transform = "{1, 0, 0, 1, -32, 0}";
piece = {
WideSerif = 73.6197;
};
}
);
layerId = "FABFC9D4-E17A-4CB6-8F8E-4923CD579275";
name = Regular;
paths = (
{
closed = 1;
nodes = (
"412 450 LINE",
"390 459 OFFCURVE",
"361 465 OFFCURVE",
"333 465 CURVE SMOOTH",
"316 465 OFFCURVE",
"294 462 OFFCURVE",
"280 457 CURVE",
"249 427 OFFCURVE",
"217 377 OFFCURVE",
"197 329 CURVE",
"205 305 LINE",
"232 338 LINE",
"269 336 OFFCURVE",
"340 328 OFFCURVE",
"380 320 CURVE"
);
}
);
width = 392;
}
);
leftKerningGroup = r;
rightKerningGroup = r;
unicode = 0072;
},
{
glyphname = s;
lastChange = "2016-02-22 14:38:58 +0000";
layers = (
{
anchors = (
{
name = bottom;
position = "{183, -80}";
},
{
name = top;
position = "{208, 574}";
}
);
background = {
paths = (
{
closed = 1;
nodes = (
"1822 161 OFFCURVE",
"1720 124 OFFCURVE",
"1667 124 CURVE",
"1643 169 LINE",
"1614 154 LINE",
"1690 -23 LINE",
"1769 -17 OFFCURVE",
"1945 36 OFFCURVE",
"1945 142 CURVE",
"1915 206 OFFCURVE",
"1743 262 OFFCURVE",
"1740 313 CURVE SMOOTH",
"1739 331 OFFCURVE",
"1841 368 OFFCURVE",
"1894 368 CURVE",
"1918 323 LINE",
"1947 338 LINE",
"1871 515 LINE",
"1792 509 OFFCURVE",
"1616 456 OFFCURVE",
"1616 350 CURVE",
"1646 286 OFFCURVE",
"1818 230 OFFCURVE",
"1821 179 CURVE SMOOTH"
);
},
{
closed = 1;
nodes = (
"1150 124 OFFCURVE",
"1099 108 OFFCURVE",
"1070 108 CURVE",
"1046 153 LINE",
"1017 138 LINE",
"1084 -22 LINE",
"1163 -16 OFFCURVE",
"1330 35 OFFCURVE",
"1330 145 CURVE SMOOTH",
"1330 218 OFFCURVE",
"1204 294 OFFCURVE",
"1204 344 CURVE SMOOTH",
"1204 366 OFFCURVE",
"1255 387 OFFCURVE",
"1284 387 CURVE",
"1308 342 LINE",
"1337 357 LINE",
"1270 517 LINE",
"1191 511 OFFCURVE",
"1016 455 OFFCURVE",
"1016 345 CURVE SMOOTH",
"1016 268 OFFCURVE",
"1150 194 OFFCURVE",
"1150 146 CURVE SMOOTH"
);
},
{
closed = 1;
nodes = (
"652 118 OFFCURVE",
"606 104 OFFCURVE",
"579 104 CURVE",
"557 145 LINE",
"531 131 LINE",
"592 -15 LINE",
"664 -10 OFFCURVE",
"817 37 OFFCURVE",
"817 138 CURVE SMOOTH",
"817 202 OFFCURVE",
"702 263 OFFCURVE",
"702 307 CURVE SMOOTH",
"702 327 OFFCURVE",
"748 346 OFFCURVE",
"775 346 CURVE",
"797 305 LINE",
"823 319 LINE",
"762 465 LINE",
"690 459 OFFCURVE",
"530 408 OFFCURVE",
"530 308 CURVE SMOOTH",
"530 240 OFFCURVE",
"652 181 OFFCURVE",
"652 139 CURVE SMOOTH"
);
},
{
closed = 1;
nodes = (
"224 45 OFFCURVE",
"171 0 OFFCURVE",
"137 0 CURVE",
"201 1 LINE",
"160 44 OFFCURVE",
"127 91 OFFCURVE",
"102 143 CURVE",
"16 74 LINE",
"45 18 OFFCURVE",
"102 -15 OFFCURVE",
"183 -15 CURVE SMOOTH",
"295 -15 OFFCURVE",
"367 55 OFFCURVE",
"367 133 CURVE SMOOTH",
"367 255 OFFCURVE",
"170 286 OFFCURVE",
"170 375 CURVE SMOOTH",
"170 421 OFFCURVE",
"193 445 OFFCURVE",
"215 453 CURVE",
"168 448 LINE",
"218 407 OFFCURVE",
"254 366 OFFCURVE",
"293 317 CURVE",
"371 400 LINE",
"341 436 OFFCURVE",
"287 465 OFFCURVE",
"227 465 CURVE SMOOTH",
"110 465 OFFCURVE",
"34 390 OFFCURVE",
"34 318 CURVE SMOOTH",
"34 197 OFFCURVE",
"224 175 OFFCURVE",
"224 85 CURVE SMOOTH"
);
}
);
};
guideLines = (
{
angle = 270;
position = "{195, 369}";
}
);
layerId = "FABFC9D4-E17A-4CB6-8F8E-4923CD579275";
name = Regular;
paths = (
{
closed = 1;
nodes = (
"224 45 OFFCURVE",
"171 0 OFFCURVE",
"137 0 CURVE",
"201 1 LINE",
"160 44 OFFCURVE",
"128 95 OFFCURVE",
"102 143 CURVE",
"16 74 LINE",
"45 23 OFFCURVE",
"112 -15 OFFCURVE",
"183 -15 CURVE SMOOTH",
"295 -15 OFFCURVE",
"367 55 OFFCURVE",
"367 133 CURVE SMOOTH",
"367 255 OFFCURVE",
"170 286 OFFCURVE",
"170 375 CURVE SMOOTH",
"170 421 OFFCURVE",
"193 445 OFFCURVE",
"215 453 CURVE",
"168 448 LINE",
"218 407 OFFCURVE",
"254 372 OFFCURVE",
"293 323 CURVE",
"371 400 LINE",
"341 436 OFFCURVE",
"287 465 OFFCURVE",
"227 465 CURVE SMOOTH",
"110 465 OFFCURVE",
"34 390 OFFCURVE",
"34 318 CURVE SMOOTH",
"34 197 OFFCURVE",
"224 175 OFFCURVE",
"224 85 CURVE SMOOTH"
);
}
);
width = 385;
}
);
leftKerningGroup = s;
rightKerningGroup = s;
unicode = 0073;
},
{
glyphname = germandbls;
lastChange = "2016-02-22 12:49:18 +0000";
layers = (
{
background = {
paths = (
{
closed = 1;
nodes = (
"-4898 387 LINE",
"-4786 387 OFFCURVE",
"-4732 310 OFFCURVE",
"-4732 238 CURVE SMOOTH",
"-4732 91 OFFCURVE",
"-4836 0 OFFCURVE",
"-5063 0 CURVE SMOOTH",
"-5070 37 LINE",
"-4958 37 OFFCURVE",
"-4910 87 OFFCURVE",
"-4910 209 CURVE SMOOTH",
"-4910 303 OFFCURVE",
"-4964 351 OFFCURVE",
"-5054 351 CURVE",
"-5053 386 LINE",
"-4976 386 OFFCURVE",
"-4940 430 OFFCURVE",
"-4940 511 CURVE SMOOTH",
"-4940 597 OFFCURVE",
"-4989 641 OFFCURVE",
"-5034 641 CURVE SMOOTH",
"-5079 641 OFFCURVE",
"-5100 593 OFFCURVE",
"-5100 287 CURVE SMOOTH",
"-5100 0 LINE",
"-5294 0 LINE",
"-5294 35 LINE",
"-5245 36 LINE",
"-5247 287 LINE SMOOTH",
"-5249 574 OFFCURVE",
"-5269 685 OFFCURVE",
"-4994 685 CURVE SMOOTH",
"-4869 685 OFFCURVE",
"-4796 627 OFFCURVE",
"-4796 549 CURVE SMOOTH",
"-4796 464 OFFCURVE",
"-4857 406 OFFCURVE",
"-4975 371 CURVE",
"-4975 381 LINE"
);
},
{
closed = 1;
nodes = (
"-4342 375 OFFCURVE",
"-4132 380 OFFCURVE",
"-4132 188 CURVE SMOOTH",
"-4132 91 OFFCURVE",
"-4236 0 OFFCURVE",
"-4463 0 CURVE SMOOTH",
"-4470 37 LINE",
"-4358 37 OFFCURVE",
"-4310 87 OFFCURVE",
"-4310 159 CURVE SMOOTH",
"-4310 253 OFFCURVE",
"-4421 275 OFFCURVE",
"-4458 304 CURVE",
"-4411 385 OFFCURVE",
"-4340 459 OFFCURVE",
"-4340 531 CURVE SMOOTH",
"-4340 604 OFFCURVE",
"-4389 641 OFFCURVE",
"-4434 641 CURVE SMOOTH",
"-4479 641 OFFCURVE",
"-4500 593 OFFCURVE",
"-4500 287 CURVE SMOOTH",
"-4500 0 LINE",
"-4694 0 LINE",
"-4694 35 LINE",
"-4645 36 LINE",
"-4647 287 LINE SMOOTH",
"-4649 574 OFFCURVE",
"-4669 685 OFFCURVE",
"-4394 685 CURVE SMOOTH",
"-4269 685 OFFCURVE",
"-4196 627 OFFCURVE",
"-4196 549 CURVE SMOOTH",
"-4196 421 OFFCURVE",
"-4341 397 OFFCURVE",
"-4372 364 CURVE",
"-4376 386 LINE"
);
},
{
closed = 0;
nodes = (
"-3739 328 LINE",
"-3640 455 LINE",
"-3640 503 OFFCURVE",
"-3684 527 OFFCURVE",
"-3744 527 CURVE SMOOTH",
"-3786 527 OFFCURVE",
"-3847 516 OFFCURVE",
"-3867 505 CURVE",
"-3820 561 LINE",
"-3820 0 LINE",
"-3994 0 LINE",
"-3994 35 LINE",
"-3945 36 LINE",
"-3948 491 LINE",
"-3885 617 LINE",
"-3852 653 OFFCURVE",
"-3773 685 OFFCURVE",
"-3703 685 CURVE SMOOTH",
"-3579 685 OFFCURVE",
"-3516 606 OFFCURVE",
"-3516 528 CURVE",
"-3632 397 LINE"
);
},
{
closed = 1;
nodes = (
"-2840 425 LINE",
"-2840 493 OFFCURVE",
"-2884 527 OFFCURVE",
"-2944 527 CURVE SMOOTH",
"-2986 527 OFFCURVE",
"-3047 516 OFFCURVE",
"-3067 505 CURVE",
"-3020 561 LINE",
"-3020 0 LINE",
"-3194 0 LINE",
"-3194 35 LINE",
"-3145 36 LINE",
"-3148 491 LINE",
"-3085 617 LINE",
"-3052 653 OFFCURVE",
"-2973 685 OFFCURVE",
"-2903 685 CURVE SMOOTH",
"-2779 685 OFFCURVE",
"-2716 596 OFFCURVE",
"-2716 498 CURVE",
"-2877 329 LINE",
"-2827 416 LINE",
"-2830 409 OFFCURVE",
"-2831 402 OFFCURVE",
"-2831 392 CURVE SMOOTH",
"-2831 317 OFFCURVE",
"-2661 307 OFFCURVE",
"-2661 188 CURVE SMOOTH",
"-2661 121 OFFCURVE",
"-2795 -14 OFFCURVE",
"-2859 -14 CURVE SMOOTH",
"-2897 -14 OFFCURVE",
"-2947 -4 OFFCURVE",
"-2973 11 CURVE",
"-2947 111 LINE",
"-2878 70 OFFCURVE",
"-2784 50 OFFCURVE",
"-2743 76 CURVE",
"-2783 50 LINE",
"-2775 61 OFFCURVE",
"-2769 76 OFFCURVE",
"-2769 92 CURVE SMOOTH",
"-2769 204 OFFCURVE",
"-2954 217 OFFCURVE",
"-2954 309 CURVE"
);
},
{
closed = 1;
nodes = (
"-2133 440 LINE",
"-2133 502 OFFCURVE",
"-2187 541 OFFCURVE",
"-2250 541 CURVE SMOOTH",
"-2290 541 OFFCURVE",
"-2348 530 OFFCURVE",
"-2367 519 CURVE",
"-2305 561 LINE",
"-2305 0 LINE",
"-2494 0 LINE",
"-2494 35 LINE",
"-2445 36 LINE",
"-2445 481 LINE",
"-2389 615 LINE",
"-2356 655 OFFCURVE",
"-2279 685 OFFCURVE",
"-2213 685 CURVE SMOOTH",
"-2082 685 OFFCURVE",
"-2029 594 OFFCURVE",
"-2029 497 CURVE",
"-2083 437 LINE SMOOTH",
"-2114 403 OFFCURVE",
"-2121 391 OFFCURVE",
"-2121 379 CURVE SMOOTH",
"-2121 314 OFFCURVE",
"-1971 290 OFFCURVE",
"-1971 193 CURVE SMOOTH",
"-1971 99 OFFCURVE",
"-2069 -14 OFFCURVE",
"-2159 -14 CURVE SMOOTH",
"-2219 -14 OFFCURVE",
"-2250 -1 OFFCURVE",
"-2277 19 CURVE",
"-2210 111 LINE",
"-2164 83 OFFCURVE",
"-2123 65 OFFCURVE",
"-2088 64 CURVE SMOOTH",
"-2071 64 OFFCURVE",
"-2056 68 OFFCURVE",
"-2043 76 CURVE",
"-2078 40 LINE",
"-2073 51 OFFCURVE",
"-2069 66 OFFCURVE",
"-2069 82 CURVE SMOOTH",
"-2069 180 OFFCURVE",
"-2225 194 OFFCURVE",
"-2225 290 CURVE SMOOTH",
"-2225 312 OFFCURVE",
"-2206 349 OFFCURVE",
"-2174 388 CURVE SMOOTH"
);
},
{
closed = 1;
nodes = (
"-1533 440 LINE",
"-1533 502 OFFCURVE",
"-1587 541 OFFCURVE",
"-1650 541 CURVE SMOOTH",
"-1690 541 OFFCURVE",
"-1748 527 OFFCURVE",
"-1767 516 CURVE",
"-1705 561 LINE",
"-1705 0 LINE",
"-1845 0 LINE",
"-1845 481 LINE",
"-1788 605 LINE",
"-1755 646 OFFCURVE",
"-1679 685 OFFCURVE",
"-1613 685 CURVE SMOOTH",
"-1482 685 OFFCURVE",
"-1429 594 OFFCURVE",
"-1429 497 CURVE",
"-1482 437 LINE SMOOTH",
"-1509 407 OFFCURVE",
"-1517 393 OFFCURVE",
"-1517 381 CURVE SMOOTH",
"-1517 306 OFFCURVE",
"-1371 300 OFFCURVE",
"-1371 186 CURVE SMOOTH",
"-1371 99 OFFCURVE",
"-1469 -14 OFFCURVE",
"-1563 -14 CURVE SMOOTH",
"-1614 -14 OFFCURVE",
"-1650 -1 OFFCURVE",
"-1677 19 CURVE",
"-1610 111 LINE",
"-1556 83 OFFCURVE",
"-1508 65 OFFCURVE",
"-1468 64 CURVE SMOOTH",
"-1459 64 OFFCURVE",
"-1450 68 OFFCURVE",
"-1443 76 CURVE",
"-1478 40 LINE",
"-1473 51 OFFCURVE",
"-1469 66 OFFCURVE",
"-1469 82 CURVE SMOOTH",
"-1469 186 OFFCURVE",
"-1625 191 OFFCURVE",
"-1625 290 CURVE SMOOTH",
"-1625 312 OFFCURVE",
"-1604 348 OFFCURVE",
"-1573 388 CURVE SMOOTH"
);
},
{
closed = 1;
nodes = (
"-903 467 LINE",
"-937 408 LINE",
"-933 420 OFFCURVE",
"-932 431 OFFCURVE",
"-932 442 CURVE SMOOTH",
"-934 498 OFFCURVE",
"-988 541 OFFCURVE",
"-1050 541 CURVE SMOOTH",
"-1090 541 OFFCURVE",
"-1148 527 OFFCURVE",
"-1167 516 CURVE",
"-1105 561 LINE",
"-1105 0 LINE",
"-1245 0 LINE",
"-1245 481 LINE",
"-1188 605 LINE",
"-1155 646 OFFCURVE",
"-1079 685 OFFCURVE",
"-1013 685 CURVE SMOOTH",
"-875 685 OFFCURVE",
"-810 594 OFFCURVE",
"-810 503 CURVE",
"-921 385 LINE",
"-921 311 OFFCURVE",
"-766 300 OFFCURVE",
"-766 186 CURVE SMOOTH",
"-766 99 OFFCURVE",
"-864 -14 OFFCURVE",
"-958 -14 CURVE SMOOTH",
"-1009 -14 OFFCURVE",
"-1045 -1 OFFCURVE",
"-1072 19 CURVE",
"-1005 111 LINE",
"-951 83 OFFCURVE",
"-903 65 OFFCURVE",
"-863 64 CURVE SMOOTH",
"-854 64 OFFCURVE",
"-845 68 OFFCURVE",
"-838 76 CURVE",
"-873 40 LINE",
"-868 51 OFFCURVE",
"-864 66 OFFCURVE",
"-864 82 CURVE SMOOTH",
"-864 186 OFFCURVE",
"-1038 187 OFFCURVE",
"-1038 316 CURVE"
);
},
{
closed = 1;
nodes = (
"-694 35 LINE",
"-645 36 LINE",
"-645 481 LINE",
"-588 626 LINE",
"-555 667 OFFCURVE",
"-479 706 OFFCURVE",
"-413 706 CURVE SMOOTH",
"-275 706 OFFCURVE",
"-210 605 OFFCURVE",
"-210 503 CURVE",
"-321 390 LINE",
"-321 308 OFFCURVE",
"-166 300 OFFCURVE",
"-166 186 CURVE SMOOTH",
"-166 99 OFFCURVE",
"-264 -14 OFFCURVE",
"-358 -14 CURVE SMOOTH",
"-405 -14 OFFCURVE",
"-438 -1 OFFCURVE",
"-463 19 CURVE",
"-405 111 LINE",
"-355 79 OFFCURVE",
"-305 54 OFFCURVE",
"-273 37 CURVE",
"-286 32 LINE",
"-275 44 OFFCURVE",
"-264 66 OFFCURVE",
"-264 86 CURVE SMOOTH",
"-264 186 OFFCURVE",
"-438 192 OFFCURVE",
"-438 321 CURVE",
"-303 467 LINE",
"-337 408 LINE",
"-333 420 OFFCURVE",
"-332 431 OFFCURVE",
"-332 442 CURVE SMOOTH",
"-334 510 OFFCURVE",
"-388 562 OFFCURVE",
"-450 562 CURVE SMOOTH",
"-490 562 OFFCURVE",
"-548 548 OFFCURVE",
"-567 537 CURVE",
"-505 582 LINE",
"-505 0 LINE",
"-694 0 LINE"
);
},
{
closed = 1;
nodes = (
"6 35 LINE",
"55 36 LINE",
"55 481 LINE",
"112 626 LINE",
"145 667 OFFCURVE",
"221 706 OFFCURVE",
"287 706 CURVE SMOOTH",
"426 706 OFFCURVE",
"482 610 OFFCURVE",
"482 507 CURVE",
"418 437 LINE SMOOTH",
"389 405 OFFCURVE",
"383 393 OFFCURVE",
"383 381 CURVE SMOOTH",
"383 306 OFFCURVE",
"529 300 OFFCURVE",
"529 186 CURVE SMOOTH",
"529 99 OFFCURVE",
"431 -14 OFFCURVE",
"337 -14 CURVE SMOOTH",
"286 -14 OFFCURVE",
"250 -1 OFFCURVE",
"223 19 CURVE",
"290 111 LINE",
"344 77 OFFCURVE",
"392 55 OFFCURVE",
"432 54 CURVE SMOOTH",
"441 54 OFFCURVE",
"450 57 OFFCURVE",
"457 60 CURVE",
"422 40 LINE",
"427 51 OFFCURVE",
"431 66 OFFCURVE",
"431 82 CURVE SMOOTH",
"431 186 OFFCURVE",
"275 188 OFFCURVE",
"275 290 CURVE SMOOTH",
"275 312 OFFCURVE",
"292 343 OFFCURVE",
"329 390 CURVE SMOOTH",
"397 476 LINE",
"363 402 LINE",
"366 415 OFFCURVE",
"367 428 OFFCURVE",
"367 440 CURVE SMOOTH",
"367 515 OFFCURVE",
"313 562 OFFCURVE",
"250 562 CURVE SMOOTH",
"210 562 OFFCURVE",
"152 548 OFFCURVE",
"133 537 CURVE",
"195 582 LINE",
"195 0 LINE",
"6 0 LINE"
);
}
);
};
layerId = "FABFC9D4-E17A-4CB6-8F8E-4923CD579275";
name = Regular;
paths = (
{
closed = 1;
nodes = (
"6 35 LINE",
"55 36 LINE",
"55 481 LINE",
"112 626 LINE",
"145 667 OFFCURVE",
"221 706 OFFCURVE",
"287 706 CURVE SMOOTH",
"426 706 OFFCURVE",
"482 605 OFFCURVE",
"482 500 CURVE",
"418 427 LINE SMOOTH",
"390 396 OFFCURVE",
"383 383 OFFCURVE",
"383 371 CURVE SMOOTH",
"383 296 OFFCURVE",
"529 294 OFFCURVE",
"529 186 CURVE SMOOTH",
"529 99 OFFCURVE",
"431 -14 OFFCURVE",
"337 -14 CURVE SMOOTH",
"286 -14 OFFCURVE",
"250 -1 OFFCURVE",
"223 19 CURVE",
"290 111 LINE",
"344 77 OFFCURVE",
"392 55 OFFCURVE",
"432 54 CURVE SMOOTH",
"441 54 OFFCURVE",
"450 57 OFFCURVE",
"457 60 CURVE",
"422 40 LINE",
"427 51 OFFCURVE",
"431 66 OFFCURVE",
"431 82 CURVE SMOOTH",
"431 181 OFFCURVE",
"275 178 OFFCURVE",
"275 280 CURVE SMOOTH",
"275 302 OFFCURVE",
"292 333 OFFCURVE",
"329 380 CURVE SMOOTH",
"397 466 LINE",
"363 402 LINE",
"366 415 OFFCURVE",
"367 428 OFFCURVE",
"367 440 CURVE SMOOTH",
"367 515 OFFCURVE",
"313 562 OFFCURVE",
"250 562 CURVE SMOOTH",
"210 562 OFFCURVE",
"152 548 OFFCURVE",
"133 537 CURVE",
"195 582 LINE",
"195 0 LINE",
"6 0 LINE"
);
}
);
width = 545;
}
);
unicode = 00DF;
},
{
glyphname = t;
lastChange = "2016-02-22 16:27:21 +0000";
layers = (
{
anchors = (
{
name = bottom;
position = "{163, -80}";
},
{
name = center;
position = "{169, 225}";
},
{
name = top;
position = "{169, 450}";
},
{
name = topright;
position = "{318, 450}";
}
);
background = {
paths = (
{
closed = 1;
nodes = (
"-925 460 LINE",
"-842 460 LINE",
"-842 159 LINE SMOOTH",
"-842 49 OFFCURVE",
"-780 -12 OFFCURVE",
"-668 -12 CURVE",
"-552 154 LINE",
"-578 176 LINE",
"-611 138 LINE",
"-665 138 OFFCURVE",
"-690 170 OFFCURVE",
"-690 240 CURVE SMOOTH",
"-690 660 LINE",
"-727 660 LINE",
"-780 587 OFFCURVE",
"-848 527 OFFCURVE",
"-925 495 CURVE"
);
},
{
closed = 1;
nodes = (
"-737 460 LINE",
"-569 460 LINE",
"-569 506 LINE",
"-737 501 LINE"
);
},
{
closed = 1;
nodes = (
"-509 420 LINE",
"-434 420 LINE",
"-434 165 LINE SMOOTH",
"-434 38 OFFCURVE",
"-377 -8 OFFCURVE",
"-274 -8 CURVE",
"-175 137 LINE",
"-198 157 LINE",
"-224 126 LINE",
"-264 126 OFFCURVE",
"-293 158 OFFCURVE",
"-293 223 CURVE SMOOTH",
"-293 603 LINE",
"-328 603 LINE",
"-377 536 OFFCURVE",
"-439 482 OFFCURVE",
"-509 452 CURVE"
);
},
{
closed = 1;
nodes = (
"-338 420 LINE",
"-184 420 LINE",
"-184 462 LINE",
"-338 457 LINE"
);
},
{
closed = 1;
nodes = (
"-9 418 LINE",
"66 418 LINE",
"66 165 LINE SMOOTH",
"66 37 OFFCURVE",
"128 -9 OFFCURVE",
"240 -9 CURVE",
"330 111 LINE",
"307 131 LINE",
"282 106 LINE",
"246 106 OFFCURVE",
"207 145 OFFCURVE",
"207 223 CURVE SMOOTH",
"207 603 LINE",
"172 603 LINE",
"123 535 OFFCURVE",
"61 480 OFFCURVE",
"-9 450 CURVE"
);
},
{
closed = 1;
nodes = (
"162 418 LINE",
"316 418 LINE",
"316 460 LINE",
"162 455 LINE"
);
}
);
};
layerId = "FABFC9D4-E17A-4CB6-8F8E-4923CD579275";
name = Regular;
paths = (
{
closed = 1;
nodes = (
"8 411 LINE",
"75 411 LINE",
"75 145 LINE SMOOTH",
"75 37 OFFCURVE",
"117 -9 OFFCURVE",
"216 -9 CURVE",
"338 79 LINE",
"321 109 LINE",
"284 88 LINE",
"245 88 OFFCURVE",
"216 113 OFFCURVE",
"216 180 CURVE SMOOTH",
"216 418 LINE",
"218 437 LINE",
"223 588 LINE",
"190 598 LINE",
"137 537 OFFCURVE",
"65 474 OFFCURVE",
"8 443 CURVE"
);
},
{
closed = 1;
nodes = (
"171 411 LINE",
"335 408 LINE",
"335 450 LINE",
"171 450 LINE"
);
}
);
width = 338;
}
);
unicode = 0074;
},
{
glyphname = u;
lastChange = "2016-02-22 14:40:18 +0000";
layers = (
{
anchors = (
{
name = bottom;
position = "{266, 0}";
},
{
name = ogonek;
position = "{479, 10}";
},
{
name = top;
position = "{263, 574}";
},
{
name = topright;
position = "{513, 450}";
}
);
background = {
paths = (
{
closed = 1;
nodes = (
"-1069 200 LINE SMOOTH",
"-1069 114 OFFCURVE",
"-1054 47 OFFCURVE",
"-1023 -5 CURVE",
"-838 101 LINE",
"-848 133 LINE",
"-892 118 LINE",
"-908 144 OFFCURVE",
"-917 198 OFFCURVE",
"-917 268 CURVE SMOOTH",
"-917 500 LINE",
"-1123 500 LINE",
"-1123 468 LINE",
"-1069 462 LINE"
);
},
{
closed = 1;
nodes = (
"-1202 500 LINE",
"-1408 500 LINE",
"-1408 468 LINE",
"-1354 462 LINE",
"-1354 220 LINE SMOOTH",
"-1354 83 OFFCURVE",
"-1307 9 OFFCURVE",
"-1205 -22 CURVE",
"-1049 182 LINE",
"-1063 213 LINE",
"-1141 134 LINE",
"-1180 144 OFFCURVE",
"-1202 197 OFFCURVE",
"-1202 281 CURVE SMOOTH"
);
},
{
closed = 1;
nodes = (
"-216 500 LINE",
"-422 500 LINE",
"-422 468 LINE",
"-368 462 LINE",
"-368 126 LINE SMOOTH",
"-368 58 OFFCURVE",
"-348 15 OFFCURVE",
"-301 -10 CURVE",
"-151 77 LINE",
"-163 109 LINE",
"-196 93 LINE",
"-210 111 OFFCURVE",
"-216 131 OFFCURVE",
"-216 187 CURVE SMOOTH"
);
},
{
closed = 1;
nodes = (
"-354 117 LINE",
"-361 148 LINE",
"-380 142 OFFCURVE",
"-405 139 OFFCURVE",
"-422 139 CURVE SMOOTH",
"-478 139 OFFCURVE",
"-503 175 OFFCURVE",
"-503 245 CURVE SMOOTH",
"-503 500 LINE",
"-709 500 LINE",
"-709 468 LINE",
"-655 462 LINE",
"-655 190 LINE SMOOTH",
"-655 59 OFFCURVE",
"-603 -13 OFFCURVE",
"-465 -13 CURVE"
);
},
{
closed = 1;
nodes = (
"57 171 LINE SMOOTH",
"57 44 OFFCURVE",
"115 -15 OFFCURVE",
"241 -15 CURVE",
"362 161 LINE",
"350 178 LINE",
"284 116 LINE",
"232 117 OFFCURVE",
"196 150 OFFCURVE",
"196 211 CURVE SMOOTH",
"196 450 LINE",
"20 450 LINE",
"20 421 LINE",
"57 418 LINE"
);
},
{
closed = 1;
nodes = (
"327 50 OFFCURVE",
"346 11 OFFCURVE",
"389 -12 CURVE",
"526 67 LINE",
"515 97 LINE",
"485 82 LINE",
"472 98 OFFCURVE",
"466 117 OFFCURVE",
"466 168 CURVE SMOOTH",
"466 450 LINE",
"291 450 LINE",
"291 421 LINE",
"327 418 LINE",
"327 112 LINE SMOOTH"
);
}
);
};
guideLines = (
{
angle = 270;
position = "{263, 545}";
}
);
layerId = "FABFC9D4-E17A-4CB6-8F8E-4923CD579275";
name = Regular;
paths = (
{
closed = 1;
nodes = (
"57 171 LINE SMOOTH",
"57 44 OFFCURVE",
"115 -15 OFFCURVE",
"241 -15 CURVE",
"362 161 LINE",
"350 178 LINE",
"284 116 LINE",
"233 117 OFFCURVE",
"198 150 OFFCURVE",
"198 211 CURVE SMOOTH",
"198 450 LINE",
"20 450 LINE",
"20 421 LINE",
"57 418 LINE"
);
},
{
closed = 1;
nodes = (
"327 50 OFFCURVE",
"346 11 OFFCURVE",
"389 -12 CURVE",
"528 67 LINE",
"517 97 LINE",
"487 82 LINE",
"474 98 OFFCURVE",
"468 117 OFFCURVE",
"468 168 CURVE SMOOTH",
"468 450 LINE",
"291 450 LINE",
"291 421 LINE",
"327 418 LINE",
"327 112 LINE SMOOTH"
);
}
);
width = 522;
}
);
leftKerningGroup = u;
rightKerningGroup = u;
unicode = 0075;
},
{
glyphname = uogonek;
lastChange = "2016-02-22 12:49:18 +0000";
layers = (
{
background = {
components = (
{
name = aogonek;
transform = "{1, 0, 0, 1, 80, 0}";
}
);
};
components = (
{
name = u;
}
);
layerId = "FABFC9D4-E17A-4CB6-8F8E-4923CD579275";
name = Regular;
paths = (
{
closed = 1;
nodes = (
"378 18 OFFCURVE",
"321 -58 OFFCURVE",
"321 -133 CURVE SMOOTH",
"321 -202 OFFCURVE",
"368 -251 OFFCURVE",
"433 -251 CURVE SMOOTH",
"472 -251 OFFCURVE",
"505 -237 OFFCURVE",
"531 -218 CURVE",
"523 -193 LINE",
"456 -201 OFFCURVE",
"424 -157 OFFCURVE",
"424 -102 CURVE SMOOTH",
"424 -41 OFFCURVE",
"459 20 OFFCURVE",
"507 54 CURVE",
"503 60 LINE"
);
}
);
width = 537;
}
);
leftKerningGroup = u;
rightKerningGroup = u;
unicode = 0173;
},
{
glyphname = v;
lastChange = "2016-02-22 12:50:54 +0000";
layers = (
{
background = {
paths = (
{
closed = 1;
nodes = (
"-708 418 LINE",
"-708 450 LINE",
"-886 450 LINE",
"-886 418 LINE",
"-847 417 LINE",
"-921 62 LINE",
"-904 68 LINE",
"-1010 417 LINE",
"-971 418 LINE",
"-971 450 LINE",
"-1217 450 LINE",
"-1217 418 LINE",
"-1178 417 LINE",
"-1014 0 LINE",
"-913 6 LINE",
"-746 417 LINE"
);
},
{
closed = 1;
nodes = (
"-107 418 LINE",
"-107 450 LINE",
"-285 450 LINE",
"-285 418 LINE",
"-246 417 LINE",
"-331 52 LINE",
"-304 68 LINE",
"-410 417 LINE",
"-371 418 LINE",
"-371 450 LINE",
"-620 450 LINE",
"-620 418 LINE",
"-581 417 LINE",
"-414 0 LINE",
"-313 6 LINE",
"-145 417 LINE"
);
},
{
closed = 1;
nodes = (
"493 418 LINE",
"493 450 LINE",
"315 450 LINE",
"315 418 LINE",
"354 417 LINE",
"269 52 LINE",
"296 68 LINE",
"185 417 LINE",
"224 418 LINE",
"224 450 LINE",
"-20 450 LINE",
"-20 418 LINE",
"19 417 LINE",
"186 0 LINE",
"287 6 LINE",
"455 417 LINE"
);
}
);
};
guideLines = (
{
angle = 270;
position = "{271, 430}";
}
);
layerId = "FABFC9D4-E17A-4CB6-8F8E-4923CD579275";
name = Regular;
paths = (
{
closed = 1;
nodes = (
"484 418 LINE",
"484 450 LINE",
"312 450 LINE",
"312 418 LINE",
"354 417 LINE",
"257 52 LINE",
"284 68 LINE",
"185 417 LINE",
"227 418 LINE",
"227 450 LINE",
"-10 450 LINE",
"-10 418 LINE",
"19 417 LINE",
"177 0 LINE",
"278 6 LINE",
"455 417 LINE"
);
}
);
width = 474;
}
);
leftKerningGroup = v;
rightKerningGroup = v;
unicode = 0076;
},
